<?xml version="1.0" encoding="UTF-8" standalone="no"?>
<!-- Created with Inkscape (http://www.inkscape.org/) -->

<svg
   width="604.0415"
   height="604.0415"
   viewBox="0 0 604.0415 604.0415"
   version="1.1"
   id="svg1"
   xml:space="preserve"
   inkscape:export-filename="ShoperPrime.png"
   inkscape:export-xdpi="96"
   inkscape:export-ydpi="96"
   inkscape:version="1.3 (0e150ed6c4, 2023-07-21)"
   sodipodi:docname="ShoperPrime.svg"
   xmlns:inkscape="http://www.inkscape.org/namespaces/inkscape"
   xmlns:sodipodi="http://sodipodi.sourceforge.net/DTD/sodipodi-0.dtd"
   xmlns="http://www.w3.org/2000/svg"
   xmlns:svg="http://www.w3.org/2000/svg"><sodipodi:namedview
     id="namedview1"
     pagecolor="#ffffff"
     bordercolor="#000000"
     borderopacity="0.25"
     inkscape:showpageshadow="2"
     inkscape:pageopacity="0.0"
     inkscape:pagecheckerboard="0"
     inkscape:deskcolor="#d1d1d1"
     inkscape:document-units="px"
     inkscape:zoom="0.51155435"
     inkscape:cx="1121.093"
     inkscape:cy="4801.0539"
     inkscape:window-width="2560"
     inkscape:window-height="1009"
     inkscape:window-x="-8"
     inkscape:window-y="-8"
     inkscape:window-maximized="1"
     inkscape:current-layer="layer1" /><defs
     id="defs1" /><g
     inkscape:label="Layer 1"
     inkscape:groupmode="layer"
     id="layer1"
     transform="translate(-3575.9199,-3735.5288)"><circle
       style="fill:#ff0000;fill-opacity:1;stroke-width:1.05461"
       id="path82"
       cx="3877.9407"
       cy="4037.5496"
       r="302.02072"
       inkscape:export-filename="..\..\GitHub\Computroid\computroidpos\public\js\posapp\components\poslogo.png"
       inkscape:export-xdpi="96"
       inkscape:export-ydpi="96" /><circle
       style="fill:#fcfcfc;fill-opacity:1;stroke-width:1.04096"
       id="path82-3"
       cx="3877.9407"
       cy="4037.5496"
       r="298.11105" /><path
       id="path114-6-2-2"
       style="fill:#ff6200;fill-opacity:1;stroke-width:1.12475"
       d="m 3877.9417,3746.4002 a 291.14999,291.14999 0 0 0 -291.1504,291.1504 291.14999,291.14999 0 0 0 291.1504,291.1484 291.14999,291.14999 0 0 0 291.1484,-291.1484 291.14999,291.14999 0 0 0 -291.1484,-291.1504 z m -205.9648,140.7246 c 8.9342,0 16.5339,1.4428 22.7988,4.3301 6.3193,2.8873 10.4863,6.5385 12.5019,10.9512 2.0702,4.3581 3.1055,11.7926 3.1055,22.3066 v 5.2305 h -31.9512 v -9.8047 c 0,-4.5761 -0.4074,-7.4912 -1.2246,-8.7442 -0.8171,-1.2529 -2.1792,-1.8789 -4.0859,-1.8789 -2.0701,0 -3.6507,0.8444 -4.7402,2.5332 -1.0351,1.6888 -1.5528,4.2477 -1.5528,7.6797 0,4.4126 0.6004,7.7372 1.7988,9.9707 1.1441,2.2336 4.3859,4.9302 9.7247,8.0899 15.3079,9.0976 24.9489,16.5596 28.9257,22.3886 3.9768,5.8291 5.9649,15.226 5.9649,28.1914 0,9.4245 -1.1161,16.3708 -3.3496,20.8379 -2.1791,4.4671 -6.4288,8.2267 -12.7481,11.2774 -6.3193,2.9962 -13.673,4.4941 -22.0625,4.4941 -9.2066,0 -17.078,-1.7439 -23.6152,-5.2305 -6.4828,-3.4865 -10.7324,-7.9251 -12.7481,-13.3183 -2.0156,-5.3932 -3.0234,-13.0481 -3.0234,-22.9629 v -8.6621 h 31.9512 v 16.0976 c 0,4.9574 0.435,8.1461 1.3066,9.5625 0.9261,1.4164 2.5343,2.1231 4.8223,2.1231 2.288,0 3.9769,-0.8976 5.0664,-2.6953 1.144,-1.7978 1.7148,-4.4668 1.7148,-8.0078 0,-7.7902 -1.0629,-12.8843 -3.1875,-15.2813 -2.179,-2.397 -7.5448,-6.4006 -16.0976,-12.0117 -8.5529,-5.6656 -14.2178,-9.7794 -16.9961,-12.3398 -2.7783,-2.5605 -5.0931,-6.1015 -6.9453,-10.6231 -1.7978,-4.5216 -2.6973,-10.2967 -2.6973,-17.3242 0,-10.1327 1.2794,-17.5416 3.8399,-22.2266 2.6148,-4.685 6.8113,-8.3343 12.5859,-10.9492 5.7745,-2.6694 12.7464,-4.0039 20.918,-4.0039 z m 51.0722,2.7773 h 33.0137 v 29.7442 c 2.8328,-2.6149 5.8837,-4.5754 9.1523,-5.8828 3.3231,-1.3075 6.8642,-1.961 10.6231,-1.961 5.7745,0 10.6757,1.4704 14.707,4.4121 4.0858,2.9418 6.5659,6.347 7.4375,10.2149 0.9261,3.8134 1.3887,10.8148 1.3887,21.0019 v 74.7696 h -33.0137 v -76.3223 c 0,-6.3193 -0.3267,-10.378 -0.9805,-12.1758 -0.5992,-1.7977 -1.9869,-2.6972 -4.166,-2.6972 -2.0156,0 -3.3777,0.927 -4.0859,2.7793 -0.7082,1.8522 -1.0625,5.529 -1.0625,11.0312 v 77.3848 h -33.0137 z m 123.4727,21.9004 c 7.4088,0 13.7548,1.1161 19.039,3.3496 5.3388,2.1791 9.4526,5.0391 12.3399,8.5801 2.8873,3.541 4.8477,7.1923 5.8828,10.9512 1.0895,3.7589 1.6348,9.4789 1.6348,17.1602 v 26.5566 c 0,9.7513 -0.4902,16.9161 -1.4707,21.4922 -0.9806,4.5216 -3.0789,8.7693 -6.293,12.7461 -3.2141,3.9223 -7.3536,6.8374 -12.4199,8.7441 -5.0119,1.8522 -10.787,2.7793 -17.3243,2.7793 -7.2998,0 -13.4824,-0.7913 -18.5488,-2.3711 -5.0663,-1.6343 -9.0168,-4.0573 -11.8496,-7.2715 -2.7783,-3.2686 -4.7663,-7.1915 -5.9648,-11.7675 -1.1985,-4.6306 -1.7989,-11.5493 -1.7989,-20.7559 v -27.7832 c 0,-10.0782 1.0905,-17.9497 3.2696,-23.6152 2.179,-5.6656 6.102,-10.2145 11.7675,-13.6465 5.6656,-3.4321 12.9111,-5.1485 21.7364,-5.1485 z m 104.1054,0 c 5.1209,0 9.532,1.3897 13.2364,4.168 3.7589,2.7238 6.1012,5.8831 7.0273,9.4785 0.9261,3.5955 1.3906,9.6974 1.3906,18.3047 v 45.6777 c 0,9.8604 -0.6003,16.8893 -1.7988,21.084 -1.144,4.1403 -3.5395,7.4628 -7.1894,9.9688 -3.5955,2.4514 -7.9554,3.6777 -13.0762,3.6777 -4.0858,0 -7.8709,-0.9546 -11.3574,-2.8613 -3.4865,-1.9067 -6.6733,-4.7392 -9.5606,-8.4981 v 24.8418 h -33.0137 v -123.8808 h 33.586 l -0.5723,9.5605 c 2.9418,-3.8678 6.1836,-6.7554 9.7246,-8.6621 3.541,-1.9067 7.4088,-2.8594 11.6035,-2.8594 z m 68.0684,0 c 9.2611,0 16.8884,1.7715 22.8809,5.3125 6.0469,3.4866 10.267,8.1437 12.664,13.9727 2.4515,5.7745 3.6778,13.9176 3.6778,24.4316 v 14.3828 h -42.7364 v 23.4532 c 0,4.9029 0.3543,8.0621 1.0625,9.4785 0.7082,1.4164 2.0703,2.125 4.086,2.125 2.5059,0 4.1672,-0.9271 4.9843,-2.7793 0.8717,-1.9067 1.3067,-5.556 1.3067,-10.9492 v -14.3008 h 31.2969 v 8.0078 c 0,6.7007 -0.435,11.8498 -1.3067,15.4453 -0.8171,3.5955 -2.7796,7.4357 -5.8847,11.5215 -3.1052,4.0858 -7.0537,7.1643 -11.8477,9.2344 -4.7395,2.0156 -10.7055,3.0234 -17.8965,3.0234 -6.973,0 -13.1281,-1.0078 -18.4668,-3.0234 -5.3387,-2.0157 -9.5057,-4.7674 -12.5019,-8.2539 -2.9418,-3.541 -4.9849,-7.4088 -6.1289,-11.6035 -1.1441,-4.2492 -1.7168,-10.4062 -1.7168,-18.4688 v -31.623 c 0,-9.479 1.2813,-16.943 3.8418,-22.3907 2.5604,-5.5021 6.7549,-9.6967 12.5839,-12.584 5.8291,-2.9417 12.5293,-4.4121 20.1016,-4.4121 z m 102.5527,0 v 38.1602 c -6.0469,0 -10.4875,0.8188 -13.3203,2.4531 -2.8328,1.6343 -4.5748,3.9216 -5.2285,6.8633 -0.6537,2.8873 -0.9805,9.5875 -0.9805,20.1016 v 42.8203 h -33.0136 v -108.4375 h 33.0136 l -1.3086,14.2187 c 4.794,-10.1871 11.7403,-15.5804 20.8379,-16.1797 z m -273.5839,19.2032 c -1.9612,0 -3.2682,0.7361 -3.9219,2.207 -0.6537,1.4164 -0.9805,4.9023 -0.9805,10.459 v 48.9472 c 0,5.1209 0.3268,8.471 0.9805,10.0508 0.6537,1.5254 1.9351,2.2891 3.8418,2.2891 1.9611,0 3.2406,-0.7086 3.8398,-2.125 0.6537,-1.4164 0.9805,-4.4673 0.9805,-9.1524 v -50.0097 c 0,-5.5567 -0.2992,-9.0426 -0.8984,-10.459 -0.5993,-1.4709 -1.8807,-2.207 -3.8418,-2.207 z m 86.7832,0 c -2.1791,0 -3.5963,0.8168 -4.25,2.4511 -0.5993,1.6343 -0.8985,5.5848 -0.8985,11.8496 v 44.9434 c 0,6.5372 0.3268,10.6216 0.9805,12.2559 0.6537,1.6343 2.069,2.4531 4.248,2.4531 2.1246,0 3.4336,-0.7362 3.9239,-2.207 0.5447,-1.5254 0.8164,-5.1747 0.8164,-10.9493 v -46.4961 c 0,-6.7006 -0.2441,-10.7593 -0.7344,-12.1757 -0.4903,-1.4164 -1.8524,-2.125 -4.0859,-2.125 z m 85.8007,0 c -2.288,0 -3.7052,0.7086 -4.25,2.125 -0.5447,1.3619 -0.8164,5.0939 -0.8164,11.1953 v 7.9258 h 9.6426 v -7.9258 c 0,-5.6111 -0.3011,-9.2349 -0.9004,-10.8692 -0.5992,-1.6343 -1.8235,-2.4511 -3.6758,-2.4511 z m -387.9179,106.9433 h 43.3554 c 11.725,0 20.7227,0.6216 26.9942,1.8614 6.3396,1.2397 11.0771,3.0294 14.2129,5.371 3.2039,2.3417 5.3507,5.1893 6.4414,8.5411 1.1588,3.3058 1.7383,8.4466 1.7383,15.4257 v 9.7129 c 0,7.1169 -1.0901,12.3045 -3.2715,15.5645 -2.1814,3.26 -6.204,5.763 -12.0664,7.5078 -5.7943,1.7448 -13.3936,2.6172 -22.8008,2.6172 h -11.5547 v 44.9043 h -43.0488 z m 178.8398,0 h 42.5371 v 14.5332 h -42.5371 z m -9.2031,18.459 v 32.1641 c -7.5667,0 -13.1232,0.687 -16.668,2.0644 -3.5447,1.3775 -5.7249,3.3077 -6.5429,5.7871 -0.8181,2.4335 -1.2266,8.0798 -1.2266,16.9414 v 36.0899 h -41.3106 v -91.3945 h 41.3106 l -1.6367,11.9843 c 5.9988,-8.5861 14.6901,-13.1316 26.0742,-13.6367 z m 133.2344,0 c 11.0432,0 19.7345,3.4428 26.0742,10.3301 3.4766,-3.4436 7.397,-6.014 11.7597,-7.7129 4.3628,-1.7448 9.2025,-2.6172 14.5196,-2.6172 7.0213,0 12.8155,1.1476 17.3828,3.4434 4.6354,2.2957 7.6013,5.1189 8.8965,8.4707 1.2952,3.3059 1.9433,8.7014 1.9433,16.1855 v 64.9473 h -40.0839 v -59.5742 c 0,-7.8056 -0.4086,-12.6283 -1.2266,-14.4649 -0.7499,-1.8825 -2.5569,-2.8222 -5.4199,-2.8222 -2.9313,0 -4.8404,0.9173 -5.7266,2.7539 -0.818,1.8366 -1.2266,6.6817 -1.2266,14.5332 v 59.5742 h -40.082 v -58.0606 c 0,-8.9534 -0.3417,-14.3245 -1.0234,-16.1152 -0.6135,-1.7907 -2.3852,-2.6855 -5.3164,-2.6855 -1.8406,0 -3.408,0.481 -4.7032,1.4453 -1.2952,0.9183 -2.0121,2.0659 -2.1484,3.4433 -0.1363,1.3316 -0.2051,4.2016 -0.2051,8.6094 v 63.3633 h -40.082 v -91.3945 h 40.7988 l -0.7168,8.6777 c 3.2039,-3.4436 7.0222,-6.014 11.4532,-7.7129 4.4309,-1.7448 9.4748,-2.6172 15.1328,-2.6172 z m 139.2675,0 c 11.5886,0 21.1324,1.4921 28.6309,4.4766 7.5667,2.9385 12.8502,6.8644 15.8496,11.7773 3.0676,4.867 4.6016,11.7302 4.6016,20.5918 v 12.1231 h -53.4785 v 19.7656 c 0,4.1323 0.4439,6.7964 1.33,7.9902 0.8862,1.1938 2.5891,1.7891 5.1114,1.7891 3.1357,0 5.2157,-0.7788 6.2382,-2.3399 1.0907,-1.607 1.6368,-4.6848 1.6368,-9.2304 v -12.0528 h 39.1621 v 6.75 c 0,5.6476 -0.5461,9.9872 -1.6367,13.0176 -1.0226,3.0304 -3.4758,6.2673 -7.3614,9.7109 -3.8856,3.4437 -8.8293,6.0385 -14.8281,7.7833 -5.9306,1.6988 -13.3944,2.5468 -22.3926,2.5468 -8.7255,0 -16.4289,-0.848 -23.1093,-2.5468 -6.6805,-1.6989 -11.8953,-4.0185 -15.6446,-6.9571 -3.6811,-2.9845 -6.2364,-6.2438 -7.668,-9.7793 -1.4315,-3.5814 -2.1484,-8.771 -2.1484,-15.5664 v -26.6523 c 0,-7.9893 1.6028,-14.2796 4.8067,-18.8711 3.2039,-4.6374 8.4521,-8.1739 15.746,-10.6074 7.294,-2.4795 15.679,-3.7188 25.1543,-3.7188 z m -399.0898,0.6191 v 28.377 c 1.227,0.046 2.2837,0.068 3.1699,0.068 3.9538,0 6.68,-0.6441 8.1797,-1.9297 1.5679,-1.3316 2.3516,-4.063 2.3516,-8.1953 v -9.1602 c 0,-3.8109 -0.8859,-6.2896 -2.6582,-7.4375 -1.7724,-1.1479 -5.4532,-1.7227 -11.043,-1.7227 z m 135.791,1.0333 h 42.5371 v 91.3945 h -42.5371 z m 265.2422,14.5332 c -2.8631,0 -4.6347,0.5952 -5.3164,1.789 -0.6817,1.1479 -1.0234,4.2931 -1.0234,9.4356 v 6.6816 h 12.0664 v -6.6816 c 0,-4.7293 -0.3752,-7.7808 -1.125,-9.1582 -0.7499,-1.3775 -2.2839,-2.0664 -4.6016,-2.0664 z m -201.5898,101.9355 c 7.9495,0 15.0726,0.7743 21.3711,2.3242 6.3596,1.5139 11.4659,3.8034 15.3183,6.8672 3.8525,3.0638 6.1451,6.3974 6.8789,10.002 0.7338,3.6045 1.1016,9.9125 1.1016,18.9238 v 14.9765 c 0,8.7951 -0.3678,15.0305 -1.1016,18.7071 -0.6726,3.6405 -2.8733,6.9741 -6.6035,10.0019 -3.669,3.0278 -8.6527,5.3546 -14.9512,6.9766 -6.2984,1.622 -13.6361,2.4316 -22.0136,2.4316 -7.9495,0 -15.1053,-0.7556 -21.4649,-2.2695 -6.2984,-1.5499 -11.3741,-3.858 -15.2265,-6.9219 -3.8525,-3.0638 -6.1452,-6.3974 -6.879,-10.0019 -0.7338,-3.6045 -1.0996,-9.9126 -1.0996,-18.9239 v -14.9765 c 0,-8.795 0.3352,-15.0137 1.0078,-18.6543 0.7338,-3.6766 2.9365,-7.0289 6.6055,-10.0566 3.7302,-3.0278 8.7445,-5.3526 15.043,-6.9747 6.2984,-1.622 13.6361,-2.4316 22.0137,-2.4316 z m 97.7793,0 c 10.0286,0 18.5576,0.9548 25.5898,2.8652 7.0934,1.9104 11.7726,4.3245 14.0352,7.2442 2.3237,2.8836 3.4843,7.805 3.4843,14.7617 v 3.459 h -35.8632 v -6.4883 c 0,-3.0278 -0.4598,-4.9561 -1.377,-5.7852 -0.9173,-0.829 -2.4457,-1.2421 -4.5859,-1.2421 -2.3237,0 -4.0974,0.5583 -5.3204,1.6757 -1.1618,1.1174 -1.7421,2.8112 -1.7421,5.0821 0,2.9196 0.6722,5.1178 2.0175,6.5957 1.2842,1.4778 4.9234,3.2629 10.9161,5.3535 17.1831,6.0195 28.0067,10.9576 32.4707,14.8144 4.4639,3.8569 6.6953,10.0736 6.6953,18.6524 0,6.2358 -1.2546,10.8333 -3.7618,13.789 -2.4459,2.9557 -7.2151,5.4425 -14.3085,7.461 -7.0934,1.9825 -15.3486,2.9726 -24.7657,2.9726 -10.3343,0 -19.1698,-1.1521 -26.5078,-3.4589 -7.2768,-2.3069 -12.048,-5.246 -14.3105,-8.8145 -2.2626,-3.5685 -3.3926,-8.6331 -3.3926,-15.1934 v -5.7304 h 35.8633 v 10.6523 c 0,3.2801 0.4903,5.3871 1.4687,6.3242 1.0396,0.9372 2.8438,1.4063 5.4121,1.4063 2.5683,0 4.4626,-0.5937 5.6856,-1.7832 1.2841,-1.1895 1.9277,-2.9559 1.9277,-5.2988 0,-5.1545 -1.1933,-8.5254 -3.5781,-10.1114 -2.446,-1.586 -8.4698,-4.2346 -18.0703,-7.9472 -9.6006,-3.7487 -15.9595,-6.47 -19.0781,-8.1641 -3.1187,-1.6941 -5.7178,-4.0375 -7.7969,-7.0293 -2.018,-2.9918 -3.0274,-6.8131 -3.0274,-11.4629 0,-6.7044 1.4385,-11.6071 4.3125,-14.707 2.9352,-3.0999 7.6431,-5.514 14.125,-7.2442 6.4819,-1.7662 14.31,-2.6484 23.4825,-2.6484 z m -235.6426,1.8379 h 38.8906 c 10.5178,0 18.591,0.4858 24.2168,1.459 5.6869,0.9732 9.9371,2.3785 12.75,4.2168 2.874,1.8383 4.7989,4.0738 5.7773,6.705 1.0396,2.5953 1.5606,6.6325 1.5606,12.1114 v 7.623 c 0,5.587 -0.9788,9.6615 -2.9356,12.2207 -1.9568,2.5592 -5.5653,4.5229 -10.8242,5.8926 -5.1977,1.3697 -12.0164,2.0547 -20.4551,2.0547 h -10.3652 v 35.2519 h -38.6152 z m 138.0469,12.9766 c -2.018,0 -3.5771,0.4671 -4.6778,1.4042 -1.0395,0.9012 -1.5605,3.6057 -1.5605,8.1114 v 40.875 c 0,5.0824 0.3371,8.2187 1.0097,9.4082 0.7338,1.1895 2.3849,1.7832 4.9532,1.7832 2.6294,0 4.3111,-0.685 5.0449,-2.0547 0.7338,-1.3697 1.0996,-4.6307 1.0996,-9.7852 v -40.2265 c 0,-4.0731 -0.3965,-6.6697 -1.1914,-7.7871 -0.7338,-1.1535 -2.2929,-1.7285 -4.6777,-1.7285 z m -99.4317,2 v 22.2753 c 1.1007,0.036 2.0488,0.055 2.8438,0.055 3.5467,0 5.9926,-0.5044 7.3379,-1.5136 1.4064,-1.0454 2.1113,-3.1915 2.1113,-6.4356 v -7.1894 c 0,-2.9918 -0.7949,-4.9388 -2.3848,-5.8399 -1.5899,-0.9011 -4.8939,-1.3515 -9.9082,-1.3515 z" /></g></svg>
