<?xml version="1.0" encoding="UTF-8" standalone="no"?>
<!-- Created with Inkscape (http://www.inkscape.org/) -->

<svg
   width="512"
   height="512"
   viewBox="0 0 512 512"
   version="1.1"
   id="svg1"
   xml:space="preserve"
   xmlns:inkscape="http://www.inkscape.org/namespaces/inkscape"
   xmlns:sodipodi="http://sodipodi.sourceforge.net/DTD/sodipodi-0.dtd"
   xmlns="http://www.w3.org/2000/svg"
   xmlns:svg="http://www.w3.org/2000/svg"><sodipodi:namedview
     id="namedview1"
     pagecolor="#ffffff"
     bordercolor="#000000"
     borderopacity="0.25"
     inkscape:showpageshadow="2"
     inkscape:pageopacity="0.0"
     inkscape:pagecheckerboard="0"
     inkscape:deskcolor="#d1d1d1"
     inkscape:document-units="px"
     inkscape:zoom="0.78125"
     inkscape:cx="783.36"
     inkscape:cy="241.92"
     inkscape:window-width="2560"
     inkscape:window-height="1009"
     inkscape:window-x="-8"
     inkscape:window-y="-8"
     inkscape:window-maximized="1"
     inkscape:current-layer="layer1" /><defs
     id="defs1" /><g
     inkscape:label="Layer 1"
     inkscape:groupmode="layer"
     id="layer1"><rect
       style="fill:#ffffff;stroke-width:0.930693"
       id="rect12"
       width="481.28"
       height="489.61902"
       x="1.371987e-06"
       y="-1.2800044" /><path
       id="text1"
       style="font-size:85.3333px;fill:#3366cc"
       d="M -0.51999991,-1.5199999 V 513.04055 H 512.76125 V -1.5199999 Z M 373.05031,30.06398 l 24.95508,1.38086 24.95508,1.37891 v 10.23633 10.23437 l -2.25391,1.39453 -2.25586,1.39258 -10.26758,-0.41601 -10.26953,-0.41407 v 28.75586 28.75782 l 6.02149,1.20507 6.02148,1.20313 h 6.67383 6.67578 l -1.34766,16.17383 -1.34765,16.17383 11.79492,5.29296 11.79297,5.29102 6.73437,7.45508 6.73438,7.45508 7.69336,3.07812 7.6914,3.07617 v 1.84571 1.84375 l -1.99414,3.72656 -1.99414,3.72656 h -4.61523 -4.61524 l -0.61523,4.32617 -0.61524,4.32618 -7.22461,4.66601 -7.22461,4.66602 v 3.27148 3.26953 l 3.85157,4.89844 3.85351,4.89844 v 3.03125 3.03125 l -4.88672,1.22656 -4.88671,1.22656 -6.09961,-1.21875 -6.09766,-1.2207 -4.42773,-4.1582 -4.42579,-4.16016 v -2.24414 -2.24609 l 5.06446,-2.30665 5.0664,-2.30859 -0.83984,-0.83984 -0.83789,-0.83789 -7.08984,1.95703 -7.08789,1.95703 -3.88086,-2.07813 -3.88086,-2.07617 0.0859,-4.26758 0.0879,-4.26757 2.32032,-4.98243 2.32226,-4.98437 7.92774,-7.04688 7.92968,-7.04882 6.93946,-2.89844 6.9414,-2.90039 h 6.20118 6.20312 l -5.6582,-5.91407 -5.66016,-5.91601 -5.7793,-3.49805 -5.77929,-3.49804 -4.33594,-1.31446 -4.33398,-1.3125 v 7.57422 7.57227 l -11.51368,23.39648 -11.51562,23.39649 -6.22461,-0.4961 -6.22461,-0.49414 -6.71094,13.06836 -6.69531,13.07031 -2.03906,-0.75195 -2.04102,-0.75 -55.87109,-11.18555 -55.8711,-11.1875 -1.19531,-1.13086 -1.19336,-1.13281 -1.09375,-7.22461 -1.09179,-7.22656 h 2.22656 2.22656 l 10.17383,-10.04883 10.17578,-10.04883 v -4.88086 -4.88281 l 10.74219,-12.04101 10.74218,-12.04102 h 5.41211 5.41211 l 4.43555,-3.5918 4.43359,-3.59179 -12.86132,-2.24024 -12.86328,-2.24023 -4.34961,-1.60742 -4.34961,-1.60938 0.65234,-20.49609 0.65234,-20.4961 h -4.03711 -4.03906 V 75.67922 63.15578 h 4.81641 4.8164 V 59.5093 55.86086 l 3.04883,-1.16992 3.04688,-1.16797 25.36914,0.12109 25.37109,0.1211 15.9336,1.52343 15.93359,1.52149 1.09961,1.10156 1.09961,1.09961 -2.40821,39.64063 -2.4082,39.64062 -5.95508,0.13086 -5.95507,0.13086 4.22851,2.04297 4.22852,2.04297 2.99609,-1.15039 2.99609,-1.14844 v -4.63477 -4.63476 l 4.98047,-8.91211 4.98243,-8.91211 h 1.76171 1.76172 V 84.34719 55.44875 l -6.26172,-0.0254 -6.26171,-0.0273 -4.33399,-1.16211 -4.33594,-1.16016 V 42.81597 32.55816 l 2.01758,-1.24805 z m -75.21289,32.5625 -1.98047,5.20704 -1.97852,5.20507 v 23.6836 23.68164 l 11.53907,1.20703 11.54101,1.20703 23.8086,1.27149 23.80859,1.27343 1.10352,-28.69531 1.10156,-28.69531 -1.29102,-1.29492 -1.29101,-1.29688 -33.18164,-1.37695 z M 243.8589,99.76125 h 3.92774 3.92578 l 9.04101,2.17969 9.04102,2.17773 2.26953,2.15625 2.26953,2.15625 -1.04883,5.29688 -1.04882,5.29883 h -1.94336 -1.94141 l 1.1543,-5.7793 1.15625,-5.7793 h -1.8418 -1.8418 l -1.23242,4.91211 -1.23242,4.91211 -3.13867,-0.61133 -3.13867,-0.61328 v -5.5918 -5.58984 l -5.39844,-1.45898 -5.40039,-1.46094 -1.87891,4.94531 -1.88086,4.94336 -1.14062,-1.14062 -1.14063,-1.14063 1.23242,-4.90625 z m 5.49805,4.92773 1.11328,1.11329 1.11328,1.11328 -1.21484,3.16601 -1.21485,3.16602 h -1.71874 -1.72071 l 0.0274,-1.44531 0.0293,-1.44532 1.79297,-2.83398 z m -12.31445,8.66211 18.10351,4.63477 18.10352,4.63281 2.95508,2.95508 2.95312,2.95313 -2.33789,10.125 -2.33789,10.12695 -3.59375,3.9082 -3.59375,3.9082 -3.33203,15.17969 -3.33399,15.18164 -3.70312,3.70313 -3.70313,3.70117 -3.27343,-0.94531 -3.27344,-0.94727 -8.66992,-2.15625 -8.66992,-2.15625 -3.37305,-0.97851 -3.37305,-0.98047 -1.97461,-3.6875 -1.97461,-3.68946 3.75196,-14.96484 3.7539,-14.96484 -0.33203,-10.59766 -0.33008,-10.5957 2.61524,-6.19727 2.61523,-6.19726 3.16406,-0.97657 z m -2.74024,5.67579 -2.17187,8.0625 -2.16992,8.06054 1.12304,5.6211 1.125,5.62109 -3.95117,15.47461 -3.95117,15.47461 0.92187,2.40429 0.92188,2.4043 10.26367,2.32227 10.26172,2.32226 3.20898,0.87305 3.21094,0.87305 0.97461,-1.57813 0.97656,-1.57812 4.09571,-16.04297 4.0957,-16.04297 4.00781,-5.42188 4.00977,-5.42187 0.23242,-7.35742 0.23437,-7.35938 -15.41406,-4.19726 -15.41211,-4.19727 -3.29687,-0.1582 z m 5.21485,5.26367 13.69336,3.35547 13.69531,3.35546 v 1.47852 1.47852 l -1.20508,6.01953 -1.20117,6.02148 -1.20508,-0.0449 -1.20313,-0.043 -13.11914,-3.35742 -13.11914,-3.35742 0.11328,-1.41602 0.11524,-1.41406 0.0273,-3.3711 0.0293,-3.37304 1.68945,-2.66602 z m 105.41601,19.80468 -9.63281,0.3125 -9.63281,0.3125 7.70508,0.67383 7.70703,0.67188 20.25781,2.85742 20.25781,2.85547 h 1.73633 1.73828 l -0.96094,-0.96094 -0.96289,-0.96289 -19.10547,-2.87891 z m 72.24805,7.04102 v 1.88477 1.88476 l -3.69336,3.96289 -3.69141,3.96485 -5.00976,9.88476 -5.00977,9.88672 h -2.02539 -2.02539 l -52.95703,-7.70703 -52.95703,-7.70508 -3.26563,0.15039 -3.26562,0.15234 4.8164,1.66407 4.81641,1.66211 52.03711,7.81836 52.03516,7.82031 1.9082,-0.0137 1.91016,-0.0137 9.3496,-16.48828 9.34766,-16.48632 -1.16016,-1.16016 z m -29.14063,0.24219 -1.16406,1.16406 -1.16406,1.16406 3.69336,-0.15234 3.6914,-0.15234 -2.52734,-1.01172 z m -153.88672,2.32812 h 3.9668 3.9668 l -1.19141,1.92578 -1.1914,1.92774 h -2.77539 -2.7754 v -1.92774 z m 9.63282,0.1211 2.8789,1.10351 2.87891,1.10547 -1.06641,1.72461 -1.0664,1.72461 h -1.8125 -1.8125 v -2.83008 z m 7.70508,1.92578 2.89062,1.10937 2.89063,1.10938 v 1.71875 1.7207 h -2.89063 -2.89062 v -2.82812 z m -15.74805,3.29687 2.12695,1.31446 2.125,1.31445 -1.05664,1.70898 -1.05664,1.70899 -2.95703,-1.13477 -2.95703,-1.13476 1.88672,-1.88868 z m 6.11523,2.36133 h 2.89063 2.89062 v 1.60547 1.60547 l -1.23242,1.23242 -1.23242,1.23242 -1.6582,-1.02539 -1.65821,-1.02344 v -1.8125 z m 7.70703,1.92774 h 2.89063 2.88867 v 1.60546 1.60547 l -1.23242,1.23242 -1.23047,1.23047 -1.6582,-1.02343 -1.65821,-1.02539 v -1.8125 z m -17.33984,2.04687 2.89063,1.10937 2.88867,1.10938 v 1.7207 1.71875 h -2.88867 -2.89063 v -2.82812 z m 7.70703,1.48437 2.28711,0.76368 2.28906,0.76172 0.76172,2.28906 0.76367,2.28711 h -3.05078 -3.05078 v -3.05078 z m 7.70703,1.92774 2.28711,0.76172 2.28711,0.76367 0.76367,2.28711 0.76172,2.28711 h -3.05078 -3.04883 v -3.04883 z m -17.33984,4.17383 h 2.88867 2.89063 v 1.92578 1.92773 h -2.89063 -2.88867 v -1.92773 z m 7.70508,1.92578 h 2.89062 2.89063 v 1.92773 1.92578 h -2.89063 -2.89062 v -1.92578 z m 43.66992,0 1.33398,1.33398 1.33399,1.33399 -9.90039,10.02734 -9.90235,10.02539 3.58985,1.01367 3.59179,1.01368 51.43946,10.00976 51.43945,10.00977 0.57813,2.90429 0.58007,2.9043 4.61133,-8.42969 4.61328,-8.42968 4.53907,-6.13282 4.53906,-6.13281 v -3.01758 -3.01953 l -1.44531,-0.002 -1.44532,-0.002 -51.55859,-7.70507 -51.55859,-7.70508 h -3.18946 z m -35.96289,1.92773 h 2.89062 2.88868 v 1.92578 1.92774 h -2.88868 -2.89062 v -1.92774 z m 196.87305,5.50391 -7.84766,4.95508 -7.84766,4.95312 h -5.84961 -5.84961 l -3.13085,6.56836 -3.13282,6.56836 1.17578,3.06445 1.17774,3.06446 h 7.83398 7.83594 l 3.9082,-4.33399 3.90625,-4.33593 6.64649,-9.20118 6.64648,-9.20117 -2.73633,-1.05078 z m 15.05468,7.66016 -2.02539,0.67578 -2.02539,0.67578 -3.94531,6.22851 -3.94336,6.22852 h 1.75391 1.75195 l 4.2168,-3.92969 4.21679,-3.92773 v -2.97461 z M 44.88429,249.605 c 4.55555,0 8.43056,0.73676 11.625,2.20898 3.22222,1.47222 5.34723,3.33204 6.375,5.58204 1.05556,2.22221 1.58399,6.01389 1.58399,11.375 v 2.66796 H 48.17531 v -5 c 0,-2.33333 -0.20833,-3.82009 -0.625,-4.45898 -0.41667,-0.63889 -1.10981,-0.95898 -2.08203,-0.95898 -1.05556,0 -1.86242,0.43185 -2.41797,1.29296 -0.52778,0.86111 -0.79102,2.16602 -0.79102,3.91602 0,2.25 0.30491,3.9451 0.91602,5.08398 0.58333,1.13889 2.23677,2.5139 4.95898,4.125 7.80555,4.63889 12.72223,8.4438 14.75,11.41602 2.02778,2.97222 3.04102,7.7639 3.04102,14.375 0,4.80555 -0.56815,8.34723 -1.70703,10.625 -1.11111,2.27777 -3.27778,4.19445 -6.5,5.75 -3.22222,1.52778 -6.97223,2.29102 -11.25,2.29102 -4.69444,0 -8.70964,-0.88824 -12.04297,-2.66602 -3.30555,-1.77778 -5.47222,-4.04102 -6.5,-6.79102 -1.02778,-2.74999 -1.54102,-6.65343 -1.54102,-11.70898 v -4.41602 h 16.29102 v 8.20704 c 0,2.52777 0.22352,4.15277 0.66797,4.875 0.47222,0.72222 1.29036,1.08398 2.45703,1.08398 1.16666,0 2.02843,-0.45833 2.58398,-1.375 0.58334,-0.91667 0.875,-2.27843 0.875,-4.08398 0,-3.97222 -0.54166,-6.5688 -1.625,-7.79102 -1.11111,-1.22222 -3.84788,-3.26389 -8.20898,-6.125 -4.36111,-2.88888 -7.24935,-4.98546 -8.66602,-6.29102 -1.41666,-1.30555 -2.59657,-3.11241 -3.54101,-5.41796 -0.91667,-2.30556 -1.375,-5.24871 -1.375,-8.83204 0,-5.16665 0.65148,-8.94509 1.95703,-11.33398 1.33333,-2.38889 3.47353,-4.25065 6.41797,-5.58398 2.94444,-1.36111 6.49935,-2.04102 10.66601,-2.04102 z m 26.04102,1.41602 h 16.83398 v 15.16796 c 1.44445,-1.33333 2.99935,-2.33333 4.66602,-3 1.69444,-0.66666 3.5013,-1 5.41797,-1 2.94444,0 5.44445,0.75001 7.5,2.25 2.08333,1.5 3.34657,3.23482 3.79101,5.20704 0.47223,1.94444 0.70899,5.51454 0.70899,10.70898 V 318.48 H 93.00929 v -38.91602 c 0,-3.22221 -0.16666,-5.29231 -0.5,-6.20898 -0.30555,-0.91667 -1.01389,-1.375 -2.125,-1.375 -1.02777,0 -1.72287,0.47157 -2.08398,1.41602 -0.36111,0.94444 -0.54102,2.81944 -0.54102,5.625 V 318.48 H 70.92531 Z m 207.29101,0 h 17.66797 c 4.77777,0 8.44445,0.375 11,1.125 2.58333,0.74999 4.51324,1.83333 5.79102,3.25 1.30555,1.41666 2.18056,3.14019 2.625,5.16796 0.47222,2 0.70898,5.10982 0.70898,9.33204 v 5.875 c 0,4.30555 -0.44509,7.44574 -1.33398,9.41796 -0.88889,1.97222 -2.52713,3.48547 -4.91602,4.54102 -2.3611,1.05555 -5.45964,1.58398 -9.29297,1.58398 h -4.70703 V 318.48 h -17.54297 z m 72.875,0 h 17.33399 v 8.79296 h -17.33399 z m -217.20703,11.16796 c 3.77778,0 7.01455,0.56815 9.70899,1.70704 2.72222,1.11111 4.81879,2.56944 6.29101,4.375 1.47222,1.80555 2.47223,3.66732 3,5.58398 0.55556,1.91666 0.83399,4.83334 0.83399,8.75 v 13.54102 c 0,4.97221 -0.25,8.62565 -0.75,10.95898 -0.5,2.30555 -1.5701,4.47223 -3.20899,6.5 -1.63888,2 -3.75065,3.48676 -6.33398,4.45898 -2.55555,0.94445 -5.4987,1.41602 -8.83203,1.41602 -3.72222,0 -6.87566,-0.40343 -9.45899,-1.20898 -2.58333,-0.83334 -4.59657,-2.06815 -6.04101,-3.70704 -1.41667,-1.66666 -2.43186,-3.66667 -3.04297,-6 -0.61111,-2.3611 -0.91602,-5.88954 -0.91602,-10.58398 v -14.16602 c 0,-5.13888 0.55491,-9.15408 1.66602,-12.04296 1.11111,-2.88889 3.11111,-5.20704 6,-6.95704 2.88888,-1.74999 6.58399,-2.625 11.08398,-2.625 z m 53.08399,0 c 2.61111,0 4.86111,0.70834 6.75,2.125 1.91666,1.38889 3.10981,2.9987 3.58203,4.83204 0.47222,1.83333 0.70898,4.9451 0.70898,9.33398 v 23.29102 c 0,5.02777 -0.30685,8.61111 -0.91797,10.75 -0.58333,2.1111 -1.8049,3.8062 -3.66601,5.08398 -1.83333,1.25 -4.05491,1.875 -6.66602,1.875 -2.08333,0 -4.01324,-0.48676 -5.79101,-1.45898 -1.77778,-0.97223 -3.40278,-2.41537 -4.875,-4.33204 V 326.355 h -16.83399 v -63.16602 h 17.125 l -0.29101,4.875 c 1.5,-1.97222 3.15148,-3.44574 4.95703,-4.41796 1.80555,-0.97223 3.77908,-1.45704 5.91797,-1.45704 z m 34.70703,0 c 4.72221,0 8.61046,0.90148 11.66601,2.70704 3.08333,1.77777 5.23677,4.15278 6.45899,7.125 1.25,2.94444 1.875,7.09788 1.875,12.45898 v 7.33398 h -21.79102 v 11.95704 c 0,2.49999 0.17991,4.11176 0.54102,4.83398 0.36111,0.72222 1.05621,1.08398 2.08398,1.08398 1.27778,0 2.12435,-0.47352 2.54102,-1.41796 0.44444,-0.97223 0.66601,-2.83204 0.66601,-5.58204 v -7.29296 h 15.95899 V 299.48 c 0,3.41666 -0.22157,6.04167 -0.66602,7.875 -0.41666,1.83333 -1.41667,3.79167 -3,5.875 -1.58333,2.08333 -3.59852,3.65343 -6.04297,4.70898 -2.41666,1.02778 -5.45833,1.54102 -9.125,1.54102 -3.55555,0 -6.69379,-0.51324 -9.41601,-1.54102 -2.72222,-1.02777 -4.84723,-2.4312 -6.375,-4.20898 -1.5,-1.80555 -2.54167,-3.77713 -3.125,-5.91602 -0.58333,-2.16666 -0.875,-5.30686 -0.875,-9.41796 v -16.125 c 0,-4.83333 0.65343,-8.63825 1.95898,-11.41602 1.30556,-2.80555 3.4438,-4.9438 6.41602,-6.41602 2.97222,-1.49999 6.38889,-2.25 10.25,-2.25 z m 52.29101,0 v 19.45704 c -3.08332,0 -5.34657,0.41666 -6.79101,1.25 -1.44444,0.83333 -2.33268,2 -2.66602,3.5 -0.33333,1.47222 -0.5,4.88889 -0.5,10.25 V 318.48 h -16.83398 v -55.29102 h 16.83398 l -0.66797,7.25 c 2.44445,-5.19443 5.98612,-7.94444 10.625,-8.25 z m 73.375,0 v 19.45704 c -3.08332,0 -5.34657,0.41666 -6.79101,1.25 -1.44444,0.83333 -2.33268,2 -2.66602,3.5 -0.33333,1.47222 -0.5,4.88889 -0.5,10.25 V 318.48 h -16.83398 v -55.29102 h 16.83398 l -0.66797,7.25 c 2.44445,-5.19443 5.98612,-7.94444 10.625,-8.25 z m 54.29297,0 c 4.5,0 8.04167,2.08334 10.625,6.25 1.41667,-2.08333 3.01324,-3.64019 4.79102,-4.66796 1.77777,-1.05556 3.74935,-1.58204 5.91601,-1.58204 2.86111,0 5.22288,0.69315 7.08399,2.08204 1.88889,1.38888 3.09722,3.09722 3.625,5.125 0.52778,1.99999 0.79102,5.26519 0.79101,9.79296 V 318.48 h -16.33203 v -36.04102 c 0,-4.72221 -0.16666,-7.63889 -0.5,-8.75 -0.30555,-1.13888 -1.04232,-1.70898 -2.20898,-1.70898 -1.19444,0 -1.97287,0.55491 -2.33399,1.66602 -0.33333,1.11111 -0.5,4.04297 -0.5,8.79296 V 318.48 h -16.33203 v -35.125 c 0,-5.41666 -0.14019,-8.66667 -0.41797,-9.75 -0.24999,-1.08333 -0.97157,-1.625 -2.16601,-1.625 -0.75,0 -1.38824,0.29167 -1.91602,0.875 -0.52777,0.55555 -0.81944,1.25065 -0.875,2.08398 -0.0556,0.80556 -0.084,2.54037 -0.084,5.20704 V 318.48 H 374.4663 v -55.29102 h 16.625 l -0.29101,5.25 c 1.30555,-2.08333 2.86046,-3.64019 4.66601,-4.66796 1.80556,-1.05556 3.86242,-1.58204 6.16797,-1.58204 z m 56.75,0 c 4.72222,0 8.61047,0.90148 11.66602,2.70704 3.08333,1.77777 5.23676,4.15278 6.45898,7.125 1.25,2.94444 1.875,7.09788 1.875,12.45898 v 7.33398 h -21.79297 v 11.95704 c 0,2.49999 0.18186,4.11176 0.54297,4.83398 0.36111,0.72222 1.05426,1.08398 2.08203,1.08398 1.27778,0 2.12631,-0.47352 2.54297,-1.41796 0.44445,-0.97223 0.66602,-2.83204 0.66602,-5.58204 v -7.29296 h 15.95898 V 299.48 c 0,3.41666 -0.22352,6.04167 -0.66797,7.875 -0.41666,1.83333 -1.41666,3.79167 -3,5.875 -1.58333,2.08333 -3.59657,3.65343 -6.04101,4.70898 -2.41666,1.02778 -5.45834,1.54102 -9.125,1.54102 -3.55555,0 -6.6938,-0.51324 -9.41602,-1.54102 -2.72221,-1.02777 -4.84722,-2.4312 -6.375,-4.20898 -1.49999,-1.80555 -2.54166,-3.77713 -3.125,-5.91602 -0.58333,-2.16666 -0.875,-5.30686 -0.875,-9.41796 v -16.125 c 0,-4.83333 0.65148,-8.63825 1.95703,-11.41602 1.30556,-2.80555 3.44576,-4.9438 6.41797,-6.41602 2.97222,-1.49999 6.3889,-2.25 10.25,-2.25 z m -162.625,0.375 V 279.73 c 0.5,0.0278 0.92991,0.041 1.29102,0.041 1.61111,0 2.72287,-0.38824 3.33398,-1.16602 0.63889,-0.80555 0.95703,-2.45899 0.95703,-4.95898 v -5.541 c 0,-2.30555 -0.35981,-3.80556 -1.08203,-4.5 -0.72222,-0.69444 -2.22222,-1.04102 -4.5,-1.04102 z m 55.33203,0.625 h 17.33399 V 318.48 H 351.09132 Z M 134.46828,271.98 c -1,0 -1.66667,0.375 -2,1.125 -0.33333,0.72222 -0.5,2.50066 -0.5,5.33398 v 24.95704 c 0,2.6111 0.16667,4.31944 0.5,5.125 0.33333,0.77777 0.98481,1.16796 1.95703,1.16796 1,0 1.65343,-0.36176 1.95898,-1.08398 0.33334,-0.72222 0.5,-2.27713 0.5,-4.66602 v -25.5 c 0,-2.83332 -0.15343,-4.61176 -0.45898,-5.33398 -0.30556,-0.75 -0.95703,-1.125 -1.95703,-1.125 z m 44.25,0 c -1.11111,0 -1.83464,0.41667 -2.16797,1.25 -0.30556,0.83333 -0.45703,2.84658 -0.45703,6.04102 v 22.91796 c 0,3.33333 0.16667,5.41667 0.5,6.25 0.33333,0.83334 1.0549,1.25 2.16601,1.25 1.08334,0 1.75,-0.375 2,-1.125 0.27778,-0.77777 0.41602,-2.63954 0.41602,-5.58398 v -23.70898 c 0,-3.41667 -0.125,-5.48481 -0.375,-6.20704 -0.25,-0.72222 -0.94314,-1.08398 -2.08203,-1.08398 z m 43.74804,0 c -1.16666,0 -1.88823,0.36176 -2.16601,1.08398 -0.27778,0.69445 -0.41602,2.59593 -0.41602,5.70704 v 4.04296 h 4.91602 v -4.04296 c 0,-2.86111 -0.15343,-4.70769 -0.45899,-5.54102 -0.30555,-0.83333 -0.93055,-1.25 -1.875,-1.25 z m 236.70899,0 c -1.16667,0 -1.88824,0.36176 -2.16602,1.08398 -0.27777,0.69445 -0.41797,2.59593 -0.41797,5.70704 v 4.04296 h 4.91797 v -4.04296 c 0,-2.86111 -0.15343,-4.70769 -0.45898,-5.54102 -0.30556,-0.83333 -0.93056,-1.25 -1.875,-1.25 z m -201.88867,60.33984 c 3.80461,0 7.21409,0.63023 10.22851,1.88868 3.04369,1.22918 5.48826,3.08658 7.33203,5.57421 1.84378,2.48764 2.94178,5.19447 3.29297,8.1211 0.3512,2.92662 0.52539,8.04867 0.52539,15.36523 v 12.16016 c 0,7.14096 -0.17419,12.20429 -0.52539,15.18945 -0.32193,2.95589 -1.37687,5.66273 -3.16211,8.1211 -1.75597,2.45836 -4.13987,4.34708 -7.15429,5.66406 -3.01443,1.31698 -6.52764,1.97461 -10.53711,1.97461 -3.80461,0 -7.2278,-0.61457 -10.27149,-1.84375 -3.01442,-1.25845 -5.44333,-3.13151 -7.28711,-5.61914 -1.84377,-2.48763 -2.94177,-5.19447 -3.29296,-8.1211 -0.3512,-2.92662 -0.52735,-8.04867 -0.52735,-15.36523 v -12.16016 c 0,-7.14096 0.16245,-12.18864 0.48438,-15.14453 0.35119,-2.98516 1.40418,-5.70765 3.16015,-8.16601 1.78524,-2.45837 4.1848,-4.34513 7.19922,-5.66211 3.01442,-1.31698 6.52568,-1.97657 10.53516,-1.97657 z m 88.63281,0 c 4.79966,0 8.88243,0.77506 12.24805,2.32618 3.39488,1.55111 5.63394,3.51224 6.71679,5.88281 1.11212,2.3413 1.66797,6.33599 1.66797,11.98437 v 2.81055 H 349.3882 v -5.26758 c 0,-2.45836 -0.21921,-4.02414 -0.6582,-4.69726 -0.439,-0.67313 -1.171,-1.00977 -2.19532,-1.00977 -1.11211,0 -1.96155,0.45212 -2.54687,1.35938 -0.55606,0.90725 -0.83399,2.28318 -0.83399,4.12695 0,2.37056 0.32294,4.15555 0.9668,5.35547 0.61459,1.19991 2.35652,2.65021 5.22461,4.34765 8.22382,4.88747 13.40263,8.89586 15.53906,12.02735 2.13644,3.13149 3.20508,8.17916 3.20508,15.14453 0,5.06306 -0.60086,8.79548 -1.80078,11.19531 -1.17065,2.39983 -3.45277,4.41969 -6.84766,6.0586 -3.39488,1.60964 -7.34456,2.41406 -11.85156,2.41406 -4.94599,0 -9.17555,-0.93751 -12.6875,-2.81055 -3.48268,-1.87304 -5.76676,-4.25694 -6.84961,-7.1543 -1.08285,-2.89735 -1.62304,-7.00948 -1.62304,-12.33593 v -4.6543 h 17.16406 v 8.64844 c 0,2.66323 0.23486,4.37579 0.70312,5.13672 0.49753,0.76092 1.36066,1.14062 2.58985,1.14062 1.22918,0 2.13538,-0.48148 2.7207,-1.44726 0.61459,-0.96579 0.92187,-2.40043 0.92187,-4.30274 0,-4.18507 -0.56955,-6.92127 -1.71093,-8.20898 -1.17065,-1.28772 -4.05364,-3.43871 -8.64844,-6.45313 -4.5948,-3.04369 -7.63828,-5.25339 -9.13086,-6.62891 -1.49258,-1.37551 -2.73737,-3.27793 -3.73242,-5.70703 -0.96579,-2.42909 -1.44727,-5.53129 -1.44727,-9.30664 0,-5.44352 0.68699,-9.42451 2.0625,-11.9414 1.40478,-2.5169 3.65755,-4.47804 6.75977,-5.88282 3.10222,-1.43404 6.84834,-2.15039 11.23828,-2.15039 z m -315.46094,1.49219 h 18.61328 c 5.0338,0 8.89735,0.39536 11.58985,1.18555 2.72176,0.79019 4.75531,1.93125 6.10156,3.42383 1.37551,1.49257 2.29736,3.30692 2.76562,5.44336 0.49753,2.10717 0.7461,5.38551 0.7461,9.83398 v 6.18945 c 0,4.53627 -0.46778,7.84397 -1.4043,9.92188 -0.93652,2.0779 -2.66279,3.67304 -5.17969,4.78515 -2.48763,1.11212 -5.75032,1.66797 -9.78906,1.66797 h -4.96094 v 28.62305 H 30.45851 Z m 90.56446,0 h 18.26367 v 9.26367 h -18.26367 z m 180.11914,0 h 6.49804 v 9 c -3.65828,0 -5.82492,0.17615 -6.49804,0.52735 -0.64386,0.32192 -0.96485,1.27313 -0.96485,2.85351 v 1.84375 h 7.46289 v 9.21875 h -4.21484 v 47.63086 h -17.73438 v -47.63086 h -3.64453 v -9.21875 h 3.64453 c 0,-3.83388 0.13114,-6.39588 0.39454,-7.68359 0.26339,-1.28772 0.90732,-2.42878 1.93164,-3.42383 1.05358,-1.02432 2.51758,-1.79938 4.39062,-2.32617 1.87304,-0.5268 4.78343,-0.79102 8.73438,-0.79102 z m 117.51953,0 h 18.26172 v 71.07422 h -18.26172 z m -225.07227,5.04883 h 17.7793 v 9.17578 h 4.78515 v 9.21875 h -4.78515 v 31.16797 c 0,3.83388 0.18985,5.97116 0.57031,6.41016 0.40973,0.43899 2.06358,0.6582 4.96094,0.6582 v 9.39453 h -7.15625 c -4.03874,0 -6.92173,-0.16049 -8.64844,-0.48242 -1.72671,-0.3512 -3.24747,-1.12821 -4.56445,-2.32813 -1.31698,-1.22918 -2.13706,-2.61881 -2.45899,-4.16992 -0.32192,-1.58038 -0.48242,-5.26778 -0.48242,-11.0625 v -29.58789 h -3.82031 v -9.21875 h 3.82031 z m 63.78516,5.48828 c -0.96579,0 -1.71149,0.3797 -2.23828,1.14063 -0.49753,0.73165 -0.7461,2.92765 -0.7461,6.58593 v 33.1875 c 0,4.12654 0.1605,6.67289 0.48243,7.63868 0.35119,0.96578 1.14191,1.44726 2.37109,1.44726 1.25845,0 2.06287,-0.55585 2.41406,-1.66797 0.3512,-1.11212 0.52735,-3.76024 0.52735,-7.94531 V 352.0757 c 0,-3.30708 -0.18986,-5.41501 -0.57032,-6.32226 -0.35119,-0.93652 -1.09885,-1.4043 -2.24023,-1.4043 z m -163.08594,1.22852 c 3.98021,0 7.38969,0.60086 10.22852,1.80078 2.86809,1.17065 5.07779,2.70707 6.6289,4.60937 1.55111,1.90231 2.6041,3.86149 3.16016,5.88086 0.58532,2.01937 0.87891,5.09221 0.87891,9.21875 V 381.355 c 0,5.23866 -0.26423,9.08851 -0.79102,11.54688 -0.52679,2.42909 -1.6522,4.71122 -3.37891,6.84765 -1.72671,2.10717 -3.95206,3.67295 -6.67383,4.69727 -2.69249,0.99505 -5.79469,1.49218 -9.30664,1.49218 -3.92167,0 -7.24308,-0.42471 -9.96484,-1.27343 -2.72176,-0.87799 -4.84339,-2.17954 -6.36523,-3.90625 -1.49258,-1.75598 -2.56122,-3.8639 -3.20508,-6.32227 -0.64386,-2.48763 -0.96485,-6.20439 -0.96485,-11.15039 v -14.92578 c 0,-5.41426 0.58521,-9.64186 1.75586,-12.68555 1.17065,-3.04369 3.27663,-5.48826 6.32032,-7.33203 3.04369,-1.84377 6.9366,-2.76562 11.67773,-2.76562 z m 80.24805,0 c 3.04369,0 5.53132,0.71634 7.46289,2.15039 1.93157,1.43404 3.17636,3.24839 3.73242,5.44336 0.55606,2.1657 0.83398,5.79634 0.83398,10.88867 v 40.82617 H 168.82961 V 364.5425 c 0,-4.00948 -0.13114,-6.45404 -0.39453,-7.33203 -0.2634,-0.87799 -0.9954,-1.31641 -2.19532,-1.31641 -1.25845,0 -2.04916,0.51279 -2.37109,1.53711 -0.32193,0.99505 -0.48242,3.68624 -0.48242,8.07617 v 39.37891 h -17.73438 v -58.25586 h 18.04102 l -0.30664,5.35742 c 1.28771,-2.13643 2.85349,-3.73157 4.69726,-4.78515 1.87304,-1.08285 4.02403,-1.625 6.45313,-1.625 z m 218.04883,0 c 5.99958,0 10.52076,1.06864 13.56445,3.20507 3.04369,2.10717 4.87369,4.71224 5.48828,7.81446 0.61459,3.07295 0.92188,9.42218 0.92188,19.05078 v 29.23828 h -17.25391 v -5.17969 c -1.08285,2.07791 -2.48618,3.64368 -4.21289,4.69727 -1.69744,1.02432 -3.73295,1.53515 -6.10352,1.53515 -3.10222,0 -5.9539,-0.86313 -8.55859,-2.58984 -2.57543,-1.75597 -3.86328,-5.57452 -3.86328,-11.45703 v -4.78516 c 0,-4.36067 0.68698,-7.33173 2.0625,-8.91211 1.37551,-1.58037 4.78499,-3.42408 10.22851,-5.53125 5.82399,-2.28276 8.94184,-3.81918 9.35157,-4.60937 0.40972,-0.79019 0.61328,-2.39903 0.61328,-4.82813 0,-3.04369 -0.23292,-5.02048 -0.70117,-5.92773 -0.439,-0.93652 -1.18665,-1.4043 -2.24024,-1.4043 -1.19992,0 -1.94562,0.39536 -2.23828,1.18555 -0.29266,0.76092 -0.43945,2.76512 -0.43945,6.01367 v 6.10156 h -16.63672 v -3.90625 c 0,-4.507 0.51084,-7.97519 1.53515,-10.40429 1.05359,-2.45837 3.14586,-4.62501 6.27735,-6.49805 3.13149,-1.87304 7.20055,-2.80859 12.20508,-2.80859 z m 69.80078,0 c 4.97526,0 9.07173,0.95121 12.29101,2.85351 3.24856,1.87304 5.51698,4.37437 6.80469,7.50586 1.31698,3.10222 1.97461,7.47857 1.97461,13.12695 v 7.72657 h -22.95898 v 12.59961 c 0,2.63396 0.18985,4.33087 0.57031,5.09179 0.38046,0.76093 1.11246,1.14063 2.19531,1.14063 1.34625,0 2.23874,-0.49714 2.67773,-1.49219 0.46826,-1.02432 0.70313,-2.98545 0.70313,-5.88281 v -7.68164 h 16.8125 v 4.30078 c 0,3.59975 -0.23291,6.36725 -0.70117,8.29883 -0.439,1.93157 -1.49394,3.99448 -3.16211,6.18945 -1.66818,2.19497 -3.78981,3.84882 -6.36524,4.96094 -2.54616,1.08285 -5.75013,1.62304 -9.61328,1.62304 -3.74608,0 -7.05378,-0.54019 -9.92187,-1.62304 -2.86809,-1.08285 -5.10716,-2.56251 -6.7168,-4.43555 -1.58038,-1.90231 -2.67642,-3.97892 -3.29101,-6.23242 -0.6146,-2.28277 -0.92188,-5.59047 -0.92188,-9.92188 v -16.98828 c 0,-5.09232 0.68699,-9.10267 2.0625,-12.02929 1.37551,-2.9559 3.62828,-5.20866 6.75977,-6.75977 3.13148,-1.58038 6.73277,-2.37109 10.80078,-2.37109 z m -413.44532,0.39453 v 18.08789 c 0.5268,0.0293 0.98087,0.043 1.36133,0.043 1.69745,0 2.86786,-0.40906 3.51172,-1.22852 0.67313,-0.84872 1.00977,-2.59065 1.00977,-5.22461 v -5.83789 c 0,-2.4291 -0.38166,-4.01053 -1.14258,-4.74219 -0.76092,-0.73165 -2.3404,-1.09765 -4.74024,-1.09765 z m 72.08204,0.6582 h 18.26367 v 58.25586 h -18.26367 z m -26.11915,9.26367 c -1.05358,0 -1.75622,0.39536 -2.10742,1.18555 -0.35119,0.76092 -0.52734,2.63398 -0.52734,5.61914 v 26.29492 c 0,2.75103 0.17615,4.55167 0.52734,5.40039 0.3512,0.81946 1.03818,1.22852 2.0625,1.22852 1.05359,0 1.74253,-0.3797 2.06446,-1.14063 0.35119,-0.76092 0.52539,-2.40107 0.52539,-4.91797 v -26.86523 c 0,-2.98516 -0.1605,-4.85822 -0.48243,-5.61914 -0.32192,-0.79019 -1.00891,-1.18555 -2.0625,-1.18555 z m 368.31641,0 c -1.22918,0 -1.99054,0.37971 -2.2832,1.14063 -0.29266,0.73165 -0.43945,2.7378 -0.43945,6.01562 v 4.25781 h 5.17968 v -4.25781 c 0,-3.01442 -0.16049,-4.96185 -0.48242,-5.83984 -0.32193,-0.87799 -0.97956,-1.31641 -1.97461,-1.31641 z m -68.39648,21.29102 c -2.83883,2.0779 -4.49268,3.81983 -4.96094,5.22461 -0.43899,1.40478 -0.6582,3.42463 -0.6582,6.05859 0,3.01442 0.18985,4.9599 0.57031,5.83789 0.40973,0.87799 1.20044,1.31641 2.37109,1.31641 1.11212,0 1.82846,-0.33664 2.15039,-1.00977 0.3512,-0.70239 0.52735,-2.51673 0.52735,-5.44336 z m -172.39649,48.13086 c 1.00889,0 1.79137,0.0662 2.34571,0.19922 v 2.72656 c -0.62086,-0.11087 -1.25346,-0.16602 -1.89649,-0.16602 -0.76498,0 -1.33594,0.21606 -1.71289,0.64844 -0.36586,0.4213 -0.54883,1.1577 -0.54883,2.21094 v 1.53125 h 3.3418 v 2.46094 h -3.3418 v 15.18359 h -3.12695 v -15.18359 h -2.59375 v -2.46094 h 2.59375 v -1.56445 c 0,-3.72514 1.6467,-5.58594 4.93945,-5.58594 z M 23.11476,425.73 h 19.3086 v 2.89453 h -8.06641 v 21.48633 h -3.24219 v -21.48633 h -8 z m 22.36914,0 h 3.14258 v 8.98047 c 1.56323,-1.76279 3.32023,-2.64453 5.27149,-2.64453 3.98012,0 5.9707,2.169 5.9707,6.5039 v 11.54102 h -3.14453 v -11.4082 c 0,-1.44128 -0.26018,-2.47744 -0.78125,-3.10938 -0.50999,-0.63194 -1.35215,-0.94922 -2.52735,-0.94922 -1.59648,0 -3.19257,0.94339 -4.78906,2.82813 v 12.63867 H 45.4839 Z m 47.34571,0 h 9.0957 c 1.99561,0 3.66437,0.18946 5.00586,0.56641 1.35258,0.36586 2.42183,1.17039 3.20898,2.41211 0.78716,1.23062 1.18164,2.61066 1.18164,4.14062 0,2.46125 -0.78247,4.32854 -2.3457,5.60352 -1.56323,1.27497 -3.825,1.91211 -6.78516,1.91211 h -6.13476 v 9.74609 h -3.22656 z m 143.03515,0 h 10.79297 c 1.88474,0 3.42568,0.18297 4.62305,0.54883 1.19736,0.36586 2.17188,1.13731 2.92578,2.3125 0.7539,1.17519 1.13086,2.50008 1.13086,3.97461 0,1.68518 -0.48726,3.09376 -1.46289,4.22461 -0.97563,1.13084 -2.31155,1.86725 -4.00781,2.21093 v 0.0664 c 1.69626,0.54325 2.98806,2.01152 3.875,4.40625 l 2.44531,6.63672 h -3.49219 l -2.29492,-6.50195 c -0.41021,-1.15302 -1.09342,-2.09641 -2.04688,-2.82813 -0.95345,-0.73172 -2.05125,-1.09766 -3.29296,-1.09766 h -5.96876 v 10.42774 h -3.22656 z m 71.52539,0 h 3.14258 v 3.39258 h -3.14258 z m 7.76563,0 h 3.14453 v 24.38086 h -3.14453 z m 17.6289,0 h 3.24219 v 24.38086 h -3.24219 z m 110.90625,0 h 3.14258 v 3.39258 h -3.14258 z m -164.25585,2.3457 h 3.12695 v 4.39063 h 2.85937 v 2.46094 h -2.85937 V 445.105 c 0,1.20845 0.14988,1.97795 0.44922,2.31055 0.31042,0.32151 0.73151,0.48242 1.26367,0.48242 0.54325,0 1.0636,-0.0441 1.5625,-0.13281 v 2.3789 c -0.68738,0.13304 -1.43481,0.19922 -2.24414,0.19922 -1.28606,0 -2.22944,-0.22708 -2.82813,-0.68164 -0.59868,-0.46564 -0.96915,-1.05866 -1.11328,-1.7793 -0.14413,-0.72063 -0.21679,-1.70164 -0.21679,-2.94336 v -10.01171 h -2.17774 v -2.46094 h 2.17774 z m 155.24218,0 h 3.12696 v 4.39063 h 2.85937 v 2.46094 h -2.85937 V 445.105 c 0,1.20845 0.14792,1.97795 0.44726,2.31055 0.31043,0.32151 0.73346,0.48242 1.26563,0.48242 0.54324,0 1.06359,-0.0441 1.5625,-0.13281 v 2.3789 c -0.68738,0.13304 -1.43677,0.19922 -2.2461,0.19922 -1.28606,0 -2.22749,-0.22708 -2.82617,-0.68164 -0.59868,-0.46564 -0.97111,-1.05866 -1.11523,-1.7793 -0.14413,-0.72063 -0.21485,-1.70164 -0.21485,-2.94336 v -10.01171 h -2.17968 v -2.46094 h 2.17968 z m -195.58594,0.33203 v 8.38282 h 7.19922 c 2.0067,0 3.4594,-0.31728 4.35743,-0.94922 0.90911,-0.63194 1.36328,-1.72325 1.36328,-3.27539 0,-2.77168 -1.73948,-4.15821 -5.22071,-4.15821 z m -143.03515,0.2168 v 8.84766 h 6.16797 c 2.07321,0 3.54798,-0.388 4.42383,-1.16407 0.88693,-0.77606 1.33007,-1.89592 1.33007,-3.35937 0,-0.97563 -0.24265,-1.84181 -0.73046,-2.5957 -0.48782,-0.7539 -1.10939,-1.23013 -1.86329,-1.42969 -0.74281,-0.19956 -1.81855,-0.29883 -3.22656,-0.29883 z m -24.48047,3.44141 c 2.51668,0 4.52283,0.80453 6.01953,2.41211 1.50779,1.60757 2.26172,3.88038 2.26172,6.81836 v 0.74804 H 66.56984 c 0.13304,2.03996 0.69297,3.5543 1.67969,4.54102 0.9978,0.98672 2.22342,1.48047 3.67578,1.48047 1.09758,0 2.08313,-0.2777 2.95898,-0.83203 0.88694,-0.56543 1.35409,-1.36347 1.39844,-2.39453 h 3.24219 c -0.24391,1.81822 -1.07051,3.22031 -2.47852,4.20703 -1.39692,0.98671 -3.10331,1.48046 -5.12109,1.48047 -2.59429,0 -4.67959,-0.80908 -6.25391,-2.42774 -1.57431,-1.62975 -2.36133,-3.89802 -2.36133,-6.80273 0,-2.88255 0.76042,-5.13784 2.2793,-6.76758 1.52997,-1.64083 3.52508,-2.46289 5.98633,-2.46289 z m 50.70508,0 c 2.51668,0 4.52282,0.80453 6.01953,2.41211 1.50779,1.60757 2.26172,3.88038 2.26172,6.81836 0,2.92689 -0.75393,5.1997 -2.26172,6.81836 -1.49671,1.60757 -3.50285,2.41211 -6.01953,2.41211 -2.5056,0 -4.51174,-0.80454 -6.01953,-2.41211 -1.49671,-1.61866 -2.2461,-3.89147 -2.2461,-6.81836 0,-2.93798 0.74939,-5.21079 2.2461,-6.81836 1.50779,-1.60758 3.51393,-2.41211 6.01953,-2.41211 z m 43.53711,0 c 2.51668,0 4.52478,0.80453 6.02148,2.41211 1.50779,1.60757 2.26172,3.88038 2.26172,6.81836 v 0.74804 h -13.28906 c 0.13304,2.03996 0.69297,3.5543 1.67969,4.54102 0.9978,0.98672 2.22342,1.48047 3.67578,1.48047 1.09758,0 2.08508,-0.2777 2.96093,-0.83203 0.88694,-0.56543 1.35214,-1.36347 1.39649,-2.39453 h 3.24219 c -0.24391,1.81822 -1.06855,3.22031 -2.47657,4.20703 -1.39692,0.98671 -3.10526,1.48046 -5.12304,1.48047 -2.59429,0 -4.67764,-0.80908 -6.25196,-2.42774 -1.57431,-1.62975 -2.36132,-3.89802 -2.36132,-6.80273 0,-2.88255 0.75846,-5.13784 2.27734,-6.76758 1.52996,-1.64083 3.52508,-2.46289 5.98633,-2.46289 z m 19.52343,0 c 0.44347,0 0.92166,0.0461 1.43165,0.13476 v 3.125 c -0.44347,-0.13304 -1.08256,-0.19922 -1.91407,-0.19922 -1.59648,0 -2.96549,0.83763 -4.10742,2.51172 v 12.47266 h -3.14258 v -17.64453 h 3.14258 v 2.46094 c 1.31932,-1.90692 2.84923,-2.86133 4.58984,-2.86133 z m 19.80665,0 c 2.51668,0 4.52477,0.80453 6.02148,2.41211 1.50779,1.60757 2.26172,3.88038 2.26172,6.81836 0,2.92689 -0.75393,5.1997 -2.26172,6.81836 -1.49671,1.60757 -3.5048,2.41211 -6.02148,2.41211 -2.5056,0 -4.51174,-0.80454 -6.01954,-2.41211 -1.4967,-1.61866 -2.24414,-3.89147 -2.24414,-6.81836 0,-2.93798 0.74744,-5.21079 2.24414,-6.81836 1.5078,-1.60758 3.51394,-2.41211 6.01954,-2.41211 z m 62.04687,0 c 2.51668,0 4.52478,0.80453 6.02148,2.41211 1.5078,1.60757 2.26172,3.88038 2.26172,6.81836 v 0.74804 h -13.28906 c 0.13304,2.03996 0.69297,3.5543 1.67969,4.54102 0.9978,0.98672 2.22342,1.48047 3.67578,1.48047 1.09758,0 2.08509,-0.2777 2.96094,-0.83203 0.88693,-0.56543 1.35214,-1.36347 1.39648,-2.39453 h 3.24219 c -0.24391,1.81822 -1.06855,3.22031 -2.47656,4.20703 -1.39693,0.98671 -3.10527,1.48046 -5.12305,1.48047 -2.59429,0 -4.67764,-0.80908 -6.25195,-2.42774 -1.57432,-1.62975 -2.36133,-3.89802 -2.36133,-6.80273 0,-2.88255 0.75846,-5.13784 2.27734,-6.76758 1.52997,-1.64083 3.52508,-2.46289 5.98633,-2.46289 z m 28.37109,0 c 2.26169,0 4.02518,0.44963 5.28907,1.34765 1.26388,0.89803 1.89453,2.66152 1.89453,5.28907 v 11.4082 h -3.125 v -1.8125 c -1.59649,1.48562 -3.65324,2.22851 -6.16992,2.22852 -1.7517,0 -3.19338,-0.4717 -4.32422,-1.41407 -1.13085,-0.95345 -1.69531,-2.17907 -1.69531,-3.67578 0,-4.12425 3.55162,-6.18555 10.6582,-6.18555 h 1.53125 c 0,-1.26388 -0.0662,-2.17871 -0.19922,-2.74414 -0.13304,-0.57651 -0.50547,-1.05274 -1.11523,-1.42968 -0.60977,-0.37695 -1.57976,-0.56641 -2.91016,-0.56641 -2.79385,0 -4.23553,0.99853 -4.32422,2.99414 h -3.12695 c 0.23282,-3.62535 2.77229,-5.43945 7.61718,-5.43945 z m 54.28125,0 c 3.98013,0 5.97071,2.169 5.97071,6.5039 v 11.54102 h -3.14453 v -11.4082 c 0,-1.44128 -0.26018,-2.47744 -0.78125,-3.10938 -0.50999,-0.63194 -1.35216,-0.94922 -2.52735,-0.94922 -1.59648,0 -3.19257,0.94339 -4.78906,2.82813 v 12.63867 h -3.14453 v -17.64453 h 3.14453 v 2.24414 c 1.56323,-1.76279 3.32022,-2.64453 5.27148,-2.64453 z m 18.94141,0 c 3.98013,0 5.9707,2.169 5.9707,6.5039 v 11.54102 h -3.14453 v -11.4082 c 0,-1.44128 -0.26017,-2.47744 -0.78125,-3.10938 -0.50999,-0.63194 -1.35215,-0.94922 -2.52734,-0.94922 -1.59649,0 -3.19258,0.94339 -4.78906,2.82813 v 12.63867 h -3.14258 v -17.64453 h 3.14258 v 2.24414 c 1.56322,-1.76279 3.32022,-2.64453 5.27148,-2.64453 z m 17.67773,0 c 2.51669,0 4.52283,0.80453 6.01954,2.41211 1.50779,1.60757 2.26172,3.88038 2.26172,6.81836 0,2.92689 -0.75393,5.1997 -2.26172,6.81836 -1.49671,1.60757 -3.50285,2.41211 -6.01954,2.41211 -2.50559,0 -4.51173,-0.80454 -6.01953,-2.41211 -1.4967,-1.61866 -2.24609,-3.89147 -2.24609,-6.81836 0,-2.93798 0.74939,-5.21079 2.24609,-6.81836 1.5078,-1.60758 3.51394,-2.41211 6.01953,-2.41211 z m 35.9375,0 c 2.26169,0 4.02518,0.44963 5.28907,1.34765 1.26388,0.89803 1.89453,2.66152 1.89453,5.28907 v 11.4082 h -3.125 v -1.8125 c -1.59649,1.48562 -3.65324,2.22851 -6.16992,2.22852 -1.7517,0 -3.19338,-0.4717 -4.32422,-1.41407 -1.13085,-0.95345 -1.69727,-2.17907 -1.69727,-3.67578 0,-4.12425 3.55358,-6.18555 10.66016,-6.18555 h 1.53125 c 0,-1.26388 -0.0681,-2.17871 -0.20117,-2.74414 -0.13304,-0.57651 -0.50352,-1.05274 -1.11328,-1.42968 -0.60977,-0.37695 -1.57976,-0.56641 -2.91016,-0.56641 -2.79385,0 -4.23553,0.99853 -4.32422,2.99414 h -3.12695 c 0.23282,-3.62535 2.77229,-5.43945 7.61718,-5.43945 z m 36.20313,0 c 2.51668,0 4.52478,0.80453 6.02148,2.41211 1.5078,1.60757 2.26172,3.88038 2.26172,6.81836 0,2.92689 -0.75392,5.1997 -2.26172,6.81836 -1.4967,1.60757 -3.5048,2.41211 -6.02148,2.41211 -2.5056,0 -4.51174,-0.80454 -6.01953,-2.41211 -1.49671,-1.61866 -2.24414,-3.89147 -2.24414,-6.81836 0,-2.93798 0.74743,-5.21079 2.24414,-6.81836 1.50779,-1.60758 3.51393,-2.41211 6.01953,-2.41211 z m 20.20703,0 c 3.98013,0 5.96875,2.169 5.96875,6.5039 v 11.54102 h -3.14258 v -11.4082 c 0,-1.44128 -0.26017,-2.47744 -0.78125,-3.10938 -0.50999,-0.63194 -1.35215,-0.94922 -2.52734,-0.94922 -1.59649,0 -3.19453,0.94339 -4.79102,2.82813 v 12.63867 h -3.14257 v -17.64453 h 3.14257 v 2.24414 c 1.56323,-1.76279 3.32218,-2.64453 5.27344,-2.64453 z m -346.88672,0.40039 h 3.47461 l 3.24219,13.45312 3.97461,-13.45312 H 145.48 l 3.99023,13.45312 3.24414,-13.45312 h 3.45899 l -5.30469,17.64453 h -2.99414 l -3.82422,-12.97266 -3.80859,12.97266 h -2.99414 z m 175.46289,0 h 3.14258 v 17.64453 h -3.14258 z m 89.00391,0 h 3.39258 l 4.67383,13.80273 4.67187,-13.80273 h 3.39258 l -6.66797,17.64453 h -2.79297 z m 47.29687,0 h 3.14258 v 17.64453 h -3.14258 z M 71.5757,434.51125 c -1.2528,0 -2.32854,0.42108 -3.22656,1.26367 -0.89803,0.8315 -1.46899,2.10124 -1.71289,3.8086 h 9.91211 c -0.255,-1.69627 -0.82596,-2.96601 -1.71289,-3.8086 -0.88694,-0.84259 -1.97371,-1.26367 -3.25977,-1.26367 z m 50.70508,0 c -1.49671,0 -2.7113,0.57096 -3.64258,1.71289 -0.93128,1.13084 -1.39648,2.82166 -1.39648,5.07227 0,2.23951 0.4652,3.93033 1.39648,5.07226 0.93128,1.13085 2.14587,1.69727 3.64258,1.69727 1.4967,0 2.71129,-0.56642 3.64258,-1.69727 0.93128,-1.14193 1.39648,-2.83275 1.39648,-5.07226 0,-2.25061 -0.4652,-3.94143 -1.39648,-5.07227 -0.93129,-1.14193 -2.14588,-1.71289 -3.64258,-1.71289 z m 43.53711,0 c -1.2528,0 -2.32854,0.42108 -3.22657,1.26367 -0.89802,0.8315 -1.46898,2.10124 -1.71289,3.8086 h 9.91211 c -0.25499,-1.69627 -0.82595,-2.96601 -1.71289,-3.8086 -0.88693,-0.84259 -1.9737,-1.26367 -3.25976,-1.26367 z m 39.33008,0 c -1.49671,0 -2.70935,0.57096 -3.64063,1.71289 -0.93128,1.13084 -1.39844,2.82166 -1.39844,5.07227 0,2.23951 0.46716,3.93033 1.39844,5.07226 0.93128,1.13085 2.14392,1.69727 3.64063,1.69727 1.4967,0 2.71129,-0.56642 3.64257,-1.69727 0.93129,-1.14193 1.39649,-2.83275 1.39649,-5.07226 0,-2.25061 -0.4652,-3.94143 -1.39649,-5.07227 -0.93128,-1.14193 -2.14587,-1.71289 -3.64257,-1.71289 z m 62.04687,0 c -1.2528,0 -2.32854,0.42108 -3.22656,1.26367 -0.89803,0.8315 -1.46898,2.10124 -1.71289,3.8086 h 9.91211 c -0.255,-1.69627 -0.82596,-2.96601 -1.71289,-3.8086 -0.88694,-0.84259 -1.97371,-1.26367 -3.25977,-1.26367 z m 119.27148,0 c -1.4967,0 -2.71129,0.57096 -3.64257,1.71289 -0.93129,1.13084 -1.39649,2.82166 -1.39649,5.07227 0,2.23951 0.4652,3.93033 1.39649,5.07226 0.93128,1.13085 2.14587,1.69727 3.64257,1.69727 1.49671,0 2.7113,-0.56642 3.64258,-1.69727 0.93129,-1.14193 1.39649,-2.83275 1.39649,-5.07226 0,-2.25061 -0.4652,-3.94143 -1.39649,-5.07227 -0.93128,-1.14193 -2.14587,-1.71289 -3.64258,-1.71289 z m 72.14063,0 c -1.49671,0 -2.70934,0.57096 -3.64063,1.71289 -0.93128,1.13084 -1.39843,2.82166 -1.39843,5.07227 0,2.23951 0.46715,3.93033 1.39843,5.07226 0.93129,1.13085 2.14392,1.69727 3.64063,1.69727 1.49671,0 2.71129,-0.56642 3.64258,-1.69727 0.93128,-1.14193 1.39648,-2.83275 1.39648,-5.07226 0,-2.25061 -0.4652,-3.94143 -1.39648,-5.07227 -0.93129,-1.14193 -2.14587,-1.71289 -3.64258,-1.71289 z m -161.12891,7.05078 c -4.54555,0 -6.81836,1.23665 -6.81836,3.70899 0,0.89802 0.33285,1.59031 0.99805,2.07812 0.6652,0.47673 1.56447,0.7168 2.69531,0.7168 1.03107,0 2.02765,-0.23358 2.99219,-0.69922 0.96454,-0.46564 1.72496,-1.09824 2.2793,-1.89649 v -3.9082 z m 126.83789,0 c -4.54555,0 -6.81835,1.23665 -6.81835,3.70899 0,0.89802 0.33284,1.59031 0.99804,2.07812 0.6652,0.47673 1.56252,0.7168 2.69336,0.7168 1.03107,0 2.0296,-0.23358 2.99414,-0.69922 0.96455,-0.46564 1.72496,-1.09824 2.2793,-1.89649 v -3.9082 z" /></g></svg>
