<?xml version="1.0" encoding="UTF-8" standalone="no"?>
<!-- Created with Inkscape (http://www.inkscape.org/) -->

<svg
   width="599.89331"
   height="599.89355"
   viewBox="0 0 599.89331 599.89355"
   version="1.1"
   id="svg1"
   xml:space="preserve"
   inkscape:export-filename="ShoperPrime.png"
   inkscape:export-xdpi="96"
   inkscape:export-ydpi="96"
   inkscape:version="1.3 (0e150ed6c4, 2023-07-21)"
   sodipodi:docname="ShoperPrime.svg"
   xmlns:inkscape="http://www.inkscape.org/namespaces/inkscape"
   xmlns:sodipodi="http://sodipodi.sourceforge.net/DTD/sodipodi-0.dtd"
   xmlns="http://www.w3.org/2000/svg"
   xmlns:svg="http://www.w3.org/2000/svg"><sodipodi:namedview
     id="namedview1"
     pagecolor="#ffffff"
     bordercolor="#000000"
     borderopacity="0.25"
     inkscape:showpageshadow="2"
     inkscape:pageopacity="0.0"
     inkscape:pagecheckerboard="0"
     inkscape:deskcolor="#d1d1d1"
     inkscape:document-units="px"
     inkscape:zoom="0.51155435"
     inkscape:cx="1121.093"
     inkscape:cy="4801.0539"
     inkscape:window-width="2560"
     inkscape:window-height="1009"
     inkscape:window-x="-8"
     inkscape:window-y="-8"
     inkscape:window-maximized="1"
     inkscape:current-layer="layer1" /><defs
     id="defs1" /><g
     inkscape:label="Layer 1"
     inkscape:groupmode="layer"
     id="layer1"
     transform="translate(2223.8586,-2871.3613)"><circle
       style="fill:#ffffff;fill-opacity:1;stroke-width:1.15873"
       id="path114-6-2-3"
       cx="-1923.912"
       cy="3171.3081"
       r="299.94672" /><path
       id="path114-6-5"
       style="fill:#ff7000;fill-opacity:1;stroke-width:1.12475"
       d="m -1923.9111,2880.1577 a 291.14999,291.14999 0 0 0 -291.1503,291.1504 291.14999,291.14999 0 0 0 2.33,32.5957 291.20001,291.20001 0 0 0 4.125,24.8926 291.14999,291.14999 0 0 0 0.2149,0.9903 h 568.959 a 291.14999,291.14999 0 0 0 0.207,-0.9532 291.20001,291.20001 0 0 0 4.1328,-24.9316 291.14999,291.14999 0 0 0 2.3301,-32.5938 291.14999,291.14999 0 0 0 -0.027,-1.082 291.20001,291.20001 0 0 0 -2.7734,-38.8066 291.14999,291.14999 0 0 0 -0.2969,-2.4121 291.20001,291.20001 0 0 0 -8.2578,-37.9493 291.14999,291.14999 0 0 0 -0.7989,-2.8906 291.20001,291.20001 0 0 0 -13.4043,-35.9414 291.14999,291.14999 0 0 0 -1.4101,-3.1816 291.20001,291.20001 0 0 0 -18.2285,-33.3809 291.14999,291.14999 0 0 0 -1.9922,-3.1445 291.20001,291.20001 0 0 0 -22.6934,-30.3145 291.14999,291.14999 0 0 0 -2.5136,-2.914 291.20001,291.20001 0 0 0 -26.7403,-26.7403 291.14999,291.14999 0 0 0 -2.9062,-2.5078 291.20001,291.20001 0 0 0 -30.3145,-22.6934 291.14999,291.14999 0 0 0 -3.1523,-1.996 291.20001,291.20001 0 0 0 -33.3965,-18.2344 291.14999,291.14999 0 0 0 -3.1387,-1.3926 291.20001,291.20001 0 0 0 -35.9668,-13.4121 291.14999,291.14999 0 0 0 -2.8769,-0.7969 291.20001,291.20001 0 0 0 -37.9688,-8.2597 291.14999,291.14999 0 0 0 -2.3984,-0.2969 291.20001,291.20001 0 0 0 -38.8145,-2.7754 291.14999,291.14999 0 0 0 -1.0781,-0.027 z m -195.5156,108.67 h 3.0938 3.0957 v 0.2929 c 0,0.1621 0.3884,0.295 0.8633,0.295 0.4748,0 1.0633,0.2 1.3066,0.4433 0.2432,0.2431 0.7823,0.4414 1.1992,0.4414 0.417,0 0.7578,0.1242 0.7578,0.2754 0,0.1512 0.2971,0.3698 0.6582,0.4844 0.8111,0.2574 4.0606,3.5665 4.0606,4.1348 0,0.2279 0.1327,0.414 0.2949,0.414 0.1621,0 0.293,0.1982 0.293,0.4414 0,0.2432 0.2001,0.4414 0.4433,0.4414 h 0.4414 v 1.1485 1.1484 l 0.4434,0.1699 0.4414,0.1699 v 1.1875 c 0,0.6537 0.1327,1.1895 0.2949,1.1895 0.1663,0 0.2949,0.835 0.2949,1.916 0,1.081 -0.1285,1.916 -0.2949,1.916 -0.1621,0 -0.2949,0.6667 -0.2949,1.4825 v 1.4843 l -0.4414,0.1699 -0.4434,0.17 v 1 1 h -0.4414 c -0.2432,0 -0.4433,0.2001 -0.4433,0.4433 0,0.2432 -0.1171,0.4414 -0.2618,0.4414 -0.1447,0 -0.3455,0.3329 -0.4472,0.7383 -0.1018,0.4053 -0.3155,0.7344 -0.4746,0.7344 -0.159,0 -0.2891,0.2002 -0.2891,0.4434 0,0.2432 -0.15,0.4414 -0.334,0.4414 -0.1841,0 -0.6212,0.3085 -0.9687,0.6836 -0.3476,0.3749 -1.0886,0.9378 -1.6485,1.2519 -0.5599,0.3142 -1.1968,0.7368 -1.414,0.9395 -0.2174,0.2027 -0.7176,0.3691 -1.1114,0.3691 -0.3938,0 -0.7148,0.1327 -0.7148,0.2949 0,0.1621 -0.4974,0.2947 -1.1055,0.3047 -0.6081,0 -1.365,0.2034 -1.6797,0.4414 l -0.5703,0.4336 h -1.8359 -1.8359 l -0.1094,-0.332 c -0.061,-0.1825 -0.802,-0.3995 -1.6465,-0.4805 -0.8444,-0.081 -1.5352,-0.2628 -1.5352,-0.4043 0,-0.1415 -0.1902,-0.2578 -0.4218,-0.2578 -0.2316,0 -0.5996,-0.1645 -0.8164,-0.3672 -0.2167,-0.2027 -0.8886,-0.6223 -1.4942,-0.9316 -0.6056,-0.3093 -1.1015,-0.674 -1.1015,-0.8106 0,-0.1365 -0.1983,-0.25 -0.4414,-0.25 -0.2433,0 -0.4434,-0.1982 -0.4434,-0.4414 0,-0.2433 -0.1982,-0.4433 -0.4414,-0.4433 -0.2432,0 -0.4414,-0.1499 -0.4414,-0.334 0,-0.1842 -0.331,-0.6418 -0.7363,-1.0176 -0.4054,-0.3756 -0.7383,-0.9551 -0.7383,-1.2871 0,-0.3402 -0.1923,-0.6035 -0.4414,-0.6035 h -0.4434 v -0.7364 c 0,-0.4053 -0.1165,-0.7382 -0.2578,-0.7382 -0.1413,0 -0.3416,-0.5311 -0.4453,-1.1797 -0.1037,-0.6487 -0.3203,-1.1778 -0.4805,-1.1778 h -0.291 v -3.0703 -3.0722 l 0.3144,-0.1036 c 0.1725,-0.058 0.3885,-0.6659 0.4805,-1.3515 0.092,-0.6857 0.283,-1.2481 0.4238,-1.2481 0.1407,0 0.2559,-0.2682 0.2559,-0.5976 0,-0.3294 0.2002,-0.6766 0.4434,-0.7696 0.2432,-0.093 0.4414,-0.487 0.4414,-0.875 v -0.705 h 0.4433 c 0.2433,0 0.4414,-0.1437 0.4414,-0.3184 0,-0.4126 1.6284,-2.041 2.0411,-2.041 0.1745,0 0.3164,-0.1409 0.3164,-0.3145 0,-0.4497 0.657,-1.0462 1.416,-1.2871 0.3572,-0.1134 0.6484,-0.3311 0.6484,-0.4824 0,-0.1511 0.3984,-0.2754 0.8848,-0.2754 h 0.8847 v -0.4414 -0.4414 h 1.1797 c 0.6486,0 1.1797,-0.1325 1.1797,-0.2949 z m 152.6211,5.2812 c 4.9784,0 9.2143,0.8054 12.7051,2.4141 3.5213,1.6088 5.8437,3.6427 6.9668,6.1015 1.1535,2.4285 1.7285,6.5711 1.7285,12.4297 v 2.9141 h -17.8027 v -5.4629 c 0,-2.5498 -0.2283,-4.1748 -0.6836,-4.873 -0.4553,-0.6981 -1.2129,-1.0469 -2.2754,-1.0469 -1.1535,0 -2.0355,0.4691 -2.6426,1.4101 -0.5767,0.941 -0.8652,2.3689 -0.8652,4.2813 0,2.4588 0.3341,4.3101 1.0019,5.5547 0.6375,1.2446 2.445,2.7471 5.4199,4.5078 8.5298,5.0693 13.9033,9.2286 16.1192,12.4765 2.216,3.248 3.3223,8.4843 3.3223,15.709 0,5.2515 -0.6227,9.1222 -1.8672,11.6114 -1.2142,2.4891 -3.5824,4.5833 -7.1036,6.2832 -3.5212,1.6696 -7.6182,2.5039 -12.2929,2.5039 -5.1301,0 -9.5156,-0.9714 -13.1582,-2.9141 -3.6123,-1.9427 -5.9804,-4.4167 -7.1035,-7.4219 -1.1232,-3.0052 -1.6856,-7.2702 -1.6856,-12.7949 v -4.8262 h 17.8047 v 8.9707 c 0,2.7623 0.2408,4.537 0.7266,5.3262 0.516,0.7893 1.4126,1.1836 2.6875,1.1836 1.2749,0 2.2152,-0.5002 2.8222,-1.5019 0.6374,-1.0017 0.9571,-2.4898 0.9571,-4.4629 0,-4.3409 -0.5915,-7.1781 -1.7754,-8.5137 -1.2142,-1.3357 -4.2048,-3.5668 -8.9707,-6.6934 -4.7658,-3.157 -7.9226,-5.4502 -9.4707,-6.8769 -1.5481,-1.4266 -2.8391,-3.4004 -3.8711,-5.9199 -1.0017,-2.5196 -1.502,-5.7365 -1.502,-9.6524 0,-5.6461 0.7138,-9.7742 2.1406,-12.3848 1.457,-2.6105 3.7941,-4.6426 7.0118,-6.0996 3.2177,-1.4875 7.1029,-2.2324 11.6562,-2.2324 z m 28.457,1.5488 h 18.3965 v 16.5723 c 1.5785,-1.457 3.2782,-2.5488 5.0996,-3.2773 1.8516,-0.7285 3.8254,-1.0938 5.92,-1.0938 3.2177,0 5.951,0.8198 8.1972,2.459 2.2767,1.6392 3.6569,3.5362 4.1426,5.6914 0.516,2.125 0.7734,6.0267 0.7734,11.7031 v 41.6621 h -18.3964 v -42.5273 c 0,-3.5214 -0.1807,-5.7835 -0.545,-6.7852 -0.3339,-1.0017 -1.108,-1.5019 -2.3222,-1.5019 -1.1232,0 -1.8828,0.5168 -2.2774,1.5488 -0.3946,1.0321 -0.5918,3.0806 -0.5918,6.1465 v 43.1191 h -18.3965 z m -90.5058,3.1934 h 3.4844 3.4843 l 0.4434,0.4414 c 0.2432,0.2433 0.7842,0.4434 1.2012,0.4434 0.4169,0 0.7578,0.1299 0.7578,0.289 0,0.1591 0.3309,0.3728 0.7363,0.4746 0.4054,0.1016 0.7364,0.2891 0.7363,0.4161 0,0.127 0.3329,0.3142 0.7383,0.416 0.4054,0.1017 0.7363,0.3155 0.7363,0.4746 0,0.159 0.1981,0.289 0.4414,0.289 0.2431,0 0.4434,0.1983 0.4434,0.4415 0,0.2431 0.1429,0.4433 0.3164,0.4433 0.4082,0 1.1582,0.7482 1.1582,1.1563 0,0.1737 0.1982,0.3164 0.4414,0.3164 h 0.4434 v 0.707 c 0,0.388 0.1982,0.782 0.4414,0.875 0.2433,0.093 0.4433,0.4382 0.4433,0.7676 0,0.3294 0.1327,0.5996 0.295,0.5996 0.162,0 0.2949,0.3884 0.2949,0.8633 0,0.4749 0.1982,1.0614 0.4414,1.3047 l 0.4434,0.4414 v 3.1171 3.1172 h -0.293 c -0.1604,0 -0.3749,0.531 -0.4785,1.1797 -0.1038,0.6485 -0.3059,1.1797 -0.4473,1.1797 -0.1414,0 -0.2559,0.331 -0.2559,0.7363 v 0.7383 h -0.4433 c -0.2491,0 -0.4414,0.2633 -0.4414,0.6035 0,0.332 -0.333,0.9114 -0.7383,1.2871 -0.4054,0.3757 -0.7363,0.8316 -0.7363,1.0157 0,0.1841 -0.152,0.3359 -0.336,0.3359 -0.1842,0 -0.6262,0.3167 -0.9843,0.7031 -0.3581,0.3864 -0.9374,0.7915 -1.2871,0.9024 -0.3496,0.111 -0.6368,0.3253 -0.6368,0.4765 0,0.1512 -0.1981,0.2774 -0.4414,0.2774 -0.2431,0 -0.4414,0.1286 -0.4414,0.289 0,0.1603 -0.531,0.3787 -1.1797,0.4825 -0.6485,0.1037 -1.1797,0.3039 -1.1797,0.4453 0,0.1413 -1.9241,0.2558 -4.2753,0.2558 -2.3511,0 -4.2735,-0.1171 -4.2735,-0.2617 0,-0.1446 -0.333,-0.3475 -0.7383,-0.4492 -0.4054,-0.1018 -0.7363,-0.3136 -0.7363,-0.4727 0,-0.159 -0.3356,-0.289 -0.7461,-0.289 -0.4104,0 -0.8227,-0.2002 -0.916,-0.4434 -0.093,-0.2432 -0.2987,-0.4414 -0.4551,-0.4414 -0.3825,0 -1.125,-0.7669 -1.125,-1.1601 0,-0.1737 -0.1437,-0.3145 -0.3183,-0.3145 -0.3952,0 -2.0411,-1.6207 -2.0411,-2.0098 0,-0.1573 -0.2001,-0.362 -0.4433,-0.455 -0.2433,-0.094 -0.4414,-0.4402 -0.4414,-0.7696 0,-0.3294 -0.1221,-0.5976 -0.2715,-0.5976 -0.1492,0 -0.358,-0.3984 -0.4648,-0.8848 -0.1068,-0.4865 -0.3176,-0.8848 -0.4668,-0.8848 -0.1492,0 -0.2715,-0.8621 -0.2715,-1.916 0,-1.081 -0.1286,-1.9179 -0.295,-1.9179 -0.1622,0 -0.2949,-0.329 -0.2949,-0.7344 0,-0.4054 0.1327,-0.7383 0.2949,-0.7383 h 0.295 v -2.0645 -2.0644 h 0.4433 0.4414 v -0.7363 c 0,-0.4054 0.1191,-0.7364 0.2637,-0.7364 0.1447,0 0.3456,-0.3328 0.4473,-0.7382 0.1018,-0.4054 0.3155,-0.7364 0.4746,-0.7364 0.159,0 0.289,-0.1499 0.289,-0.334 0,-0.1842 0.3309,-0.6418 0.7364,-1.0175 0.4053,-0.3757 0.7383,-0.8223 0.7383,-0.9922 0,-0.17 0.1497,-0.3086 0.3339,-0.3086 0.1842,0 0.642,-0.3329 1.0176,-0.7383 0.3758,-0.4053 0.8223,-0.7363 0.9922,-0.7363 0.17,-1e-4 0.3086,-0.1301 0.3086,-0.2891 0,-0.1591 0.331,-0.3728 0.7363,-0.4746 0.4053,-0.1018 0.7383,-0.3028 0.7383,-0.4473 0,-0.1446 0.4685,-0.2636 1.041,-0.2636 h 1.041 l 0.17,-0.4434 z m -64.6289,8.8438 h 14.1504 14.1523 v 4.7168 4.7167 h -4.9805 -4.9804 l -0.1797,0.4668 c -0.099,0.2565 -0.1777,4.8342 -0.1777,10.1719 v 9.7051 h 4.4218 4.4219 v 5.8945 c 0,3.2563 0.1186,5.8985 0.2637,5.8985 0.1446,0 0.3453,0.3309 0.4472,0.7363 l 0.1856,0.7363 h 0.9941 0.9961 l 0.168,0.4414 0.1699,0.4434 h 1.041 c 0.5728,0 1.041,0.1222 1.041,0.2715 0,0.1492 0.3985,0.358 0.8848,0.4648 0.4865,0.1068 0.8848,0.3175 0.8848,0.4668 0,0.1492 0.4497,0.2715 1,0.2715 h 1 l 0.1699,0.4414 c 0.093,0.2432 0.5056,0.4434 0.916,0.4434 0.4106,0 0.7461,0.1163 0.7461,0.2578 0,0.1413 0.5311,0.3415 1.1797,0.4453 l 1.1797,0.1875 v 0.7324 0.7363 h -0.4434 -0.4414 v 0.711 c 0,0.3918 -0.1664,0.7679 -0.3691,0.8359 l -0.3692,0.1231 v 3.6347 3.6367 l 0.3692,0.1231 c 0.2027,0.068 0.3691,0.314 0.3691,0.5488 0,0.2348 0.1982,0.5047 0.4414,0.5977 0.2432,0.093 0.4434,0.487 0.4434,0.875 0,0.388 0.1499,0.7051 0.334,0.7051 0.1841,0 0.6418,0.3329 1.0175,0.7382 0.3756,0.4054 0.8996,0.7364 1.1622,0.7364 0.2625,0 0.6748,0.1981 0.9179,0.4414 0.2432,0.2431 0.8319,0.4433 1.3067,0.4433 0.4748,0 0.8632,0.1328 0.8632,0.295 0,0.1633 0.7776,0.2949 1.7442,0.2949 0.9597,0 1.9544,0.08 2.2109,0.1777 l 0.4668,0.1797 v 1.7578 1.7598 l -0.4219,0.4199 -0.4218,0.4219 -5.4004,-0.01 -5.4024,-0.01 -0.3672,-0.4218 c -0.2028,-0.2302 -0.3691,-0.5577 -0.3691,-0.7266 0,-0.1691 -0.1301,-0.3066 -0.2891,-0.3066 -0.1591,0 -0.3728,-0.3329 -0.4746,-0.7383 -0.1017,-0.4054 -0.3027,-0.7363 -0.4472,-0.7364 -0.1446,0 -0.2618,-0.1982 -0.2618,-0.4414 0,-0.2432 -0.1519,-0.4433 -0.3359,-0.4433 -0.1842,0 -0.6419,-0.3309 -1.0176,-0.7363 -0.3756,-0.4054 -0.7617,-0.7364 -0.8574,-0.7364 -0.2025,0 -0.7166,-0.4192 -1.9043,-1.5488 -0.4688,-0.4459 -0.9953,-0.8105 -1.1699,-0.8105 -0.1745,0 -0.3184,-0.2001 -0.3184,-0.4434 0,-0.2432 -0.1417,-0.4414 -0.3164,-0.4414 -0.1746,0 -0.7012,-0.3647 -1.1699,-0.8106 -1.1877,-1.1296 -1.7038,-1.5468 -1.9062,-1.5468 -0.096,0 -0.4798,-0.3329 -0.8555,-0.7383 -0.3757,-0.4054 -0.8335,-0.7363 -1.0176,-0.7363 -0.1842,0 -0.3359,-0.2002 -0.3359,-0.4434 0,-0.2432 -0.1408,-0.4414 -0.3145,-0.4414 -0.393,0 -1.1601,-0.7447 -1.1601,-1.127 0,-0.1561 -0.3309,-0.367 -0.7364,-0.4687 -0.4053,-0.1017 -0.7363,-0.3155 -0.7363,-0.4746 0,-0.159 -0.2002,-0.2891 -0.4434,-0.2891 -0.2432,0 -0.4414,-0.1982 -0.4414,-0.4414 0,-0.2432 -0.1327,-0.4433 -0.2949,-0.4433 -0.162,0 -0.824,-0.5311 -1.4726,-1.1797 -0.6486,-0.6486 -1.3125,-1.1778 -1.4746,-1.1778 -0.5996,0 -1.4747,-1.2047 -1.4747,-2.0312 v -0.8535 l -0.4433,-0.17 c -0.2433,-0.093 -0.4414,-0.5056 -0.4414,-0.916 0,-0.4104 -0.1327,-0.7461 -0.2949,-0.7461 -0.1623,0 -0.295,-0.323 -0.295,-0.7168 0,-0.3938 -0.2002,-0.9151 -0.4433,-1.1582 -0.2433,-0.2433 -0.4414,-0.7268 -0.4414,-1.0742 0,-0.3475 -0.1982,-0.831 -0.4414,-1.0742 -0.2432,-0.2432 -0.4434,-0.8299 -0.4434,-1.3047 0,-0.4749 -0.1308,-0.8633 -0.293,-0.8633 -0.1621,0 -0.2968,-0.333 -0.2968,-0.7383 v -0.7363 h -0.4414 -0.4415 v -1.1797 -1.1797 h -0.4433 -0.4414 v -0.8828 c 0,-0.4865 -0.1327,-0.8847 -0.2949,-0.8847 -0.1621,0 -0.295,-0.323 -0.295,-0.7168 0,-0.3938 -0.1983,-0.915 -0.4414,-1.1582 l -0.4433,-0.4414 v -10.1934 -10.1914 h -0.4414 c -0.2433,0 -0.4434,-0.1327 -0.4434,-0.2949 v -0.295 h -4.2734 -4.2754 v -4.7187 z m 223.9375,0.164 c 4.1283,0 7.6649,0.6225 10.6094,1.8672 2.9747,1.2142 5.2661,2.8082 6.875,4.7813 1.6088,1.9731 2.7006,4.007 3.2773,6.1015 0.6071,2.0946 0.9121,5.2823 0.9121,9.5625 v 14.7988 c 0,5.4336 -0.272,9.4248 -0.8184,11.9747 -0.5464,2.5194 -1.7168,4.8875 -3.5078,7.1035 -1.7909,2.1856 -4.0988,3.8106 -6.9218,4.873 -2.7928,1.0321 -6.0078,1.5469 -9.6504,1.5469 -4.0677,0 -7.5149,-0.44 -10.3379,-1.3203 -2.8231,-0.9105 -5.023,-2.2618 -6.6016,-4.0528 -1.5481,-1.8213 -2.6564,-4.0067 -3.3242,-6.5566 -0.6679,-2.5802 -1.002,-6.4345 -1.002,-11.5645 v -15.4824 c 0,-5.6158 0.6062,-10.0031 1.8204,-13.1601 1.2142,-3.1569 3.4016,-5.6911 6.5585,-7.6035 3.157,-1.9124 7.1938,-2.8692 12.1114,-2.8692 z m 58.0098,0 c 2.8533,0 5.3127,0.7741 7.3769,2.3223 2.0945,1.5178 3.4,3.2797 3.916,5.2832 0.516,2.0034 0.7715,5.403 0.7715,10.1992 v 25.4531 c 0,5.4943 -0.3322,9.4107 -1,11.7481 -0.6375,2.307 -1.974,4.1584 -4.0078,5.5547 -2.0035,1.3661 -4.4317,2.0488 -7.2852,2.0488 -2.2766,0 -4.3853,-0.5313 -6.3281,-1.5938 -1.9428,-1.0624 -3.7192,-2.6397 -5.3281,-4.7343 v 13.8418 h -18.3965 v -69.0293 h 18.7148 l -0.3183,5.3261 c 1.6392,-2.1553 3.4448,-3.7617 5.4179,-4.8242 1.9732,-1.0624 4.1294,-1.5957 6.4669,-1.5957 z m 37.9296,0 c 5.1604,0 9.409,0.9879 12.7481,2.961 3.3695,1.9428 5.723,4.539 7.0586,7.7871 1.366,3.2177 2.0488,7.7547 2.0488,13.6132 v 8.0137 h -23.8144 v 13.0684 c 0,2.732 0.1971,4.4919 0.5918,5.2812 0.3945,0.7892 1.1541,1.1856 2.2773,1.1856 1.3963,0 2.3221,-0.5168 2.7773,-1.5489 0.4857,-1.0624 0.7286,-3.0964 0.7286,-6.1015 v -7.9688 h 17.4394 v 4.461 c 0,3.7337 -0.2428,6.6039 -0.7285,8.6074 -0.4553,2.0035 -1.549,4.1432 -3.2793,6.4199 -1.7303,2.2767 -3.9302,3.993 -6.6016,5.1465 -2.6409,1.1231 -5.9657,1.6836 -9.9726,1.6836 -3.8856,0 -7.3142,-0.5605 -10.2891,-1.6836 -2.9748,-1.1232 -5.2972,-2.6569 -6.9668,-4.5996 -1.6392,-1.9731 -2.7785,-4.1275 -3.416,-6.4649 -0.6375,-2.3677 -0.9551,-5.8003 -0.9551,-10.2929 v -17.6192 c 0,-5.2819 0.712,-9.4429 2.1387,-12.4785 1.4267,-3.066 3.7656,-5.4029 7.0137,-7.0117 3.248,-1.6392 6.9817,-2.459 11.2011,-2.459 z m 57.1446,0 v 21.2656 c -3.3695,0 -5.8434,0.4546 -7.4219,1.3653 -1.5785,0.9106 -2.5497,2.185 -2.9141,3.8242 -0.3642,1.6089 -0.5468,5.3425 -0.5468,11.2012 v 23.8593 h -18.3965 v -60.4218 h 18.3965 l -0.7286,7.9238 c 2.6713,-5.6765 6.542,-8.6837 11.6114,-9.0176 z m -152.4473,10.7012 c -1.0928,0 -1.8213,0.411 -2.1856,1.2305 -0.3643,0.7893 -0.5449,2.7318 -0.5449,5.8281 v 27.2734 c 0,2.8534 0.1806,4.7193 0.5449,5.5996 0.3643,0.85 1.0783,1.2774 2.1407,1.2774 1.0928,0 1.8067,-0.3964 2.1406,-1.1856 0.3643,-0.7893 0.5449,-2.489 0.5449,-5.0996 v -27.8652 c 0,-3.0963 -0.1661,-5.0388 -0.5,-5.8281 -0.3339,-0.8195 -1.0478,-1.2305 -2.1406,-1.2305 z m 48.3555,0 c -1.2142,0 -2.003,0.4545 -2.3672,1.3652 -0.3339,0.9106 -0.5,3.1126 -0.5,6.6035 v 25.043 c 0,3.6427 0.1825,5.9195 0.5469,6.8301 0.3642,0.9107 1.1528,1.3672 2.3671,1.3672 1.1838,0 1.9124,-0.4109 2.1856,-1.2305 0.3036,-0.8499 0.4551,-2.8838 0.4551,-6.1016 v -25.9082 c 0,-3.7337 -0.1351,-5.9959 -0.4082,-6.7851 -0.2733,-0.7892 -1.0348,-1.1836 -2.2793,-1.1836 z m 47.8125,0 c -1.275,0 -2.0636,0.3944 -2.3672,1.1836 -0.3035,0.7589 -0.457,2.8385 -0.457,6.2383 v 4.416 h 5.373 v -4.416 c 0,-3.1267 -0.1661,-5.1461 -0.5,-6.0567 -0.3339,-0.9107 -1.0168,-1.3652 -2.0488,-1.3652 z m -361.7227,5.6465 h 15.332 15.3301 v 0.2949 c 0,0.162 0.7036,0.2949 1.5645,0.2949 h 1.5644 l 0.5742,0.4317 c 0.3147,0.2381 0.8696,0.4333 1.2344,0.4433 0.3649,0 0.6641,0.1406 0.6641,0.3027 0,0.1621 0.3336,0.295 0.7441,0.295 0.4104,0 0.8247,0.2001 0.918,0.4433 0.093,0.2432 0.4243,0.4414 0.7363,0.4414 0.3121,0 0.643,0.2002 0.7363,0.4434 0.093,0.2432 0.2937,0.4414 0.4454,0.4414 0.6185,0 3.4941,2.9013 3.4941,3.5254 0,0.1691 0.2002,0.3066 0.4434,0.3066 0.2432,0 0.4414,0.2001 0.4414,0.4434 0,0.2433 0.1189,0.4414 0.2636,0.4414 0.1446,0 0.3457,0.3329 0.4473,0.7383 0.1018,0.4054 0.3155,0.7363 0.4746,0.7363 0.159,0 0.2891,0.3171 0.2891,0.7051 0,0.388 0.2001,0.782 0.4433,0.875 0.2432,0.093 0.4395,0.5056 0.4395,0.916 0,0.4105 0.1327,0.7461 0.2949,0.7461 0.1621,0 0.2949,0.3329 0.2949,0.7383 v 0.7363 h 0.4434 0.4414 v 1.1484 1.1465 l 0.4434,0.17 c 0.2432,0.093 0.4414,0.5054 0.4414,0.916 0,0.4104 0.1327,0.748 0.2949,0.748 0.1621,0 0.2949,0.3211 0.2949,0.7149 0,0.3939 0.2002,0.915 0.4434,1.1582 0.2432,0.2433 0.4414,0.7269 0.4414,1.0742 0,0.3475 0.2001,0.831 0.4433,1.0742 0.2431,0.2432 0.4414,0.8298 0.4414,1.3047 0,0.4748 0.1328,0.8633 0.295,0.8633 0.1621,0 0.2949,0.3329 0.2949,0.7382 v 0.7364 h 0.4414 0.4433 v 1.1484 1.1485 l 0.4415,0.1679 c 0.2432,0.093 0.4433,0.5076 0.4433,0.918 0,0.4105 0.1329,0.7441 0.2949,0.7441 0.1622,0 0.295,0.323 0.295,0.7168 0,0.3938 0.1982,0.915 0.4414,1.1582 0.2432,0.2433 0.4414,0.584 0.4414,0.7578 0,0.1736 0.1327,0.3164 0.2949,0.3164 0.1621,0 0.2949,0.1983 0.2949,0.4415 0,0.2432 0.1406,0.4433 0.3106,0.4433 0.1699,0 0.6145,0.331 0.9902,0.7363 0.3757,0.4054 0.8334,0.7383 1.0176,0.7383 0.1841,0 0.3359,0.1963 0.3359,0.4395 0,0.2433 0.1408,0.4433 0.3145,0.4433 0.4081,0 1.1601,0.75 1.1601,1.1582 0,0.1737 0.3309,0.3164 0.7363,0.3164 h 0.7364 v 0.4414 c 0,0.2432 0.1471,0.4434 0.3281,0.4434 0.1809,0 0.9632,0.6638 1.7363,1.4746 0.7733,0.8107 1.5535,1.4746 1.7344,1.4746 0.1809,0 0.3281,0.1983 0.3281,0.4414 v 0.4414 h 0.7383 0.7363 v 0.4434 c 0,0.2432 0.1427,0.4414 0.3164,0.4414 0.1736,0 0.5048,0.1903 0.7364,0.4219 0.2316,0.2316 0.4218,0.5626 0.4218,0.7363 0,0.1737 0.2003,0.3164 0.4434,0.3164 0.2433,0 0.4414,0.1982 0.4414,0.4414 0,0.2432 0.2001,0.4414 0.4434,0.4414 0.2432,0 0.4394,0.1261 0.4394,0.2774 0,0.1512 0.2899,0.366 0.6446,0.4785 0.3544,0.1125 1.068,0.6521 1.5839,1.1992 0.5158,0.547 1.088,0.9941 1.2715,0.9941 0.1835,0 0.334,0.2002 0.334,0.4434 0,0.2433 0.1982,0.4414 0.4414,0.4414 0.2433,0 0.4434,0.2003 0.4434,0.4434 0,0.2433 0.13,0.4414 0.289,0.4414 0.159,0 0.3728,0.331 0.4746,0.7363 0.1017,0.4054 0.3028,0.7363 0.4473,0.7363 0.1447,0 0.2637,1.1355 0.2637,2.5215 v 2.5195 l -0.7383,0.6836 c -0.4053,0.3757 -0.7363,0.8335 -0.7363,1.0176 0,0.1841 -0.2001,0.336 -0.4434,0.336 -0.2432,0 -0.4414,0.1962 -0.4414,0.4394 0,0.2433 -0.1981,0.4434 -0.4414,0.4434 -0.2432,0 -0.4434,0.1164 -0.4434,0.2578 0,0.1414 -0.531,0.3415 -1.1796,0.4453 -0.6486,0.1037 -1.1797,0.3203 -1.1797,0.4805 0,0.1601 -0.3309,0.291 -0.7364,0.291 -0.4054,0 -0.7363,-0.1308 -0.7363,-0.291 0,-0.1604 -0.531,-0.3768 -1.1797,-0.4805 -0.6485,-0.1038 -1.1797,-0.2902 -1.1797,-0.4141 0,-0.1238 -0.3308,-0.3083 -0.7363,-0.4101 -0.4052,-0.1014 -0.7383,-0.3155 -0.7383,-0.4746 0,-0.159 -0.1982,-0.2871 -0.4414,-0.2871 -0.2431,0 -0.4433,-0.2002 -0.4433,-0.4434 0,-0.2432 -0.1983,-0.4414 -0.4414,-0.4414 -0.2434,0 -0.4415,-0.1191 -0.4415,-0.2637 0,-0.1446 -0.3328,-0.3455 -0.7382,-0.4472 -0.4055,-0.1017 -0.7364,-0.3156 -0.7364,-0.4747 0,-0.1589 -0.1982,-0.289 -0.4414,-0.289 -0.2432,0 -0.4433,-0.2001 -0.4433,-0.4434 0,-0.2432 -0.1428,-0.4414 -0.3164,-0.4414 -0.1737,0 -0.5005,-0.1664 -0.7266,-0.3691 -0.8858,-0.7943 -1.298,-1.1055 -1.4648,-1.1055 -0.096,0 -0.4798,-0.331 -0.8555,-0.7363 -0.3757,-0.4054 -0.8355,-0.7383 -1.0195,-0.7383 -0.1842,0 -0.334,-0.1981 -0.334,-0.4414 v -0.4434 h -0.7383 -0.7363 v -0.4414 c 0,-0.2432 -0.15,-0.4414 -0.334,-0.4414 -0.1841,0 -0.6419,-0.3309 -1.0176,-0.7363 -0.3757,-0.4053 -0.8284,-0.7383 -1.0059,-0.7383 -0.1776,0 -0.6301,-0.3309 -1.0058,-0.7363 -0.3757,-0.4053 -0.8335,-0.7383 -1.0176,-0.7383 -0.1842,0 -0.3359,-0.1982 -0.3359,-0.4414 v -0.4434 h -0.7364 -0.7382 v -0.4414 c 0,-0.2433 -0.15,-0.4433 -0.334,-0.4433 -0.1841,0 -0.6418,-0.3311 -1.0176,-0.7364 -0.3757,-0.4054 -0.9551,-0.7363 -1.2871,-0.7363 -0.332,0 -0.6035,-0.1428 -0.6035,-0.3164 0,-0.4081 -0.75,-1.1582 -1.1582,-1.1582 -0.1737,0 -0.3164,-0.1982 -0.3164,-0.4414 0,-0.2432 -0.1982,-0.4434 -0.4414,-0.4434 -0.2433,0 -0.4434,-0.1981 -0.4434,-0.4414 0,-0.2432 -0.1981,-0.4414 -0.4414,-0.4414 -0.2457,0 -0.4434,-0.2622 -0.4434,-0.5898 0,-0.3243 -0.1307,-0.5899 -0.2929,-0.5899 -0.1621,0 -0.295,-0.2576 -0.295,-0.5703 0,-0.3127 -0.2001,-0.7666 -0.4433,-1.0097 -0.2432,-0.2433 -0.4414,-0.7031 -0.4414,-1.0215 0,-0.3186 -0.2002,-0.6551 -0.4434,-0.7481 -0.2432,-0.093 -0.4414,-0.5074 -0.4414,-0.9179 0,-0.4104 -0.1164,-0.7442 -0.2578,-0.7442 -0.1413,0 -0.3417,-0.5311 -0.4453,-1.1797 -0.1037,-0.6486 -0.3202,-1.1797 -0.4805,-1.1797 -0.1603,0 -0.289,-0.2754 -0.289,-0.6113 0,-0.3359 -0.2001,-0.8095 -0.4434,-1.0527 -0.2432,-0.2433 -0.4414,-0.6971 -0.4414,-1.0098 0,-0.3128 -0.1327,-0.5703 -0.2949,-0.5703 -0.1621,0 -0.295,-0.321 -0.295,-0.7148 0,-0.3938 -0.2,-0.9149 -0.4433,-1.1582 -0.2432,-0.2432 -0.4414,-0.7841 -0.4414,-1.2012 0,-0.4168 -0.1188,-0.7578 -0.2637,-0.7578 -0.3407,0 -0.6211,0.7438 -0.6211,1.6465 0,0.3921 -0.1132,0.7109 -0.2519,0.7109 -0.1387,0 -0.331,1.0258 -0.4258,2.2793 -0.095,1.2534 -0.3126,2.3278 -0.4844,2.3848 l -0.3125,0.1035 v 2.3105 2.3086 l -0.3594,0.1192 -0.3613,0.121 -0.1152,2.2618 c -0.063,1.2447 -0.211,2.2636 -0.3321,2.2636 -0.121,0 -0.2977,1.0259 -0.3925,2.2793 -0.095,1.2534 -0.3146,2.3259 -0.4864,2.3829 l -0.3125,0.1054 v 2.3086 2.3106 l -0.3593,0.1191 -0.3594,0.1191 -0.1153,2.2637 c -0.063,1.2447 -0.2128,2.2637 -0.3339,2.2637 -0.1212,0 -0.3114,1.2266 -0.4239,2.7265 -0.1124,1.4998 -0.3322,2.7722 -0.4863,2.8262 l -0.2793,0.098 v 6.1426 6.1425 l -0.334,0.1114 -0.332,0.1132 -0.1504,5.5118 c -0.083,3.0333 -0.2503,5.5175 -0.3691,5.5175 -0.1185,0 -0.2712,2.7455 -0.3418,6.0996 l -0.1289,6.0958 -0.3516,0.1171 -0.3516,0.1172 v 6.1446 6.1425 l -0.334,0.1075 -0.332,0.1132 -0.1504,5.5157 c -0.083,3.0334 -0.2448,5.5136 -0.3593,5.5136 -0.1145,0 -0.2842,2.6182 -0.377,5.8164 l -0.1699,5.8125 -0.3184,0.1075 -0.3183,0.1054 v 4.2207 4.2168 l 0.7382,0.1856 c 0.4053,0.1017 0.7364,0.3135 0.7364,0.4726 0,0.1591 0.3409,0.291 0.7578,0.2911 0.4169,0 0.958,0.1981 1.2012,0.4414 0.2432,0.2433 0.7505,0.4414 1.1269,0.4414 0.886,0 1.043,0.4694 1.043,3.1211 v 2.1875 h -9.877 -9.8769 v -14.1504 -14.1543 h -0.295 -0.2949 v -6.7285 c 0,-3.7029 -0.088,-13.9223 -0.1953,-22.7051 l -0.1953,-15.9688 h -1.1328 -1.1309 v 23.1446 23.1425 h -0.2949 -0.2949 v 13.711 13.709 h -9.875 -9.877 v -2.6172 -2.6153 l 1.1797,-0.1914 c 0.6486,-0.1038 1.1797,-0.3163 1.1797,-0.4765 0,-0.1602 0.3983,-0.295 0.8848,-0.295 0.4865,0 0.8847,-0.1281 0.8847,-0.2871 0,-0.159 0.3489,-0.3767 0.7774,-0.4843 l 0.7793,-0.1954 -0.1641,-4.1503 -0.164,-4.1504 -0.3204,-0.1075 -0.3183,-0.1074 v -6.1426 -6.1386 l -0.3496,-0.1192 -0.3477,-0.1132 -0.1308,-5.8047 c -0.073,-3.1928 -0.232,-5.8067 -0.3516,-5.8067 -0.1198,0 -0.2795,-2.4782 -0.3555,-5.5097 l -0.1386,-5.5118 -0.3418,-0.1171 -0.3438,-0.1133 v -6.1446 -6.1386 l -0.3437,-0.1172 -0.3418,-0.1113 -0.1407,-5.5137 c -0.076,-3.0314 -0.252,-5.5117 -0.3925,-5.5117 -0.1408,0 -0.2559,-4.2448 -0.2559,-9.4336 v -9.4336 h 0.2676 c 0.147,0 0.3115,-1.3513 0.3672,-3 l 0.1015,-2.9981 0.3692,-0.1211 0.3691,-0.1211 v -1.5722 c 0,-0.8648 0.1304,-1.616 0.291,-1.6699 0.1606,-0.054 0.3787,-0.928 0.4844,-1.9415 0.1057,-1.0134 0.3063,-1.8418 0.4453,-1.8418 0.139,0 0.2539,-0.7232 0.2539,-1.6035 v -1.5996 l 0.4414,-0.4433 0.4434,-0.4414 v -1.7657 -1.7636 l 0.3437,-0.1172 c 0.1941,-0.065 0.4043,-0.9165 0.4785,-1.9414 0.072,-1.0041 0.248,-1.8243 0.3907,-1.8243 0.1426,0 0.2597,-0.5984 0.2597,-1.3281 0,-0.7297 -0.1327,-1.3262 -0.2949,-1.3262 -0.1621,0 -0.2949,0.333 -0.2949,0.7383 v 0.7364 h -0.4414 -0.4414 v 1.1464 1.1504 l -0.4434,0.1661 c -0.2432,0.093 -0.4414,0.5094 -0.4414,0.9199 0,0.4105 -0.1326,0.7461 -0.2949,0.7461 -0.1621,0 -0.2949,0.319 -0.2949,0.7129 0,0.3938 -0.2002,0.9149 -0.4434,1.1582 -0.2432,0.2432 -0.4414,0.7268 -0.4414,1.0742 0,0.3474 -0.2003,0.833 -0.4434,1.0761 -0.2433,0.2433 -0.4414,0.6952 -0.4414,1.0079 0,0.3128 -0.1327,0.5703 -0.2949,0.5703 -0.1621,0 -0.2949,0.323 -0.2949,0.7168 0,0.3938 -0.1981,0.913 -0.4414,1.1562 -0.2432,0.2432 -0.4434,0.7306 -0.4434,1.0781 0,0.3473 -0.1982,0.8271 -0.4414,1.0704 -0.2431,0.2432 -0.4433,0.8337 -0.4433,1.3086 0,0.4749 -0.1328,0.8632 -0.295,0.8632 -0.1621,0 -0.2949,0.331 -0.2949,0.7364 v 0.7343 h -0.4414 -0.4433 v 1.0528 c 0,0.5791 -0.1963,1.2529 -0.4395,1.4961 -0.2432,0.2432 -0.4434,0.7009 -0.4434,1.0136 0,0.3127 -0.1327,0.5664 -0.2949,0.5664 -0.1621,0 -0.2949,0.3229 -0.2949,0.7168 0,0.3937 -0.1981,0.915 -0.4414,1.1582 -0.2432,0.2433 -0.4434,0.7269 -0.4434,1.0743 0,0.3476 -0.1981,0.829 -0.4414,1.0722 -0.2431,0.2433 -0.4433,0.7644 -0.4433,1.1582 0,0.3938 -0.1328,0.7168 -0.295,0.7168 -0.1622,0 -0.2949,0.4002 -0.2949,0.8867 v 0.8829 h -0.4414 -0.4433 v 1.1796 1.1797 h -0.4414 -0.4434 v 0.8828 c 0,0.4864 -0.1308,0.8868 -0.293,0.8868 -0.1621,0 -0.2949,0.3229 -0.2949,0.7168 0,0.3937 -0.2003,0.9111 -0.4434,1.1543 -0.2432,0.2432 -0.4414,0.7843 -0.4414,1.2011 0,0.4171 -0.13,0.7578 -0.289,0.7578 -0.159,0 -0.3729,0.3311 -0.4746,0.7364 -0.1019,0.4054 -0.3027,0.7383 -0.4473,0.7383 -0.1446,0 -0.2637,0.3329 -0.2637,0.7382 v 0.7364 h -0.4414 c -0.2431,0 -0.4414,0.1982 -0.4414,0.4414 0,0.2432 -0.2001,0.4414 -0.4433,0.4414 -0.2433,0 -0.4415,0.13 -0.4415,0.289 0,0.1591 -0.3328,0.3729 -0.7382,0.4746 -0.4054,0.1017 -0.7364,0.3047 -0.7364,0.4493 0,0.1446 -0.8639,0.2636 -1.9179,0.2636 -1.081,0 -1.9141,-0.1305 -1.9141,-0.2968 0,-0.1622 -0.3376,-0.295 -0.748,-0.295 -0.4105,0 -0.8228,-0.1982 -0.9161,-0.4414 -0.093,-0.2432 -0.2967,-0.4433 -0.4531,-0.4433 -0.3678,0 -1.1269,-0.7592 -1.1269,-1.127 0,-0.1565 -0.1982,-0.3582 -0.4414,-0.4512 -0.2433,-0.093 -0.4434,-0.442 -0.4434,-0.7714 0,-0.3294 -0.1326,-0.5957 -0.2949,-0.5957 h -0.2949 v -2.5079 -2.5039 h 0.2949 c 0.162,0 0.2949,-0.323 0.2949,-0.7168 0,-0.3937 0.2002,-0.9149 0.4434,-1.1582 0.2432,-0.2432 0.4414,-0.901 0.4414,-1.4628 v -1.0215 l 0.4414,-0.17 c 0.2432,-0.093 0.4433,-0.5075 0.4433,-0.9179 0,-0.4104 0.1327,-0.7442 0.295,-0.7442 0.162,0 0.2949,-0.3883 0.2949,-0.8632 0,-0.4749 0.1981,-1.0654 0.4414,-1.3086 0.2432,-0.2432 0.4433,-0.9151 0.4433,-1.4942 v -1.0547 h 0.4414 0.4434 v -0.8847 c 0,-0.4865 0.1308,-0.8828 0.293,-0.8828 0.1621,0 0.2949,-0.323 0.2949,-0.7168 0,-0.3938 0.1982,-0.9149 0.4414,-1.1582 0.2432,-0.2432 0.4434,-0.8576 0.4434,-1.3672 0,-0.5096 0.1982,-1.1259 0.4414,-1.3692 0.2432,-0.2432 0.4433,-0.6969 0.4433,-1.0097 0,-0.3126 0.1164,-0.5704 0.2578,-0.5704 0.1413,0 0.3416,-0.5272 0.4454,-1.1757 0.1037,-0.6487 0.3202,-1.1817 0.4804,-1.1817 0.1604,0 0.291,-0.4657 0.291,-1.0332 0,-0.5676 0.1308,-1.0312 0.2911,-1.0312 0.1603,0 0.3767,-0.5291 0.4804,-1.1778 0.1037,-0.6485 0.3039,-1.1796 0.4453,-1.1796 0.1413,0 0.2578,-0.4003 0.2578,-0.8868 v -0.8847 h 0.4415 0.4433 v -1.0528 c 0,-0.5791 0.1983,-1.249 0.4414,-1.4922 0.2433,-0.2432 0.4414,-0.8298 0.4414,-1.3046 0,-0.4749 0.1327,-0.8672 0.2949,-0.8672 0.162,0 0.295,-0.3339 0.295,-0.7442 0,-0.4105 0.1982,-0.8249 0.4414,-0.9179 l 0.4433,-0.1661 v -1.0039 c 0,-0.5501 0.1308,-1 0.2911,-1 0.1603,0 0.3767,-0.531 0.4804,-1.1796 0.1037,-0.6487 0.2876,-1.1797 0.4082,-1.1797 0.1209,0 0.3026,-0.5291 0.4063,-1.1778 0.1037,-0.6485 0.3222,-1.1797 0.4824,-1.1797 0.1604,0 0.2891,-0.3408 0.2891,-0.7578 0,-0.4169 0.2001,-0.9579 0.4433,-1.2011 0.2432,-0.2433 0.4414,-0.8298 0.4414,-1.3047 0,-0.4749 0.1327,-0.8614 0.2949,-0.8614 0.162,0 0.295,-0.3229 0.295,-0.7168 0,-0.3936 0.2002,-0.915 0.4433,-1.1582 0.2433,-0.2433 0.4414,-0.7841 0.4414,-1.2011 0,-0.4169 0.1307,-0.7578 0.291,-0.7578 0.1601,0 0.3768,-0.5311 0.4805,-1.1797 0.1037,-0.6486 0.2902,-1.1778 0.4141,-1.1778 0.1239,0 0.3083,-0.3329 0.4101,-0.7382 0.1017,-0.4054 0.3155,-0.7383 0.4746,-0.7383 0.159,0 0.2872,-0.1982 0.2872,-0.4414 0,-0.2432 0.13,-0.4414 0.289,-0.4414 0.159,0 0.3749,-0.331 0.4766,-0.7364 0.1018,-0.4054 0.3026,-0.7382 0.4472,-0.7382 0.1446,0 0.2618,-0.1983 0.2618,-0.4415 0,-0.2431 0.2002,-0.4453 0.4433,-0.4453 0.2432,0 0.4413,-0.1389 0.4414,-0.3125 0,-0.4082 0.7501,-1.1621 1.1582,-1.1621 0.1737,0 0.3164,-0.1962 0.3164,-0.4394 0,-0.2432 0.15,-0.4414 0.334,-0.4414 0.1842,0 0.6283,-0.3167 0.9864,-0.7032 0.3581,-0.3864 0.9374,-0.7933 1.2871,-0.9043 0.3496,-0.1111 0.6367,-0.3273 0.6367,-0.4785 0,-0.1512 0.1982,-0.2754 0.4414,-0.2754 0.2432,0 0.4414,-0.1151 0.4414,-0.2597 0,-0.1446 0.331,-0.3475 0.7363,-0.4492 0.4054,-0.1017 0.7383,-0.3156 0.7383,-0.4747 0,-0.159 0.4736,-0.2871 1.0527,-0.2871 0.5791,0 1.2529,-0.2021 1.4961,-0.4453 l 0.4414,-0.4394 h 1.6016 c 0.8803,0 1.5996,-0.1329 1.5996,-0.295 z m 124.709,2.3593 c 0.6486,0 1.1797,0.1329 1.1797,0.295 0,0.162 0.4775,0.2949 1.0605,0.2949 1.4273,0 3.6563,1.2438 3.6563,2.041 0,0.1737 0.2001,0.3164 0.4433,0.3164 0.2432,0 0.4414,0.1498 0.4414,0.334 0,0.1842 0.3311,0.6438 0.7364,1.0195 0.4054,0.3756 0.7363,0.8977 0.7363,1.1602 0,0.2626 0.2003,0.6747 0.4434,0.918 0.2432,0.2431 0.4414,0.7643 0.4414,1.1582 0,0.3937 0.1325,0.7168 0.2949,0.7168 0.1621,0 0.2949,0.2556 0.2949,0.5683 0,0.3127 0.2001,0.7684 0.4434,1.0117 0.2432,0.2432 0.4414,0.9151 0.4414,1.4942 0,0.5791 0.1325,1.0527 0.2929,1.0527 0.1601,0 0.3748,0.5311 0.4786,1.1797 0.1038,0.6487 0.3038,1.1797 0.4453,1.1797 0.1414,0 0.2578,0.5211 0.2578,1.1582 0,0.637 0.1982,1.3563 0.4414,1.5996 l 0.4433,0.4434 v 1.4628 1.4629 l 0.4415,0.17 0.4433,0.1718 v 1.4825 c 0,0.8158 0.1326,1.4843 0.2949,1.4843 0.1622,0 0.295,0.5194 0.295,1.1563 0,0.6371 0.1983,1.3583 0.4414,1.6015 l 0.4414,0.4414 v 1.4708 c 0,0.8286 0.1468,1.52 0.334,1.582 0.1828,0.061 0.3972,0.8001 0.4785,1.6445 0.081,0.8444 0.2463,1.5352 0.3672,1.5352 0.121,0 0.286,0.6927 0.3671,1.5371 0.081,0.8443 0.2978,1.5835 0.4805,1.6445 0.1829,0.061 0.332,0.4323 0.332,0.8242 0,0.3918 0.1191,0.7129 0.2637,0.7129 0.1447,0 0.3456,0.3309 0.4473,0.7363 0.1017,0.4053 0.3051,0.7383 0.4512,0.7383 0.1462,0 0.352,0.3984 0.4589,0.8848 0.1068,0.4864 0.3175,0.8828 0.4668,0.8828 0.1492,0 0.2715,0.4538 0.2715,1.0078 0,0.554 0.1645,1.063 0.3672,1.1309 l 0.3691,0.123 0.1036,2.7012 0.1015,2.7031 -11.4531,-0.012 -11.4531,-0.01 -0.3574,-0.4062 c -0.1962,-0.2232 -0.4416,-0.7506 -0.5469,-1.1699 -0.1053,-0.4192 -0.3086,-0.7618 -0.4531,-0.7618 -0.1447,0 -0.2637,-0.4736 -0.2637,-1.0527 0,-0.5791 -0.2001,-1.2508 -0.4434,-1.4941 -0.2432,-0.2431 -0.4414,-0.8318 -0.4414,-1.3067 0,-0.4748 -0.1328,-0.8633 -0.2949,-0.8633 -0.1621,0 -0.2949,-0.6639 -0.2949,-1.4746 0,-0.8108 0.1328,-1.4726 0.2949,-1.4726 0.1621,0 0.2949,-0.3903 0.2949,-0.8652 0,-0.4748 0.1982,-1.0615 0.4414,-1.3047 0.2433,-0.2432 0.4433,-0.7268 0.4434,-1.0743 0,-0.3475 0.1982,-0.831 0.4414,-1.0742 0.2432,-0.2432 0.4433,-0.7644 0.4433,-1.1582 0,-0.3938 0.1329,-0.7148 0.295,-0.7148 0.1621,0 0.2949,-0.2576 0.2949,-0.5703 0,-0.3127 0.1982,-0.7666 0.4414,-1.0098 0.2432,-0.2432 0.4434,-0.7267 0.4434,-1.0742 0,-0.3475 0.1981,-0.8309 0.4414,-1.0742 0.2432,-0.2432 0.4414,-0.7645 0.4414,-1.1582 0,-0.3939 0.1326,-0.7168 0.2949,-0.7168 0.1621,0 0.2949,-0.3337 0.2949,-0.7442 0,-0.4105 0.1983,-0.8249 0.4414,-0.9179 l 0.4434,-0.168 v -1.0235 c 0,-0.5618 0.1982,-1.2196 0.4414,-1.4628 0.6195,-0.6195 0.5507,-1.6496 -0.1504,-2.25 -1.1183,-0.9575 -2.6484,-0.4005 -2.6484,0.9648 0,0.3476 -0.2002,0.831 -0.4434,1.0742 -0.2432,0.2432 -0.4414,0.7645 -0.4414,1.1582 0,0.3938 -0.1327,0.7168 -0.2949,0.7168 -0.1621,0 -0.295,0.3964 -0.295,0.8828 v 0.8848 h -0.4433 -0.4414 v 1.1797 1.1797 h -0.4434 -0.4414 v 0.7383 c 0,0.4054 -0.1326,0.7363 -0.2949,0.7363 -0.1621,0 -0.2949,0.3884 -0.2949,0.8633 0,0.4748 -0.2002,1.0614 -0.4434,1.3046 -0.2432,0.2431 -0.4414,0.7269 -0.4414,1.0743 0,0.3475 -0.2003,0.831 -0.4434,1.0742 -0.2433,0.2432 -0.4414,0.6971 -0.4414,1.0098 0,0.3127 -0.1326,0.5703 -0.2949,0.5703 -0.162,0 -0.2949,0.323 -0.2949,0.7168 0,0.3938 -0.1981,0.913 -0.4414,1.1562 -0.2432,0.2433 -0.4434,0.586 -0.4434,0.7598 0,0.1736 -0.1981,0.3164 -0.4414,0.3164 -0.2431,0 -0.4414,0.1301 -0.4414,0.289 0,0.159 -0.3309,0.3709 -0.7363,0.4727 -0.4053,0.1017 -0.7383,0.3046 -0.7383,0.4492 0,0.1446 -0.321,0.2617 -0.7129,0.2617 -0.3918,0 -0.7663,0.1664 -0.834,0.3692 l -0.123,0.3672 -12.4375,0.084 -12.4375,0.084 -0.1738,-0.4531 -0.1739,-0.4492 h -0.8672 -0.8652 l -0.6836,-0.7383 c -0.3756,-0.4054 -0.8336,-0.7363 -1.0176,-0.7363 -0.1842,0 -0.3359,-0.2001 -0.3359,-0.4434 0,-0.2432 -0.1307,-0.4414 -0.291,-0.4414 -0.1604,0 -0.3768,-0.5311 -0.4805,-1.1797 -0.1037,-0.6486 -0.3019,-1.1797 -0.4433,-1.1797 -0.1415,0 -0.2579,-0.531 -0.2579,-1.1796 0,-0.6486 0.1329,-1.1778 0.295,-1.1778 0.1621,0 0.2949,-0.333 0.2949,-0.7383 v -0.7363 h 0.4414 c 0.2457,0 0.4414,-0.2623 0.4414,-0.5898 0,-0.6887 0.8558,-1.6257 1.7402,-1.9063 0.3403,-0.108 0.6192,-0.3213 0.6192,-0.4726 0,-0.1512 0.5191,-0.2754 1.1543,-0.2754 0.635,0 1.1989,-0.1349 1.2539,-0.3008 l 0.1015,-0.3027 5.8223,-0.1875 c 3.2013,-0.1029 5.8203,-0.2991 5.8203,-0.4356 0,-0.1365 1.7259,-0.248 3.8379,-0.248 h 3.8399 l 0.1777,-0.8848 c 0.097,-0.4864 0.2774,-0.8828 0.3984,-0.8828 0.1213,0 0.3045,-0.5311 0.4082,-1.1797 0.1038,-0.6486 0.3204,-1.1797 0.4805,-1.1797 0.1604,0 0.2891,-0.4735 0.2891,-1.0527 0,-0.579 0.2001,-1.2509 0.4433,-1.4942 0.2433,-0.2431 0.4414,-0.7644 0.4414,-1.1582 0,-0.3938 0.1326,-0.7168 0.2949,-0.7168 0.162,0 0.295,-0.3883 0.295,-0.8632 0,-0.4749 0.2003,-1.0635 0.4433,-1.3067 0.2433,-0.2433 0.4414,-0.9012 0.4414,-1.4629 v -1.0215 l 0.4434,-0.1679 c 0.2432,-0.093 0.4414,-0.5075 0.4414,-0.918 0,-0.4105 0.1326,-0.7461 0.2949,-0.7461 0.1621,0 0.2949,-0.3884 0.2949,-0.8633 0,-0.4749 0.2002,-1.0614 0.4434,-1.3047 0.2432,-0.2432 0.4414,-0.8356 0.4414,-1.3164 v -0.873 l 0.4434,-0.1719 c 0.2432,-0.093 0.4414,-0.5037 0.4414,-0.9141 0,-0.4104 0.1326,-0.748 0.2949,-0.748 0.1621,0 0.2949,-0.1982 0.2949,-0.4414 0,-0.2433 0.1983,-0.4434 0.4414,-0.4434 h 0.4434 v -0.7363 -0.7383 h 0.4414 c 0.2432,0 0.4414,-0.1982 0.4414,-0.4414 0,-0.2432 0.1429,-0.4414 0.3164,-0.4414 0.4082,0 1.1582,-0.75 1.1582,-1.1582 0,-0.1737 0.2993,-0.3162 0.6641,-0.3262 0.3649,0 0.9195,-0.2035 1.2343,-0.4414 0.3148,-0.2381 1.0797,-0.4336 1.6973,-0.4336 0.6176,0 1.1231,-0.1327 1.1231,-0.2949 0,-0.1621 0.5291,-0.2929 1.1777,-0.293 z m -82.8438,43.9278 h 0.3145 c 0.1737,0 0.5025,0.1645 0.7285,0.3672 0.8858,0.7944 1.2981,1.1054 1.4649,1.1054 0.096,0 0.4652,0.3145 0.8222,0.6973 0.3572,0.3828 0.9477,0.7898 1.3125,0.9043 0.3648,0.1144 0.6621,0.3312 0.6621,0.4824 0,0.1512 0.2002,0.2754 0.4434,0.2754 0.2433,0 0.4414,0.1981 0.4414,0.4414 0,0.2432 0.1327,0.4414 0.2949,0.4414 0.1622,0 0.2949,0.1327 0.2949,0.2949 v 0.295 h -3.3886 -3.3907 v -2.6524 z m -7.9609,7.664 h 9.4316 9.4356 v 0.4434 0.4414 h 0.7344 0.7382 v 0.4414 c 0,0.2433 0.1983,0.4434 0.4415,0.4434 0.2432,0 0.4433,0.1327 0.4433,0.2949 0,0.162 0.1982,0.2949 0.4414,0.2949 0.2432,0 0.4434,0.1983 0.4434,0.4414 v 0.4414 h 0.7363 0.7363 v 0.4434 c 0,0.2432 0.1518,0.4414 0.336,0.4414 0.1842,0 0.6419,0.333 1.0176,0.7383 0.3757,0.4053 0.8282,0.7363 1.0058,0.7363 0.1777,0 0.6301,0.3309 1.0059,0.7363 0.3757,0.4054 0.8334,0.7383 1.0175,0.7383 0.1841,0 0.334,0.1982 0.334,0.4414 0,0.2432 0.1448,0.4434 0.3184,0.4434 0.5626,0 1.1562,0.8222 1.1562,1.5996 0,0.417 -0.1325,0.7598 -0.2949,0.7598 -0.162,0 -0.2949,0.3336 -0.2949,0.7441 0,0.4104 -0.1981,0.823 -0.4414,0.916 l -0.4434,0.1699 v 1 c 0,0.5502 -0.1222,1.002 -0.2715,1.002 -0.1492,0 -0.3579,0.3963 -0.4648,0.8828 -0.1067,0.4865 -0.3155,0.8848 -0.4648,0.8848 -0.1492,0 -0.2715,0.323 -0.2715,0.7168 0,0.3937 -0.1982,0.915 -0.4414,1.1582 -0.2433,0.2432 -0.4434,0.7822 -0.4434,1.1992 0,0.4169 -0.1306,0.7578 -0.291,0.7578 -0.1603,0 -0.3767,0.5311 -0.4805,1.1797 -0.1038,0.6486 -0.2901,1.1797 -0.414,1.1797 -0.1238,0 -0.3084,0.3329 -0.4102,0.7383 l -0.1836,0.7363 h -5.7441 -5.7442 v 0.7363 c 0,0.4053 0.1151,0.7383 0.2559,0.7383 0.1409,0 0.3319,0.5604 0.4238,1.2461 0.092,0.6856 0.3097,1.2936 0.4824,1.3515 0.1725,0.058 0.3125,0.7456 0.3125,1.5293 0,0.7948 0.1467,1.4732 0.3321,1.5352 0.1829,0.061 0.3992,0.802 0.4804,1.6465 0.081,0.8444 0.2627,1.5351 0.4043,1.5351 0.1415,0 0.2579,0.3884 0.2579,0.8633 0,0.4749 0.1981,1.0634 0.4414,1.3067 l 0.4433,0.4414 v 1.3691 1.3672 l 0.4414,0.4434 c 0.2433,0.2433 0.4434,0.9645 0.4434,1.6015 0,0.637 0.1327,1.1563 0.2949,1.1563 0.1621,0 0.2949,0.5356 0.2949,1.1894 v 1.1895 l 0.4414,0.1699 0.4434,0.168 v 1.4433 c 0,0.7934 0.1289,1.4434 0.2891,1.4434 0.1601,0 0.3767,0.531 0.4804,1.1797 l 0.1895,1.1777 h 16.0293 16.0293 v -0.418 c 0,-0.2297 0.1512,-0.4663 0.334,-0.5273 0.1828,-0.061 0.3974,-0.802 0.4785,-1.6465 0.081,-0.8444 0.2468,-1.5351 0.3672,-1.5351 0.1203,0 0.2888,-0.6259 0.375,-1.3907 0.086,-0.765 0.3024,-1.439 0.4804,-1.498 0.1781,-0.059 0.3242,-0.6167 0.3242,-1.2383 0,-0.6216 0.1493,-1.1812 0.3321,-1.2422 0.1826,-0.061 0.3992,-0.8021 0.4804,-1.6465 0.081,-0.8444 0.2627,-1.5351 0.4043,-1.5351 0.1415,0 0.2579,-0.5212 0.2579,-1.1582 0,-0.637 0.1981,-1.3564 0.4414,-1.5996 0.2432,-0.2433 0.4433,-0.925 0.4433,-1.5157 0,-0.5907 0.1982,-1.2742 0.4414,-1.5175 0.2432,-0.2432 0.4434,-0.9628 0.4434,-1.5997 0,-0.637 0.1329,-1.1582 0.2949,-1.1582 0.1621,0 0.2949,-0.5212 0.2949,-1.1582 0,-0.6371 0.1981,-1.3584 0.4414,-1.6015 0.2482,-0.2483 0.4434,-0.9687 0.4434,-1.6426 v -1.1992 h -5.4551 -5.4551 v -0.2949 c 0,-0.1621 -0.1982,-0.295 -0.4414,-0.295 h -0.4433 v -0.7578 c 0,-0.417 -0.1982,-0.9559 -0.4414,-1.1992 -0.2432,-0.2432 -0.4434,-0.7664 -0.4434,-1.1601 0,-0.3938 -0.1328,-0.7168 -0.2949,-0.7168 -0.1621,0 -0.2949,-0.3965 -0.2949,-0.8829 v -0.8847 h -0.4414 -0.4434 v -1.1797 -1.1797 h -0.4414 -0.4414 v -0.8828 c 0,-0.4865 -0.1328,-0.8848 -0.2949,-0.8848 -0.1621,0 -0.295,-0.323 -0.295,-0.7168 0,-0.3938 -0.1982,-0.9149 -0.4414,-1.1582 -0.2432,-0.2432 -0.4433,-0.7724 -0.4433,-1.1758 0,-0.4035 -0.1666,-0.8093 -0.3692,-0.9043 l -0.3672,-0.1718 0.3672,-0.1739 c 0.2027,-0.095 0.3692,-0.3582 0.3692,-0.5878 0,-0.2297 0.2,-0.418 0.4433,-0.418 0.2431,0 0.4414,-0.1518 0.4414,-0.336 0,-0.1842 0.3309,-0.6417 0.7364,-1.0175 l 0.7363,-0.6817 v -0.8691 -0.8672 l 0.4434,-0.168 0.4414,-0.1699 v -1.748 -1.7442 l 0.4687,-0.1797 c 0.2566,-0.099 19.1517,-0.1797 41.9902,-0.1797 h 41.5235 l 0.4629,0.4629 0.4629,0.4629 v 2.3379 2.3379 h 1.4746 1.4746 v -0.7129 c 0,-0.3921 0.081,-0.9232 0.1797,-1.1797 l 0.1797,-0.4648 h 1 1 v 1.1777 1.1797 h 0.4433 0.4395 v -0.7578 c 0,-0.9672 0.6343,-1.5996 1.6015,-1.5996 h 0.7578 v 0.4414 c 0,0.2431 0.13,0.4414 0.2891,0.4414 0.159,0 0.373,0.333 0.4746,0.7383 0.2364,0.9417 0.711,0.9579 0.711,0.023 0,-1.109 0.306,-1.6445 0.9375,-1.6445 0.8019,0 1.4218,0.6967 1.4218,1.5996 v 0.7578 h 0.4414 0.4414 v -1.1797 -1.1777 h 1.1797 1.1797 v 1.1777 1.1797 h 0.4414 0.4434 v -0.7363 c 0,-0.4053 0.1327,-0.7383 0.2949,-0.7383 0.162,0 0.2948,-0.1982 0.2949,-0.4414 v -0.4414 h 0.8848 0.8828 v 0.4414 c 0,0.2432 0.1329,0.4414 0.2949,0.4414 0.1622,0 0.295,0.333 0.295,0.7383 v 0.7363 h 1.0332 1.0312 l 0.5898,-0.5898 0.5879,-0.5899 v -1.4726 -1.4746 h 1.1797 1.1797 v 2.0625 c 0,1.1526 -0.1273,2.0644 -0.289,2.0644 -0.159,0 -0.3686,0.3216 -0.4668,0.7129 l -0.1797,0.7109 -0.711,0.1778 c -0.3911,0.099 -0.7129,0.3096 -0.7129,0.4687 0,0.159 -0.7293,0.2891 -1.6211,0.2891 h -1.621 v 14.4668 14.4668 l -0.42,0.4218 c -0.5389,0.539 -1.5659,0.5404 -2.1035,0 l -0.418,-0.4179 -0.078,-14.0762 -0.076,-14.0781 -0.3691,-0.1231 -0.3672,-0.123 v 14.6191 14.6172 h -1.1797 -1.1797 v -14.8887 -14.8886 h -0.2636 c -0.5644,0 -0.6211,1.3983 -0.6211,15.3554 v 14.4219 h -1.1797 -1.1797 v -14.4453 -14.4473 h -0.4414 -0.4434 v 14.0039 14.004 h -0.2929 c -0.1621,0 -0.295,0.2 -0.295,0.4433 v 0.4414 h -1.1796 -1.1797 v -14.8887 c 0,-13.5114 -0.1364,-16.3173 -0.6973,-14.2246 -0.098,0.3648 -0.1836,7.0649 -0.1836,14.8887 v 14.2246 h -1.1777 -1.1797 v -14.8887 -14.8886 h -1.4746 -1.4727 v 16.8047 16.8046 h 11.6211 c 6.3916,0 11.8295,0.081 12.086,0.1797 l 0.4668,0.1778 v 21.0508 21.0468 h -80.4864 -80.4863 v -2.209 c 0,-1.2162 0.1153,-2.2109 0.2559,-2.2109 0.1407,0 0.3166,-2.4803 0.3925,-5.5117 l 0.1387,-5.5098 0.3438,-0.1152 0.3437,-0.1152 v -6.1426 -6.1426 l 0.332,-0.1094 0.334,-0.1113 0.1504,-5.5156 c 0.083,-3.0334 0.2453,-5.5157 0.3613,-5.5157 0.1159,0 0.2794,-2.7475 0.3633,-6.1054 l 0.1543,-6.1035 0.3301,-0.1114 0.332,-0.1113 v -5.8457 -5.8477 l 0.334,-0.1113 0.334,-0.1113 0.1484,-5.5156 c 0.083,-3.0334 0.2478,-5.5137 0.3653,-5.5137 0.1175,0 0.2797,-1.3535 0.3593,-3.0078 l 0.1446,-3.0078 0.3379,-0.1133 0.3359,-0.1113 v -1.5977 z m 159.4629,8.6387 h 19.9648 c 5.3994,0 9.5436,0.4239 12.4317,1.2715 2.9194,0.8476 5.1009,2.0709 6.5449,3.6719 1.4754,1.601 2.4645,3.5482 2.9668,5.8398 0.5336,2.2602 0.8008,5.7773 0.8008,10.5488 v 6.6387 c 0,4.8657 -0.5013,8.4118 -1.5059,10.6406 -1.0045,2.2289 -2.8589,3.94 -5.5586,5.1329 -2.6683,1.1929 -6.1679,1.791 -10.5,1.791 h -5.3203 v 30.7011 h -19.8242 z m 82.3574,0 h 19.5879 v 9.9356 h -19.5879 z m -204.6191,1.5235 c 0.6339,-0.096 1.9334,0.777 2.1758,1.7421 0.1066,0.425 0.3103,0.7735 0.455,0.7735 0.1445,-1e-4 0.2637,0.3408 0.2637,0.7578 0,0.4169 0.1982,0.958 0.4414,1.2012 0.2433,0.2433 0.4434,0.7644 0.4434,1.1582 0,0.3938 0.1328,0.7148 0.2949,0.7148 0.1621,0 0.2949,0.3357 0.2949,0.7461 0,0.4105 0.1982,0.823 0.4414,0.916 l 0.4434,0.1699 v 1.1485 1.1465 h 0.4414 0.4433 v 0.7382 c 0,0.4054 0.1309,0.7364 0.293,0.7364 0.1622,0 0.2949,0.3329 0.2949,0.7383 v 0.7363 h -7.8125 -7.8125 v -1.0528 c 0,-0.5789 0.1982,-1.2509 0.4414,-1.4941 0.2433,-0.2433 0.4434,-0.7664 0.4434,-1.1601 0,-0.3938 0.1327,-0.7168 0.2949,-0.7168 0.1624,0 0.2949,-0.2539 0.2949,-0.5665 0,-0.3127 0.1982,-0.7685 0.4415,-1.0117 0.2432,-0.2432 0.4414,-0.9149 0.4414,-1.4941 v -1.0527 h 0.4433 0.4414 v -0.7383 c 0,-0.4053 0.1326,-0.7364 0.2949,-0.7364 0.1623,0 0.295,-0.3883 0.295,-0.8632 0,-0.4749 0.2001,-1.0635 0.4433,-1.3067 0.2431,-0.2432 0.4414,-0.584 0.4414,-0.7578 0,-0.1736 0.3984,-0.3144 0.8848,-0.3144 0.4865,0 0.8848,0.1308 0.8848,0.2929 0,0.1621 0.4638,0.2949 1.0312,0.2949 0.5676,0 1.0313,-0.1326 1.0313,-0.2949 0,-0.2805 0.1383,-0.4191 0.3496,-0.4511 z m 200.3808,11.0957 v 21.9902 c -3.4845,0 -6.0433,0.4724 -7.6757,1.4141 -1.6324,0.9418 -2.637,2.258 -3.0137,3.9531 -0.3767,1.6637 -0.5645,5.5254 -0.5645,11.584 v 24.6757 h -19.0234 v -62.4863 h 19.0234 l -0.7539,8.1934 c 2.7625,-5.8702 6.7653,-8.9788 12.0078,-9.3242 z m 61.3555,0 c 5.0855,0 9.0884,2.3555 12.0078,7.0644 1.601,-2.3545 3.405,-4.1139 5.4141,-5.2754 2.0091,-1.1929 4.237,-1.789 6.6855,-1.789 3.2334,0 5.9026,0.7857 8.0059,2.3554 2.1347,1.5695 3.5012,3.4994 4.0977,5.791 0.5965,2.2602 0.8945,5.9476 0.8945,11.0645 v 44.4062 h -18.459 v -40.7324 c 0,-5.3366 -0.1879,-8.633 -0.5645,-9.8886 -0.3454,-1.287 -1.1776,-1.9297 -2.496,-1.9297 -1.3499,0 -2.2287,0.6271 -2.6368,1.8828 -0.3767,1.2557 -0.5664,4.5675 -0.5664,9.9355 v 40.7324 h -18.457 v -39.6953 c 0,-6.1214 -0.1588,-9.7952 -0.4727,-11.0195 -0.2824,-1.2242 -1.0974,-1.8359 -2.4472,-1.8359 -0.8477,0 -1.5695,0.3289 -2.166,0.9882 -0.5965,0.6278 -0.9255,1.4138 -0.9883,2.3555 -0.062,0.9104 -0.096,2.8711 -0.096,5.8848 v 43.3222 h -18.459 v -62.4863 h 18.791 l -0.332,5.9336 c 1.4754,-2.3545 3.2349,-4.1139 5.2754,-5.2754 2.0405,-1.1929 4.3631,-1.789 6.9687,-1.789 z m 64.1348,0 c 5.3366,0 9.7305,1.02 13.1836,3.0605 3.4845,2.0091 5.9176,4.6938 7.2988,8.0527 1.4127,3.3276 2.1191,8.0195 2.1191,14.0782 v 8.289 h -24.6269 v 13.5137 c 0,2.8253 0.2033,4.6467 0.6113,5.4629 0.4082,0.8162 1.192,1.2226 2.3535,1.2226 1.444,0 2.4022,-0.5323 2.8731,-1.5996 0.5022,-1.0988 0.7539,-3.2027 0.7539,-6.3105 v -8.2402 h 18.0351 v 4.6152 c 0,3.8612 -0.2516,6.8285 -0.7539,8.9004 -0.4709,2.0717 -1.6012,4.2842 -3.3906,6.6386 -1.7893,2.3543 -4.0638,4.1275 -6.8262,5.3204 -2.7311,1.1615 -6.1687,1.7421 -10.3125,1.7422 -4.018,0 -7.5662,-0.5807 -10.6425,-1.7422 -3.0765,-1.1615 -5.4786,-2.7468 -7.2051,-4.7559 -1.6952,-2.0405 -2.8721,-4.2684 -3.5313,-6.6855 -0.6592,-2.4487 -0.9882,-5.9967 -0.9882,-10.6426 v -18.2227 c 0,-5.4622 0.7374,-9.7631 2.2128,-12.9023 1.4755,-3.1705 3.893,-5.5882 7.252,-7.252 3.3589,-1.6952 7.2205,-2.5429 11.584,-2.5429 z m -183.7852,0.4238 v 19.4004 c 0.5651,0.032 1.0509,0.047 1.459,0.047 1.8208,0 3.077,-0.4395 3.7676,-1.3184 0.7221,-0.9104 1.082,-2.7782 1.082,-5.6035 v -6.2617 c 0,-2.6055 -0.4084,-4.3012 -1.2246,-5.086 -0.8162,-0.7848 -2.5098,-1.1777 -5.084,-1.1777 z m 62.5332,0.707 h 19.5879 v 62.4863 h -19.5879 z m -224.6836,4.4395 h 3.2246 3.2246 v 0.4179 c 0,0.2297 0.1484,0.4683 0.3301,0.5293 l 0.3281,0.1075 0.039,1.7597 0.039,1.7559 -2.9864,0.084 -2.9863,0.084 -0.1836,-0.4765 c -0.1004,-0.262 -0.1816,-0.7873 -0.1816,-1.166 0,-0.3785 -0.1131,-0.7312 -0.25,-0.7852 -0.1369,-0.054 -0.3258,-0.595 -0.4219,-1.2031 z m 10.2813,0 h 3.5371 3.539 v 2.1797 2.1796 l -0.4668,0.1797 c -0.2565,0.098 -1.6159,0.1721 -3.0214,0.1621 l -2.5567,-0.016 -0.5156,-0.5215 -0.5156,-0.5234 v -1.8184 z m 10.3183,0 h 3.5391 3.5371 v 0.7382 c 0,0.4054 -0.1231,0.7364 -0.2734,0.7364 -0.1506,0 -0.3652,0.7293 -0.4766,1.6211 l -0.2031,1.623 h -3.0606 -3.0625 v -2.3594 z m 10.3614,0 h 3.3691 3.3691 v 0.4433 c 0,0.2432 -0.1326,0.4414 -0.2949,0.4414 -0.162,0 -0.2949,0.5985 -0.2949,1.3282 v 1.3261 l -0.5898,0.5899 -0.5899,0.5898 -2.5781,-0.01 -2.5801,-0.012 -0.3691,-0.4199 c -0.4279,-0.486 -0.4847,-1.0332 -0.1075,-1.0332 0.1435,0 0.3536,-0.7312 0.4649,-1.623 z m 315.8672,5.4961 c -1.3185,0 -2.1334,0.4084 -2.4473,1.2246 -0.3139,0.7849 -0.4707,2.9352 -0.4707,6.4511 v 4.5664 h 5.5566 v -4.5664 c 0,-3.2333 -0.1722,-5.3218 -0.5175,-6.2636 -0.3454,-0.9417 -1.0538,-1.4121 -2.1211,-1.4121 z m -342.0352,2.4648 h 3.0586 l 0.1308,1.793 0.129,1.791 0.4121,0.2559 c 0.2271,0.1404 0.3079,0.3636 0.1777,0.4941 -0.3118,0.3116 -4.9879,0.5007 -5.2734,0.2129 -0.1217,-0.1225 -0.2227,-0.4664 -0.2227,-0.7637 0,-0.2972 -0.1131,-0.541 -0.2539,-0.541 -0.1409,0 -0.3318,-0.5604 -0.4238,-1.2461 -0.092,-0.6855 -0.3099,-1.2926 -0.4825,-1.3496 -1.088,-0.3627 0.1162,-0.6465 2.7481,-0.6465 z m 6.373,0 h 3.0957 3.0957 v 2.1797 2.1797 l -0.4668,0.1797 c -0.2565,0.098 -1.4493,0.1777 -2.6503,0.1777 h -2.1836 l -0.1875,-1.1797 c -0.1038,-0.6487 -0.304,-1.1777 -0.4453,-1.1777 -0.1413,0 -0.2579,-0.531 -0.2579,-1.1797 z m 9.4336,0 h 2.8008 2.8027 v 1.8965 1.8945 l -0.4648,0.4629 -0.4629,0.4629 h -2.3379 -2.3379 v -2.3574 z m 9.4356,0 h 2.8008 2.8007 v 0.4219 c 0,0.2317 -0.2001,0.62 -0.4433,0.8633 l -0.4414,0.4414 v 1.3144 1.3125 l -0.6641,0.1778 c -1.1211,0.3005 -4.5965,0.2058 -4.8047,-0.1309 -0.2738,-0.4431 0.1426,-3.5156 0.4766,-3.5156 0.1506,0 0.2754,-0.2002 0.2754,-0.4434 z m -25.9453,7.6641 h 2.3593 2.3594 v 1.1543 c 0,0.6351 0.113,1.1999 0.252,1.2539 0.139,0.054 0.3434,0.595 0.455,1.2031 l 0.2032,1.1055 -2.0039,-0.01 -2.0039,-0.012 -0.3184,-0.3672 c -0.1757,-0.2012 -0.4056,-0.8926 -0.5098,-1.5352 -0.1042,-0.6426 -0.3262,-1.2125 -0.4922,-1.2675 -0.1659,-0.055 -0.3007,-0.4206 -0.3007,-0.8125 z m 8.5507,0 h 1.8907 c 1.0407,0 2.1028,0.081 2.3593,0.1797 l 0.4668,0.1796 v 2.1797 2.1797 h -2.3593 -2.3575 v -2.3594 z m 7.959,0 h 2.3594 2.3594 v 1.623 c 0,0.8919 -0.1328,1.6211 -0.2949,1.6211 -0.1621,0 -0.295,0.3329 -0.295,0.7383 v 0.7363 h -2.0644 -2.0645 v -2.3594 z m 7.9571,0 h 2.3984 2.3965 l -0.168,1.248 c -0.092,0.6857 -0.3079,1.2946 -0.4805,1.3516 -0.1726,0.057 -0.3144,0.5572 -0.3144,1.1113 v 1.0078 h -2.1016 -2.1015 l 0.1855,-1.1074 c 0.1004,-0.6081 0.1856,-1.6683 0.1856,-2.3574 z m -100.8203,56.6113 h 448.2539 v 28.0957 h -448.2539 z m 173.5839,3.2207 c -1.754,0 -3.3001,0.2852 -4.6425,0.8535 -1.0092,0.4213 -1.9405,1.0675 -2.793,1.9395 -0.8426,0.8721 -1.5101,1.8576 -2,2.955 -0.6565,1.4893 -0.9844,3.3305 -0.9844,5.5254 0,3.4294 0.9448,6.1243 2.836,8.084 1.8909,1.9499 4.4404,2.9258 7.6445,2.9258 3.1649,0 5.6929,-0.9798 7.584,-2.9394 1.8911,-1.9695 2.8359,-4.6955 2.8359,-8.1739 0,-3.5079 -0.9545,-6.2453 -2.8652,-8.2148 -1.9009,-1.9694 -4.4406,-2.9551 -7.6153,-2.9551 z m 19.1368,0 c -1.1464,0 -2.0971,0.2056 -2.8516,0.6172 -0.7446,0.4017 -1.2588,0.9275 -1.543,1.5742 -0.2743,0.6466 -0.4121,1.6265 -0.4121,2.9395 v 1.1738 h -2.293 v 3.25 h 2.293 v 12.3594 h 4.1309 v -12.3594 h 3.0879 v -3.25 h -3.0879 v -1.1016 c 0,-0.7937 0.128,-1.3272 0.3828,-1.6015 0.2646,-0.2842 0.6953,-0.4258 1.293,-0.4258 0.6075,0 1.2399,0.077 1.8964,0.2344 l 0.5586,-2.8809 c -1.1268,-0.3527 -2.2793,-0.5293 -3.455,-0.5293 z m -190.7911,0.3672 v 3.6445 h 6.3926 v 17.9024 h 4.3516 v -17.9024 h 6.3789 v -3.6445 z m 19.8868,0 v 21.5469 h 4.1289 v -7.8184 c 0,-1.3129 0.1222,-2.3024 0.3672,-2.9687 0.2547,-0.6761 0.6525,-1.1806 1.1914,-1.5137 0.5388,-0.3331 1.15,-0.5 1.8359,-0.5 0.5977,0 1.0944,0.1319 1.4863,0.3965 0.4018,0.2547 0.6812,0.602 0.8379,1.0429 0.1568,0.441 0.2344,1.4808 0.2344,3.1172 v 8.2442 h 4.1308 v -9.1563 c 0,-1.4012 -0.074,-2.4353 -0.2207,-3.1016 -0.1372,-0.6662 -0.4009,-1.2735 -0.7929,-1.8222 -0.3821,-0.5487 -0.9564,-0.9989 -1.7207,-1.3516 -0.7643,-0.3528 -1.6218,-0.5293 -2.5723,-0.5293 -1.8519,0 -3.4447,0.7781 -4.7773,2.336 v -7.9219 z m 43.5351,0 v 21.5469 h 4.3496 v -8.127 h 2.836 c 1.9695,0 3.475,-0.1028 4.5136,-0.3086 0.7644,-0.1666 1.5133,-0.5042 2.2481,-1.0137 0.7447,-0.5193 1.3578,-1.2294 1.8379,-2.1308 0.4801,-0.9015 0.7207,-2.0132 0.7207,-3.336 0,-1.7146 -0.4171,-3.1116 -1.25,-4.1894 -0.8328,-1.0877 -1.867,-1.7939 -3.1016,-2.1172 -0.8035,-0.2156 -2.5282,-0.3242 -5.1738,-0.3242 z m 140.5098,0 v 21.5469 h 4.3515 v -8.9942 h 0.8809 c 0.9995,0 1.729,0.083 2.1895,0.25 0.4605,0.1567 0.8969,0.4556 1.3085,0.8965 0.4115,0.4311 1.176,1.4846 2.293,3.1602 l 3.1445,4.6875 h 5.2032 l -2.6309,-4.2032 c -1.0386,-1.6756 -1.8671,-2.8416 -2.4844,-3.498 -0.6075,-0.6566 -1.3795,-1.258 -2.3203,-1.8067 1.8912,-0.2742 3.3112,-0.9358 4.2617,-1.9843 0.9505,-1.0582 1.4258,-2.397 1.4258,-4.0137 0,-1.2739 -0.3143,-2.4049 -0.9414,-3.3945 -0.6271,-0.9897 -1.4653,-1.6746 -2.5137,-2.0567 -1.0387,-0.392 -2.709,-0.5898 -5.0117,-0.5898 z m 65.1992,0 v 3.8223 h 4.1289 v -3.8223 z m 8.3633,0 v 21.5469 h 4.1289 v -21.5469 z m 16.623,0 v 21.5469 h 4.3496 v -21.5469 z m 107.1309,0 v 3.8223 h 4.1309 v -3.8223 z m -154.5469,0.4258 -4.1445,2.4121 v 3.0996 h -1.8965 v 3.293 h 1.8965 v 6.8046 c 0,1.46 0.045,2.43 0.1328,2.9102 0.1077,0.6761 0.2979,1.2154 0.5723,1.6172 0.2841,0.3919 0.7264,0.7159 1.3242,0.9707 0.5977,0.245 1.2689,0.3672 2.0136,0.3672 1.215,0 2.3035,-0.2056 3.2637,-0.6172 l -0.3535,-3.2051 c -0.7251,0.2646 -1.28,0.3985 -1.6621,0.3985 -0.2743,0 -0.5092,-0.068 -0.7051,-0.2051 -0.1861,-0.1372 -0.3088,-0.31 -0.3672,-0.5157 -0.049,-0.2155 -0.074,-0.9605 -0.074,-2.2343 v -6.291 h 2.8223 v -3.293 h -2.8223 z m 148.8594,0 -4.1445,2.4121 v 3.0996 h -1.8965 v 3.293 h 1.8965 v 6.8046 c 0,1.46 0.043,2.43 0.1308,2.9102 0.1078,0.6761 0.2999,1.2154 0.5742,1.6172 0.2841,0.3919 0.7245,0.7159 1.3223,0.9707 0.5977,0.245 1.271,0.3672 2.0156,0.3672 1.215,0 2.3015,-0.2056 3.2618,-0.6172 l -0.3516,-3.2051 c -0.7251,0.2646 -1.28,0.3985 -1.6621,0.3985 -0.2744,0 -0.5092,-0.068 -0.7051,-0.2051 -0.1862,-0.1372 -0.3086,-0.31 -0.3672,-0.5157 -0.049,-0.2155 -0.074,-0.9605 -0.074,-2.2343 v -6.291 h 2.8223 v -3.293 h -2.8223 z m -223.8613,2.9258 c 1.7931,0 3.2288,0.6091 4.3066,1.8242 1.0877,1.215 1.6309,3.0562 1.6309,5.5254 0,2.4985 -0.5568,4.3747 -1.6739,5.6289 -1.1071,1.2445 -2.5293,1.8652 -4.2636,1.8652 -1.7344,0 -3.1643,-0.6268 -4.2911,-1.8809 -1.1269,-1.2641 -1.6914,-3.1148 -1.6914,-5.5546 0,-2.479 0.5491,-4.3319 1.6465,-5.5567 1.0975,-1.2346 2.5428,-1.8516 4.336,-1.8515 z m -103.9278,0.2929 h 2.1016 c 1.5677,0 2.6114,0.05 3.1308,0.1485 0.7054,0.1273 1.2895,0.4455 1.75,0.955 0.4605,0.5095 0.6895,1.1556 0.6895,1.9395 0,0.6369 -0.1649,1.1957 -0.498,1.6758 -0.3234,0.4801 -0.7756,0.8332 -1.3536,1.0586 -0.5782,0.2253 -1.7247,0.3379 -3.4394,0.3379 h -2.3809 z m 140.5117,0 h 3.3946 c 1.7637,0 2.8211,0.025 3.1738,0.074 0.7055,0.1175 1.2507,0.4009 1.6328,0.8516 0.392,0.4409 0.586,1.0249 0.586,1.75 0,0.6466 -0.1456,1.184 -0.4395,1.6152 -0.294,0.4311 -0.7014,0.7338 -1.2207,0.9102 -0.5193,0.1765 -1.8211,0.2656 -3.9082,0.2656 h -3.2188 z m -164.0429,1.9414 c -2.0674,0 -3.7768,0.7354 -5.1289,2.2051 -1.3522,1.46 -2.0293,3.4835 -2.0293,6.0703 0,2.1655 0.514,3.9581 1.5429,5.3789 1.3031,1.7735 3.3132,2.6602 6.0274,2.6602 1.7148,0 3.1407,-0.3919 4.2773,-1.1758 1.1465,-0.7937 1.9846,-1.9462 2.5137,-3.4551 l -4.1172,-0.6894 c -0.2253,0.7839 -0.5571,1.3523 -0.998,1.705 -0.441,0.3527 -0.9842,0.5274 -1.6309,0.5274 -0.9504,0 -1.744,-0.3377 -2.3809,-1.0137 -0.637,-0.6859 -0.9723,-1.6404 -1.0019,-2.8652 h 10.3496 c 0.059,-3.1649 -0.5854,-5.5125 -1.9277,-7.041 -1.3424,-1.5384 -3.1738,-2.3067 -5.4961,-2.3067 z m 46.3125,0 c -1.5285,0 -2.9138,0.3376 -4.1582,1.0137 -1.2346,0.6761 -2.1911,1.6577 -2.8672,2.9414 -0.6761,1.2836 -1.0137,2.6087 -1.0137,3.9805 0,1.7931 0.3376,3.3179 1.0137,4.5722 0.6761,1.2444 1.6617,2.1893 2.9551,2.836 1.3032,0.6466 2.6691,0.9707 4.0996,0.9707 2.3124,0 4.2293,-0.7742 5.748,-2.3223 1.5286,-1.558 2.293,-3.5175 2.293,-5.8789 0,-2.3419 -0.7547,-4.2781 -2.2637,-5.8066 -1.5089,-1.5384 -3.4452,-2.3067 -5.8066,-2.3067 z m 40.6679,0 c -2.0676,0 -3.7767,0.7354 -5.1289,2.2051 -1.3522,1.46 -2.0273,3.4835 -2.0273,6.0703 0,2.1655 0.5142,3.9581 1.543,5.3789 1.3032,1.7735 3.3112,2.6602 6.0254,2.6602 1.7147,0 3.1407,-0.3919 4.2773,-1.1758 1.1464,-0.7937 1.9846,-1.9462 2.5137,-3.4551 l -4.1153,-0.6894 c -0.2254,0.7839 -0.559,1.3523 -1,1.705 -0.4409,0.3527 -0.9841,0.5274 -1.6308,0.5274 -0.9505,0 -1.744,-0.3377 -2.3809,-1.0137 -0.6368,-0.6859 -0.9704,-1.6404 -1,-2.8652 h 10.3477 c 0.059,-3.1649 -0.5834,-5.5125 -1.9258,-7.041 -1.3424,-1.5384 -3.176,-2.3067 -5.4981,-2.3067 z m 18.0059,0 c -0.6663,0 -1.2638,0.1667 -1.793,0.5 -0.5193,0.3331 -1.1071,1.0239 -1.7636,2.0723 v -2.2207 h -3.836 v 15.6094 h 4.1289 v -4.8203 c 0,-2.6554 0.1125,-4.3996 0.3379,-5.2325 0.2352,-0.8329 0.5554,-1.4072 0.9571,-1.7207 0.4017,-0.3234 0.8906,-0.4844 1.4687,-0.4844 0.5977,0 1.2437,0.227 1.9395,0.6778 l 1.2793,-3.6016 c -0.8722,-0.5193 -1.7781,-0.7793 -2.7188,-0.7793 z m 82.3516,0 c -2.0675,0 -3.7767,0.7354 -5.1289,2.2051 -1.3522,1.46 -2.0293,3.4835 -2.0293,6.0703 0,2.1655 0.5142,3.9581 1.5429,5.3789 1.3032,1.7735 3.3132,2.6602 6.0274,2.6602 1.7147,0 3.1388,-0.3919 4.2754,-1.1758 1.1464,-0.7937 1.9844,-1.9462 2.5136,-3.4551 l -4.1152,-0.6894 c -0.2254,0.7839 -0.5591,1.3523 -1,1.705 -0.4409,0.3527 -0.9842,0.5274 -1.6309,0.5274 -0.9505,0 -1.7439,-0.3377 -2.3808,-1.0137 -0.6369,-0.6859 -0.9685,-1.6404 -0.9981,-2.8652 h 10.3457 c 0.059,-3.1649 -0.5814,-5.5125 -1.9238,-7.041 -1.3424,-1.5384 -3.1758,-2.3067 -5.498,-2.3067 z m 26.9121,0 c -2.0283,0 -3.5572,0.3628 -4.586,1.0879 -1.0289,0.7251 -1.7544,1.8426 -2.1757,3.3516 l 3.748,0.6758 c 0.2548,-0.7251 0.5885,-1.2296 1,-1.5137 0.4116,-0.2939 0.9859,-0.4414 1.7207,-0.4414 1.0877,0 1.8248,0.1707 2.2168,0.5137 0.3919,0.3331 0.5898,0.8977 0.5898,1.6914 v 0.4101 c -0.7447,0.3135 -2.0833,0.6512 -4.0136,1.0137 -1.4305,0.2744 -2.5267,0.5983 -3.291,0.9707 -0.7545,0.3625 -1.3424,0.8922 -1.7637,1.5879 -0.4213,0.6859 -0.6328,1.4697 -0.6328,2.3515 0,1.3326 0.4618,2.4347 1.3828,3.3067 0.9309,0.8721 2.1977,1.3086 3.8047,1.3086 0.9112,-1e-4 1.7687,-0.1708 2.5722,-0.5137 0.8034,-0.3429 1.5582,-0.859 2.2637,-1.5449 0.029,0.078 0.078,0.2412 0.1465,0.4863 0.1568,0.5389 0.2887,0.9444 0.3965,1.2188 h 4.0879 c -0.3626,-0.7447 -0.6128,-1.4394 -0.75,-2.086 -0.1274,-0.6566 -0.1914,-1.6711 -0.1914,-3.0429 l 0.043,-4.8204 c 0,-1.7931 -0.1843,-3.0231 -0.5567,-3.6894 -0.3625,-0.6761 -0.995,-1.231 -1.8965,-1.6621 -0.9015,-0.441 -2.2731,-0.6602 -4.1152,-0.6602 z m 53.0429,0 c -2.0675,0 -3.7805,0.8808 -5.1425,2.6446 v -2.293 h -3.836 v 15.6094 h 4.1289 v -7.0684 c 0,-1.7442 0.1029,-2.9392 0.3086,-3.5859 0.2156,-0.6467 0.6075,-1.1667 1.1758,-1.5586 0.5683,-0.392 1.2105,-0.5879 1.9258,-0.5879 0.5585,0 1.0319,0.1357 1.4238,0.4101 0.4017,0.2744 0.6928,0.6623 0.8692,1.1621 0.1763,0.4898 0.2635,1.5783 0.2636,3.2637 v 7.9649 h 4.1309 v -9.6993 c 0,-1.2052 -0.08,-2.1327 -0.2363,-2.7793 -0.1471,-0.6467 -0.4147,-1.2229 -0.8067,-1.7324 -0.3821,-0.5095 -0.9525,-0.9267 -1.707,-1.25 -0.7545,-0.3333 -1.5869,-0.5 -2.4981,-0.5 z m 18.3868,0 c -2.0675,0 -3.7806,0.8808 -5.1426,2.6446 v -2.293 h -3.836 v 15.6094 h 4.129 v -7.0684 c 0,-1.7442 0.1027,-2.9392 0.3085,-3.5859 0.2156,-0.6467 0.6075,-1.1667 1.1758,-1.5586 0.5683,-0.392 1.2105,-0.5879 1.9258,-0.5879 0.5586,0 1.0338,0.1357 1.4258,0.4101 0.4017,0.2744 0.6908,0.6623 0.8672,1.1621 0.1764,0.4898 0.2636,1.5783 0.2636,3.2637 v 7.9649 h 4.1309 v -9.6993 c 0,-1.2052 -0.08,-2.1327 -0.2363,-2.7793 -0.147,-0.6467 -0.4148,-1.2229 -0.8067,-1.7324 -0.3821,-0.5095 -0.9525,-0.9267 -1.707,-1.25 -0.7545,-0.3333 -1.5867,-0.5 -2.498,-0.5 z m 16.5195,0 c -1.5286,0 -2.9138,0.3376 -4.1582,1.0137 -1.2346,0.6761 -2.1891,1.6577 -2.8652,2.9414 -0.6761,1.2836 -1.0137,2.6087 -1.0137,3.9805 0,1.7931 0.3376,3.3179 1.0137,4.5722 0.6761,1.2444 1.6597,2.1893 2.9531,2.836 1.3032,0.6466 2.671,0.9707 4.1016,0.9707 2.3124,0 4.2272,-0.7742 5.746,-2.3223 1.5285,-1.558 2.293,-3.5175 2.293,-5.8789 0,-2.3419 -0.7547,-4.2781 -2.2637,-5.8066 -1.5089,-1.5384 -3.4452,-2.3067 -5.8066,-2.3067 z m 34.1445,0 c -2.0282,0 -3.557,0.3628 -4.5859,1.0879 -1.0288,0.7251 -1.7545,1.8426 -2.1758,3.3516 l 3.7481,0.6758 c 0.2547,-0.7251 0.5885,-1.2296 1,-1.5137 0.4116,-0.2939 0.9858,-0.4414 1.7207,-0.4414 1.0876,0 1.8267,0.1707 2.2187,0.5137 0.3919,0.3331 0.5879,0.8977 0.5879,1.6914 v 0.4101 c -0.7446,0.3135 -2.0834,0.6512 -4.0137,1.0137 -1.4305,0.2744 -2.5266,0.5983 -3.291,0.9707 -0.7544,0.3625 -1.3424,0.8922 -1.7637,1.5879 -0.4214,0.6859 -0.6328,1.4697 -0.6328,2.3515 0,1.3326 0.4617,2.4347 1.3828,3.3067 0.9308,0.8721 2.1978,1.3086 3.8047,1.3086 0.9112,-1e-4 1.7688,-0.1708 2.5723,-0.5137 0.8035,-0.3429 1.5601,-0.859 2.2656,-1.5449 0.029,0.078 0.076,0.2412 0.1446,0.4863 0.1567,0.5389 0.2906,0.9444 0.3984,1.2188 h 4.0859 c -0.3625,-0.7447 -0.6127,-1.4394 -0.75,-2.086 -0.1273,-0.6566 -0.1914,-1.6711 -0.1914,-3.0429 l 0.045,-4.8204 c 0,-1.7931 -0.1863,-3.0231 -0.5586,-3.6894 -0.3626,-0.6761 -0.9951,-1.231 -1.8965,-1.6621 -0.9015,-0.441 -2.2731,-0.6602 -4.1152,-0.6602 z m 36.1114,0 c -1.5286,0 -2.9158,0.3376 -4.1602,1.0137 -1.2346,0.6761 -2.1891,1.6577 -2.8652,2.9414 -0.6762,1.2836 -1.0137,2.6087 -1.0137,3.9805 0,1.7931 0.3375,3.3179 1.0137,4.5722 0.6761,1.2444 1.6616,2.1893 2.955,2.836 1.3031,0.6466 2.6691,0.9707 4.0997,0.9707 2.3124,0 4.2293,-0.7742 5.748,-2.3223 1.5286,-1.558 2.293,-3.5175 2.293,-5.8789 0,-2.3419 -0.7548,-4.2781 -2.2637,-5.8066 -1.509,-1.5384 -3.4451,-2.3067 -5.8066,-2.3067 z m 20.2539,0 c -2.0675,0 -3.7826,0.8808 -5.1446,2.6446 v -2.293 h -3.8359 v 15.6094 h 4.1309 v -7.0684 c 0,-1.7442 0.1028,-2.9392 0.3086,-3.5859 0.2156,-0.6467 0.6075,-1.1667 1.1757,-1.5586 0.5684,-0.392 1.2086,-0.5879 1.9239,-0.5879 0.5584,0 1.0358,0.1357 1.4277,0.4101 0.4018,0.2744 0.6889,0.6623 0.8652,1.1621 0.1764,0.4898 0.2657,1.5783 0.2657,3.2637 v 7.9649 h 4.1308 v -9.6993 c 0,-1.2052 -0.079,-2.1327 -0.2363,-2.7793 -0.147,-0.6467 -0.4167,-1.2229 -0.8086,-1.7324 -0.3822,-0.5095 -0.9506,-0.9267 -1.7051,-1.25 -0.7544,-0.3333 -1.5867,-0.5 -2.498,-0.5 z m -337.1231,0.3516 4.9395,15.6094 h 4.0117 l 2.6465,-10.0371 2.6894,10.0371 h 3.9688 l 5.0117,-15.6094 h -4.0703 l -2.9844,10.2305 -2.6016,-10.2305 h -3.9824 l -2.6894,10.2305 -2.9258,-10.2305 z m 169.3047,0 v 15.6094 h 4.1289 v -15.6094 z m 86.6133,0 6.291,15.6094 h 3.7188 l 6.2031,-15.6094 h -4.2481 l -2.9707,7.9687 c -0.1568,0.4409 -0.3023,0.8814 -0.4394,1.3223 -0.059,0.2155 -0.2004,0.6598 -0.4258,1.3359 l -0.8535,-2.6582 -2.9395,-7.9687 z m 45.5039,0 v 15.6094 h 4.1309 v -15.6094 z m -356.7578,2.8086 c 0.8426,0 1.5586,0.3123 2.1465,0.9394 0.5879,0.6173 0.8961,1.5253 0.9257,2.7207 h -6.1718 c -0.01,-1.1268 0.2773,-2.0192 0.8652,-2.6757 0.588,-0.6565 1.3329,-0.9844 2.2344,-0.9844 z m 86.9824,0 c 0.8427,0 1.5567,0.3123 2.1445,0.9394 0.588,0.6173 0.8962,1.5253 0.9258,2.7207 h -6.1719 c -0.01,-1.1268 0.2773,-2.0192 0.8653,-2.6757 0.5879,-0.6565 1.3348,-0.9844 2.2363,-0.9844 z m 100.3555,0 c 0.8427,0 1.5566,0.3123 2.1445,0.9394 0.588,0.6173 0.8981,1.5253 0.9277,2.7207 h -6.1738 c -0.01,-1.1268 0.2792,-2.0192 0.8672,-2.6757 0.5879,-0.6565 1.3329,-0.9844 2.2344,-0.9844 z m -141.2598,0.2051 c 1.0778,0 1.9781,0.4112 2.7031,1.2343 0.7349,0.823 1.1035,1.9989 1.1035,3.5274 0,1.5677 -0.3686,2.7648 -1.1035,3.5879 -0.725,0.823 -1.6253,1.2343 -2.7031,1.2343 -1.0778,0 -1.9839,-0.4113 -2.7188,-1.2343 -0.7349,-0.8231 -1.1035,-2.0105 -1.1035,-3.5586 0,-1.5482 0.3686,-2.7337 1.1035,-3.5567 0.7349,-0.8231 1.641,-1.2343 2.7188,-1.2343 z m 255.8867,0 c 1.0779,0 1.98,0.4112 2.7051,1.2343 0.7349,0.823 1.1016,1.9989 1.1016,3.5274 0,1.5677 -0.3667,2.7648 -1.1016,3.5879 -0.7251,0.823 -1.6272,1.2343 -2.7051,1.2343 -1.0777,0 -1.9838,-0.4113 -2.7187,-1.2343 -0.7349,-0.8231 -1.1016,-2.0105 -1.1016,-3.5586 0,-1.5482 0.3667,-2.7337 1.1016,-3.5567 0.7349,-0.8231 1.641,-1.2343 2.7187,-1.2343 z m 70.2559,0 c 1.0778,0 1.978,0.4112 2.7031,1.2343 0.7349,0.823 1.1035,1.9989 1.1035,3.5274 0,1.5677 -0.3686,2.7648 -1.1035,3.5879 -0.7251,0.823 -1.6253,1.2343 -2.7031,1.2343 -1.0779,0 -1.9859,-0.4113 -2.7207,-1.2343 -0.7349,-0.8231 -1.1016,-2.0105 -1.1016,-3.5586 0,-1.5482 0.3667,-2.7337 1.1016,-3.5567 0.7348,-0.8231 1.6428,-1.2343 2.7207,-1.2343 z m -155.709,5.0996 v 0.8242 c 0,0.9896 -0.052,1.6609 -0.1602,2.0137 -0.1568,0.5389 -0.4865,0.9948 -0.9863,1.3671 -0.676,0.4899 -1.3863,0.7344 -2.1309,0.7344 -0.6664,0 -1.2133,-0.2095 -1.6445,-0.6308 -0.4311,-0.4214 -0.6484,-0.922 -0.6484,-1.5 0,-0.588 0.2697,-1.073 0.8086,-1.4551 0.3527,-0.2352 1.1036,-0.4757 2.25,-0.7207 1.1464,-0.245 1.9826,-0.4565 2.5117,-0.6328 z m 122.0957,0 v 0.8242 c 0,0.9896 -0.054,1.6609 -0.1621,2.0137 -0.1568,0.5389 -0.4846,0.9948 -0.9844,1.3671 -0.676,0.4899 -1.3881,0.7344 -2.1328,0.7344 -0.6663,0 -1.2134,-0.2095 -1.6445,-0.6308 -0.4311,-0.4214 -0.6486,-0.922 -0.6485,-1.5 0,-0.588 0.2697,-1.073 0.8086,-1.4551 0.3528,-0.2352 1.1036,-0.4757 2.25,-0.7207 1.1465,-0.245 1.9846,-0.4565 2.5137,-0.6328 z m -434.9473,47.7265 a 291.14999,291.14999 0 0 0 0.098,0.4473 291.20001,291.20001 0 0 0 52.9629,107.1348 v -1.3594 h 456.9609 v 1.789 a 291.20001,291.20001 0 0 0 53.2735,-107.582 291.14999,291.14999 0 0 0 0.094,-0.4297 z m 510.0215,108.0117 a 291.20001,291.20001 0 0 1 -6.6738,8.4512 h 0.5684 a 291.14999,291.14999 0 0 0 6.1054,-8.1543 z m -6.6738,8.4512 h -443.3106 a 291.20001,291.20001 0 0 0 209.6211,102.5469 291.14999,291.14999 0 0 0 12.0371,0.8613 291.14999,291.14999 0 0 0 11.9747,-0.8574 291.20001,291.20001 0 0 0 209.6777,-102.5508 z m -443.3106,0 a 291.20001,291.20001 0 0 1 -6.9765,-8.8808 v 0.3164 a 291.14999,291.14999 0 0 0 6.4121,8.5644 z m 225.336,-96.7949 c 3.6111,0 6.8479,0.5966 9.709,1.791 2.8889,1.1667 5.207,2.9299 6.957,5.291 1.75,2.3611 2.7917,4.9312 3.125,7.709 0.3333,2.7778 0.5,7.6396 0.5,14.584 v 11.541 c 0,6.7778 -0.1667,11.5827 -0.5,14.416 -0.3055,2.8056 -1.3055,5.3757 -3,7.709 -1.6667,2.3333 -3.9299,4.125 -6.791,5.375 -2.8611,1.25 -6.1945,1.875 -10,1.875 -3.6111,0 -6.8611,-0.5833 -9.75,-1.75 -2.8611,-1.1944 -5.166,-2.9729 -6.916,-5.334 -1.75,-2.3611 -2.7917,-4.9292 -3.125,-7.707 -0.3334,-2.7778 -0.5,-7.6395 -0.5,-14.584 v -11.541 c 0,-6.7778 0.1515,-11.5694 0.457,-14.375 0.3333,-2.8333 1.3333,-5.4167 3,-7.75 1.6945,-2.3333 3.9729,-4.125 6.834,-5.375 2.8611,-1.25 6.1944,-1.875 10,-1.875 z m 84.125,0 c 4.5555,0 8.4306,0.7348 11.625,2.207 3.2222,1.4723 5.3472,3.334 6.375,5.584 1.0556,2.2222 1.582,6.0139 1.582,11.375 v 2.666 h -16.291 v -5 c 0,-2.3333 -0.2083,-3.8181 -0.625,-4.457 -0.4167,-0.6389 -1.1098,-0.959 -2.082,-0.959 -1.0556,0 -1.8624,0.4299 -2.418,1.291 -0.5278,0.8611 -0.791,2.168 -0.791,3.918 0,2.25 0.3049,3.9431 0.916,5.082 0.5833,1.1389 2.2368,2.5139 4.959,4.125 7.8055,4.6389 12.7222,8.4458 14.75,11.418 2.0278,2.9722 3.041,7.7639 3.041,14.375 0,4.8056 -0.5701,8.3472 -1.709,10.625 -1.1111,2.2778 -3.2778,4.1944 -6.5,5.75 -3.2222,1.5278 -6.9702,2.291 -11.248,2.291 -4.6945,0 -8.7097,-0.8882 -12.043,-2.666 -3.3055,-1.7778 -5.4722,-4.043 -6.5,-6.793 -1.0278,-2.75 -1.541,-6.6514 -1.541,-11.707 v -4.418 h 16.291 v 8.209 c 0,2.5278 0.2235,4.1528 0.668,4.875 0.4722,0.7222 1.2903,1.084 2.457,1.084 1.1667,0 2.0284,-0.4583 2.584,-1.375 0.5833,-0.9167 0.875,-2.2784 0.875,-4.084 0,-3.9722 -0.5417,-6.5688 -1.625,-7.791 -1.1111,-1.2222 -3.8479,-3.2639 -8.209,-6.125 -4.3611,-2.8889 -7.2493,-4.9874 -8.666,-6.293 -1.4167,-1.3055 -2.5966,-3.1104 -3.541,-5.416 -0.9167,-2.3055 -1.375,-5.2506 -1.375,-8.834 0,-5.1666 0.6515,-8.9431 1.957,-11.332 1.3333,-2.3889 3.4735,-4.2506 6.418,-5.584 2.9444,-1.3611 6.4993,-2.041 10.666,-2.041 z m -299.416,1.416 h 17.666 c 4.7778,0 8.4444,0.375 11,1.125 2.5833,0.75 4.5132,1.8334 5.791,3.25 1.3056,1.4167 2.1806,3.1383 2.625,5.166 0.4722,2 0.709,5.1118 0.709,9.334 v 5.875 c 0,4.3056 -0.4451,7.4438 -1.334,9.416 -0.8889,1.9723 -2.5271,3.4874 -4.916,4.543 -2.3611,1.0556 -5.4577,1.582 -9.291,1.582 h -4.709 v 27.168 h -17.541 z m 85.957,0 h 17.334 v 8.791 h -17.334 z m 170.959,0 h 6.166 v 8.541 c -3.4722,0 -5.5271,0.1667 -6.166,0.5 -0.6111,0.3056 -0.916,1.209 -0.916,2.709 v 1.75 h 7.082 v 8.75 h -4 v 45.209 h -16.832 v -45.209 h -3.459 v -8.75 h 3.459 c 0,-3.6389 0.125,-6.0688 0.375,-7.291 0.25,-1.2222 0.8598,-2.3056 1.832,-3.25 1,-0.9722 2.3902,-1.709 4.168,-2.209 1.7778,-0.5 4.541,-0.75 8.291,-0.75 z m 111.541,0 h 17.334 v 67.459 h -17.334 z m -213.625,4.791 h 16.875 v 8.709 h 4.543 v 8.75 h -4.543 v 29.584 c 0,3.6389 0.1819,5.6654 0.543,6.082 0.3889,0.4167 1.957,0.625 4.707,0.625 v 8.918 h -6.791 c -3.8333,0 -6.5701,-0.1534 -8.209,-0.459 -1.6389,-0.3333 -3.082,-1.0701 -4.332,-2.209 -1.25,-1.1666 -2.0284,-2.4848 -2.334,-3.957 -0.3056,-1.5 -0.459,-5 -0.459,-10.5 v -28.084 h -3.625 v -8.75 h 3.625 z m 60.543,5.209 c -0.9167,0 -1.625,0.3618 -2.125,1.084 -0.4722,0.6944 -0.709,2.7778 -0.709,6.25 v 31.5 c 0,3.9167 0.1534,6.3333 0.459,7.25 0.3333,0.9167 1.0833,1.375 2.25,1.375 1.1944,0 1.9577,-0.5284 2.291,-1.584 0.3333,-1.0555 0.5,-3.5688 0.5,-7.541 v -31 c 0,-3.1389 -0.1799,-5.1389 -0.541,-6 -0.3334,-0.8889 -1.0417,-1.334 -2.125,-1.334 z m -154.793,1.166 c 3.7778,0 7.0146,0.5701 9.709,1.709 2.7222,1.1111 4.8188,2.5695 6.291,4.375 1.4722,1.8056 2.4722,3.6673 3,5.584 0.5556,1.9167 0.834,4.8333 0.834,8.75 v 13.541 c 0,4.9722 -0.25,8.6257 -0.75,10.959 -0.5,2.3056 -1.5701,4.4722 -3.209,6.5 -1.6389,2 -3.7487,3.4848 -6.332,4.457 -2.5556,0.9445 -5.5007,1.418 -8.834,1.418 -3.7222,0 -6.8757,-0.4034 -9.459,-1.209 -2.5833,-0.8333 -4.5966,-2.0701 -6.041,-3.709 -1.4167,-1.6666 -2.4299,-3.6666 -3.041,-6 -0.6111,-2.3611 -0.918,-5.8876 -0.918,-10.582 v -14.168 c 0,-5.1388 0.5569,-9.1521 1.668,-12.041 1.1111,-2.8889 3.1111,-5.209 6,-6.959 2.8889,-1.75 6.582,-2.625 11.082,-2.625 z m 76.168,0 c 2.8889,0 5.2487,0.6819 7.082,2.043 1.8333,1.3611 3.0152,3.0827 3.543,5.166 0.5278,2.0556 0.791,5.5007 0.791,10.334 v 38.75 h -16.834 v -38.293 c 0,-3.8055 -0.125,-6.1237 -0.375,-6.957 -0.25,-0.8333 -0.9431,-1.25 -2.082,-1.25 -1.1945,0 -1.9445,0.4848 -2.25,1.457 -0.3056,0.9445 -0.459,3.5013 -0.459,7.668 v 37.375 h -16.834 v -55.293 h 17.125 l -0.291,5.084 c 1.2222,-2.0278 2.709,-3.541 4.459,-4.541 1.7778,-1.0278 3.8194,-1.543 6.125,-1.543 z m 206.957,0 c 5.6944,0 9.9861,1.0152 12.875,3.043 2.8889,2 4.6257,4.4716 5.209,7.416 0.5833,2.9167 0.875,8.9451 0.875,18.084 v 27.75 h -16.375 v -4.918 c -1.0278,1.9723 -2.3611,3.459 -4,4.459 -1.6111,0.9722 -3.543,1.459 -5.793,1.459 -2.9444,0 -5.6528,-0.8201 -8.125,-2.459 -2.4444,-1.6666 -3.666,-5.2917 -3.666,-10.875 v -4.541 c 0,-4.1389 0.6534,-6.959 1.959,-8.459 1.3056,-1.5 4.5404,-3.25 9.707,-5.25 5.5278,-2.1666 8.4861,-3.625 8.875,-4.375 0.3889,-0.75 0.584,-2.2784 0.584,-4.584 0,-2.8889 -0.2216,-4.7639 -0.666,-5.625 -0.4167,-0.8889 -1.125,-1.332 -2.125,-1.332 -1.1389,0 -1.8472,0.375 -2.125,1.125 -0.2778,0.7222 -0.418,2.6237 -0.418,5.707 v 5.793 h -15.791 v -3.709 c 0,-4.2778 0.4868,-7.5694 1.459,-9.875 1,-2.3333 2.9848,-4.3882 5.957,-6.166 2.9722,-1.7778 6.834,-2.668 11.584,-2.668 z m 66.25,0 c 4.7222,0 8.6105,0.9035 11.666,2.709 3.0834,1.7778 5.2368,4.1528 6.459,7.125 1.25,2.9445 1.875,7.0979 1.875,12.459 v 7.332 h -21.791 v 11.959 c 0,2.5 0.1799,4.1118 0.541,4.834 0.3611,0.7222 1.0562,1.082 2.084,1.082 1.2778,0 2.1243,-0.4715 2.541,-1.416 0.4445,-0.9722 0.666,-2.834 0.666,-5.584 v -7.291 h 15.959 v 4.084 c 0,3.4167 -0.2216,6.0417 -0.666,7.875 -0.4167,1.8333 -1.4167,3.7917 -3,5.875 -1.5833,2.0833 -3.5985,3.6515 -6.043,4.707 -2.4166,1.0278 -5.4583,1.543 -9.125,1.543 -3.5555,0 -6.6938,-0.5152 -9.416,-1.543 -2.7222,-1.0277 -4.8472,-2.4292 -6.375,-4.207 -1.5,-1.8055 -2.5417,-3.7791 -3.125,-5.918 -0.5833,-2.1666 -0.875,-5.3049 -0.875,-9.416 v -16.125 c 0,-4.8333 0.6534,-8.6382 1.959,-11.416 1.3056,-2.8055 3.4438,-4.9457 6.416,-6.418 2.9722,-1.5 6.3889,-2.25 10.25,-2.25 z m -392.416,0.375 v 17.168 c 0.5,0.028 0.9299,0.041 1.291,0.041 1.6111,0 2.7229,-0.3882 3.334,-1.166 0.6389,-0.8056 0.959,-2.459 0.959,-4.959 v -5.541 c 0,-2.3055 -0.3618,-3.8056 -1.084,-4.5 -0.7222,-0.6944 -2.2222,-1.043 -4.5,-1.043 z m 68.416,0.625 h 17.334 v 55.293 h -17.334 z m -24.791,8.793 c -1,0 -1.6667,0.375 -2,1.125 -0.3333,0.7222 -0.5,2.4987 -0.5,5.332 v 24.959 c 0,2.6111 0.1667,4.3195 0.5,5.125 0.3333,0.7778 0.9868,1.166 1.959,1.166 1,0 1.6515,-0.3598 1.957,-1.082 0.3333,-0.7222 0.5,-2.2791 0.5,-4.668 v -25.5 c 0,-2.8333 -0.1515,-4.6098 -0.457,-5.332 -0.3056,-0.75 -0.959,-1.125 -1.959,-1.125 z m 349.582,0 c -1.1666,0 -1.8882,0.3598 -2.166,1.082 -0.2778,0.6945 -0.416,2.5979 -0.416,5.709 v 4.041 h 4.916 v -4.041 c 0,-2.8611 -0.1534,-4.7077 -0.459,-5.541 -0.3055,-0.8333 -0.9305,-1.25 -1.875,-1.25 z m -64.916,20.207 c -2.6944,1.9723 -4.2645,3.6257 -4.709,4.959 -0.4166,1.3334 -0.625,3.25 -0.625,5.75 0,2.8611 0.1819,4.7077 0.543,5.541 0.3889,0.8334 1.1389,1.25 2.25,1.25 1.0556,0 1.7355,-0.3181 2.041,-0.957 0.3333,-0.6667 0.5,-2.3902 0.5,-5.168 z" /></g></svg>
